%TF.GenerationSoftware,KiCad,Pcbnew,9.0.7*%
%TF.CreationDate,2026-02-12T23:19:41-05:00*%
%TF.ProjectId,Pedal,50656461-6c2e-46b6-9963-61645f706362,rev?*%
%TF.SameCoordinates,Original*%
%TF.FileFunction,Copper,L1,Top*%
%TF.FilePolarity,Positive*%
%FSLAX46Y46*%
G04 Gerber Fmt 4.6, Leading zero omitted, Abs format (unit mm)*
G04 Created by KiCad (PCBNEW 9.0.7) date 2026-02-12 23:19:41*
%MOMM*%
%LPD*%
G01*
G04 APERTURE LIST*
G04 Aperture macros list*
%AMRoundRect*
0 Rectangle with rounded corners*
0 $1 Rounding radius*
0 $2 $3 $4 $5 $6 $7 $8 $9 X,Y pos of 4 corners*
0 Add a 4 corners polygon primitive as box body*
4,1,4,$2,$3,$4,$5,$6,$7,$8,$9,$2,$3,0*
0 Add four circle primitives for the rounded corners*
1,1,$1+$1,$2,$3*
1,1,$1+$1,$4,$5*
1,1,$1+$1,$6,$7*
1,1,$1+$1,$8,$9*
0 Add four rect primitives between the rounded corners*
20,1,$1+$1,$2,$3,$4,$5,0*
20,1,$1+$1,$4,$5,$6,$7,0*
20,1,$1+$1,$6,$7,$8,$9,0*
20,1,$1+$1,$8,$9,$2,$3,0*%
G04 Aperture macros list end*
%TA.AperFunction,ComponentPad*%
%ADD10C,1.600000*%
%TD*%
%TA.AperFunction,ComponentPad*%
%ADD11RoundRect,0.250000X-0.550000X0.550000X-0.550000X-0.550000X0.550000X-0.550000X0.550000X0.550000X0*%
%TD*%
%TA.AperFunction,ComponentPad*%
%ADD12C,2.200000*%
%TD*%
%TA.AperFunction,ComponentPad*%
%ADD13C,1.200000*%
%TD*%
%TA.AperFunction,ComponentPad*%
%ADD14RoundRect,0.250000X-0.550000X-0.550000X0.550000X-0.550000X0.550000X0.550000X-0.550000X0.550000X0*%
%TD*%
%TA.AperFunction,ComponentPad*%
%ADD15RoundRect,0.249999X-0.850001X-0.850001X0.850001X-0.850001X0.850001X0.850001X-0.850001X0.850001X0*%
%TD*%
%TA.AperFunction,ComponentPad*%
%ADD16RoundRect,0.250000X0.550000X-0.550000X0.550000X0.550000X-0.550000X0.550000X-0.550000X-0.550000X0*%
%TD*%
%TA.AperFunction,ComponentPad*%
%ADD17C,1.440000*%
%TD*%
%TA.AperFunction,ComponentPad*%
%ADD18R,1.800000X1.800000*%
%TD*%
%TA.AperFunction,ComponentPad*%
%ADD19C,1.800000*%
%TD*%
%TA.AperFunction,Conductor*%
%ADD20C,1.270000*%
%TD*%
G04 APERTURE END LIST*
D10*
%TO.P,U1,8*%
%TO.N,VCC*%
X158000000Y-94000000D03*
%TO.P,U1,7*%
%TO.N,N/C*%
X155460000Y-94000000D03*
%TO.P,U1,6*%
X152920000Y-94000000D03*
%TO.P,U1,5*%
X150380000Y-94000000D03*
%TO.P,U1,4*%
%TO.N,GND*%
X150380000Y-86380000D03*
%TO.P,U1,3,+*%
%TO.N,Net-(U1A-+)*%
X152920000Y-86380000D03*
%TO.P,U1,2,-*%
%TO.N,Net-(D1-K)*%
X155460000Y-86380000D03*
D11*
%TO.P,U1,1*%
%TO.N,Net-(D1-A)*%
X158000000Y-86380000D03*
%TD*%
D12*
%TO.P,H6,1,1*%
%TO.N,Net-(H6-Pad1)*%
X160020000Y-99060000D03*
%TD*%
%TO.P,H5,1,1*%
%TO.N,GND*%
X154940000Y-99060000D03*
%TD*%
%TO.P,H4,1,1*%
%TO.N,Net-(D4-K)*%
X149860000Y-99060000D03*
%TD*%
%TO.P,H3,1,1*%
%TO.N,Net-(H3-Pad1)*%
X144780000Y-99060000D03*
%TD*%
%TO.P,H2,1,1*%
%TO.N,GND*%
X165100000Y-50800000D03*
%TD*%
%TO.P,H1,1,1*%
%TO.N,Net-(D7-K)*%
X139700000Y-50800000D03*
%TD*%
D10*
%TO.P,R4,1*%
%TO.N,GND*%
X153670000Y-57000000D03*
%TO.P,R4,2*%
%TO.N,VCC*%
X161290000Y-57000000D03*
%TD*%
%TO.P,R1,1*%
%TO.N,Net-(H3-Pad1)*%
X144780000Y-85090000D03*
%TO.P,R1,2*%
%TO.N,Net-(C1-Pad1)*%
X144780000Y-77470000D03*
%TD*%
D13*
%TO.P,C4,1*%
%TO.N,Net-(C4-Pad1)*%
X137160000Y-63500000D03*
%TO.P,C4,2*%
%TO.N,GND*%
X139160000Y-63500000D03*
%TD*%
D14*
%TO.P,C7,1*%
%TO.N,VCC*%
X154940000Y-71120000D03*
D10*
%TO.P,C7,2*%
%TO.N,GND*%
X157440000Y-71120000D03*
%TD*%
%TO.P,R5,1*%
%TO.N,Net-(D4-A)*%
X149860000Y-58420000D03*
%TO.P,R5,2*%
%TO.N,Net-(D7-K)*%
X142240000Y-58420000D03*
%TD*%
D14*
%TO.P,C1,1*%
%TO.N,Net-(C1-Pad1)*%
X149900000Y-78740000D03*
D10*
%TO.P,C1,2*%
%TO.N,Net-(U1A-+)*%
X152400000Y-78740000D03*
%TD*%
D13*
%TO.P,C5,1*%
%TO.N,VCC*%
X135160000Y-71120000D03*
%TO.P,C5,2*%
%TO.N,GND*%
X137160000Y-71120000D03*
%TD*%
D14*
%TO.P,C3,1*%
%TO.N,Net-(C3-Pad1)*%
X170220000Y-60960000D03*
D10*
%TO.P,C3,2*%
%TO.N,GND*%
X172720000Y-60960000D03*
%TD*%
D15*
%TO.P,D7,1,K*%
%TO.N,Net-(D7-K)*%
X148590000Y-53340000D03*
D12*
%TO.P,D7,2,A*%
%TO.N,GND*%
X156210000Y-53340000D03*
%TD*%
D13*
%TO.P,C6,1*%
%TO.N,Net-(C6-Pad1)*%
X158020000Y-78740000D03*
%TO.P,C6,2*%
%TO.N,Net-(D1-A)*%
X160020000Y-78740000D03*
%TD*%
D14*
%TO.P,C2,1*%
%TO.N,Net-(C2-Pad1)*%
X157520000Y-63500000D03*
D10*
%TO.P,C2,2*%
%TO.N,GND*%
X160020000Y-63500000D03*
%TD*%
D16*
%TO.P,D2,1,K*%
%TO.N,Net-(D1-A)*%
X170180000Y-83820000D03*
D10*
%TO.P,D2,2,A*%
%TO.N,Net-(D1-K)*%
X170180000Y-76200000D03*
%TD*%
%TO.P,R6,1*%
%TO.N,Net-(C4-Pad1)*%
X134620000Y-77470000D03*
%TO.P,R6,2*%
%TO.N,VCC*%
X134620000Y-85090000D03*
%TD*%
%TO.P,R7,1*%
%TO.N,GND*%
X139700000Y-85090000D03*
%TO.P,R7,2*%
%TO.N,Net-(C4-Pad1)*%
X139700000Y-77470000D03*
%TD*%
%TO.P,R3,1*%
%TO.N,Net-(D1-K)*%
X170180000Y-88900000D03*
%TO.P,R3,2*%
%TO.N,Net-(C2-Pad1)*%
X162560000Y-88900000D03*
%TD*%
%TO.P,R2,1*%
%TO.N,Net-(U1A-+)*%
X142240000Y-74930000D03*
%TO.P,R2,2*%
%TO.N,Net-(C4-Pad1)*%
X142240000Y-67310000D03*
%TD*%
D11*
%TO.P,D1,1,K*%
%TO.N,Net-(D1-K)*%
X165100000Y-76200000D03*
D10*
%TO.P,D1,2,A*%
%TO.N,Net-(D1-A)*%
X165100000Y-83820000D03*
%TD*%
D17*
%TO.P,RV2,1,1*%
%TO.N,Net-(D1-A)*%
X162560000Y-71120000D03*
%TO.P,RV2,2,2*%
X162560000Y-68580000D03*
%TO.P,RV2,3,3*%
%TO.N,Net-(C2-Pad1)*%
X162560000Y-66040000D03*
%TD*%
D18*
%TO.P,D4,1,K*%
%TO.N,Net-(D4-K)*%
X153675000Y-63500000D03*
D19*
%TO.P,D4,2,A*%
%TO.N,Net-(D4-A)*%
X151135000Y-63500000D03*
%TD*%
D17*
%TO.P,RV1,1,1*%
%TO.N,Net-(RV1-Pad1)*%
X170180000Y-66040000D03*
%TO.P,RV1,2,2*%
%TO.N,Net-(C3-Pad1)*%
X170180000Y-68580000D03*
%TO.P,RV1,3,3*%
%TO.N,Net-(C6-Pad1)*%
X170180000Y-71120000D03*
%TD*%
%TO.P,RV3,1,1*%
%TO.N,Net-(RV1-Pad1)*%
X149860000Y-71120000D03*
%TO.P,RV3,2,2*%
%TO.N,Net-(H6-Pad1)*%
X147320000Y-71120000D03*
%TO.P,RV3,3,3*%
%TO.N,GND*%
X144780000Y-71120000D03*
%TD*%
D20*
%TO.N,Net-(D4-K)*%
X139000000Y-81500000D02*
X145000000Y-81500000D01*
X136171827Y-84328173D02*
X139000000Y-81500000D01*
X136256000Y-84412346D02*
X136171827Y-84328173D01*
X136256000Y-85767654D02*
X136256000Y-84412346D01*
X131513000Y-84296654D02*
X133942346Y-86726000D01*
X133942346Y-86726000D02*
X135297654Y-86726000D01*
X146954000Y-83454000D02*
X146954000Y-96154000D01*
X139700000Y-58420000D02*
X131513000Y-58420000D01*
X146954000Y-65674000D02*
X139700000Y-58420000D01*
X145000000Y-81500000D02*
X146954000Y-83454000D01*
X153675000Y-63500000D02*
X151501000Y-65674000D01*
X151501000Y-65674000D02*
X146954000Y-65674000D01*
X146954000Y-96154000D02*
X149860000Y-99060000D01*
X131513000Y-58420000D02*
X131513000Y-84296654D01*
X135297654Y-86726000D02*
X136256000Y-85767654D01*
%TO.N,VCC*%
X155884000Y-64616000D02*
X155884000Y-70176000D01*
X155938619Y-64561381D02*
X155884000Y-64616000D01*
X155884000Y-70176000D02*
X154940000Y-71120000D01*
X155884000Y-62493238D02*
X155884000Y-64506762D01*
X161290000Y-57087238D02*
X155884000Y-62493238D01*
X161290000Y-57000000D02*
X161290000Y-57087238D01*
X155884000Y-64506762D02*
X155938619Y-64561381D01*
%TO.N,Net-(C2-Pad1)*%
X157520000Y-65020000D02*
X157520000Y-63500000D01*
X158540000Y-66040000D02*
X157520000Y-65020000D01*
X162560000Y-66040000D02*
X158540000Y-66040000D01*
%TO.N,Net-(C4-Pad1)*%
X137160000Y-66160000D02*
X137160000Y-63500000D01*
X138310000Y-67310000D02*
X137160000Y-66160000D01*
X142240000Y-67310000D02*
X138310000Y-67310000D01*
X134620000Y-76200000D02*
X134620000Y-77470000D01*
X137320000Y-73500000D02*
X134620000Y-76200000D01*
X142240000Y-67310000D02*
X142240000Y-70960000D01*
X142240000Y-70960000D02*
X139700000Y-73500000D01*
X139700000Y-73500000D02*
X137320000Y-73500000D01*
%TO.N,Net-(U1A-+)*%
X152920000Y-82000000D02*
X152920000Y-86380000D01*
X152400000Y-81480000D02*
X152920000Y-82000000D01*
X152400000Y-78740000D02*
X152400000Y-81480000D01*
%TO.N,GND*%
X156210000Y-53340000D02*
X156210000Y-55880000D01*
X156210000Y-55880000D02*
X155090000Y-57000000D01*
X155090000Y-57000000D02*
X153670000Y-57000000D01*
%TO.N,Net-(D1-A)*%
X165100000Y-83820000D02*
X160560000Y-83820000D01*
X160560000Y-83820000D02*
X158000000Y-86380000D01*
%TO.N,Net-(D1-K)*%
X155460000Y-83202238D02*
X155460000Y-86380000D01*
X156584000Y-82078238D02*
X155460000Y-83202238D01*
%TO.N,GND*%
X139160000Y-63500000D02*
X139160000Y-63419692D01*
%TO.N,Net-(U1A-+)*%
X152400000Y-77608630D02*
X149721370Y-74930000D01*
X152400000Y-78740000D02*
X152400000Y-77608630D01*
X149721370Y-74930000D02*
X142240000Y-74930000D01*
%TO.N,Net-(C1-Pad1)*%
X144780000Y-77470000D02*
X148630000Y-77470000D01*
X148630000Y-77470000D02*
X149900000Y-78740000D01*
%TO.N,Net-(C2-Pad1)*%
X165100000Y-63500000D02*
X165100000Y-55880000D01*
X175260000Y-83820000D02*
X172720000Y-86360000D01*
X175260000Y-53340000D02*
X175260000Y-83820000D01*
X167640000Y-53340000D02*
X175260000Y-53340000D01*
X162560000Y-66040000D02*
X165100000Y-63500000D01*
X165100000Y-55880000D02*
X167640000Y-53340000D01*
X172720000Y-86360000D02*
X165100000Y-86360000D01*
X165100000Y-86360000D02*
X162560000Y-88900000D01*
%TO.N,Net-(C4-Pad1)*%
X142240000Y-67310000D02*
X139700000Y-69850000D01*
X139700000Y-69850000D02*
X139700000Y-77470000D01*
%TO.N,Net-(D1-A)*%
X170180000Y-73660000D02*
X165100000Y-73660000D01*
X162560000Y-68580000D02*
X162560000Y-71120000D01*
X170180000Y-83820000D02*
X171816000Y-82184000D01*
X171816000Y-82184000D02*
X171816000Y-75296000D01*
X165100000Y-73660000D02*
X162560000Y-71120000D01*
X165100000Y-83820000D02*
X170180000Y-83820000D01*
X171816000Y-75296000D02*
X170180000Y-73660000D01*
%TO.N,Net-(D1-K)*%
X156584000Y-82078238D02*
X159221762Y-82078238D01*
X165100000Y-76200000D02*
X170180000Y-76200000D01*
X159221762Y-82078238D02*
X165100000Y-76200000D01*
%TO.N,VCC*%
X132984000Y-83454000D02*
X132984000Y-73296000D01*
X134620000Y-85090000D02*
X132984000Y-83454000D01*
X132984000Y-73296000D02*
X135160000Y-71120000D01*
%TO.N,Net-(D4-A)*%
X149860000Y-62225000D02*
X151135000Y-63500000D01*
X149860000Y-58420000D02*
X149860000Y-62225000D01*
%TO.N,Net-(D7-K)*%
X139700000Y-50800000D02*
X139700000Y-55880000D01*
X139700000Y-50800000D02*
X142240000Y-53340000D01*
X139700000Y-55880000D02*
X142240000Y-58420000D01*
X142240000Y-53340000D02*
X148590000Y-53340000D01*
%TO.N,Net-(H3-Pad1)*%
X144780000Y-99060000D02*
X144780000Y-85090000D01*
%TD*%
%TA.AperFunction,Conductor*%
%TO.N,GND*%
G36*
X139245338Y-59575185D02*
G01*
X139265979Y-59591818D01*
X146214271Y-66540111D01*
X146275118Y-66584319D01*
X146335771Y-66628386D01*
X146358869Y-66645168D01*
X146426606Y-66679681D01*
X146495665Y-66714868D01*
X146495666Y-66714869D01*
X146507113Y-66720701D01*
X146518119Y-66726309D01*
X146688103Y-66781541D01*
X146786175Y-66797073D01*
X146864630Y-66809500D01*
X146864634Y-66809500D01*
X151590370Y-66809500D01*
X151691240Y-66793523D01*
X151766897Y-66781541D01*
X151907163Y-66735965D01*
X151936881Y-66726309D01*
X152096132Y-66645167D01*
X152240728Y-66540111D01*
X152367111Y-66413728D01*
X152425670Y-66355169D01*
X152425682Y-66355155D01*
X153844021Y-64936818D01*
X153905344Y-64903333D01*
X153931702Y-64900499D01*
X154624500Y-64900499D01*
X154691539Y-64920184D01*
X154737294Y-64972988D01*
X154748500Y-65024499D01*
X154748500Y-69654297D01*
X154739855Y-69683737D01*
X154733332Y-69713724D01*
X154729577Y-69718739D01*
X154728815Y-69721336D01*
X154712181Y-69741978D01*
X154670978Y-69783181D01*
X154609655Y-69816666D01*
X154583298Y-69819500D01*
X154339999Y-69819500D01*
X154339980Y-69819501D01*
X154237203Y-69830000D01*
X154237200Y-69830001D01*
X154070668Y-69885185D01*
X154070663Y-69885187D01*
X153921342Y-69977289D01*
X153797289Y-70101342D01*
X153705187Y-70250663D01*
X153705186Y-70250666D01*
X153650001Y-70417203D01*
X153650001Y-70417204D01*
X153650000Y-70417204D01*
X153639500Y-70519983D01*
X153639500Y-71720001D01*
X153639501Y-71720018D01*
X153650000Y-71822796D01*
X153650001Y-71822799D01*
X153705185Y-71989331D01*
X153705187Y-71989336D01*
X153740069Y-72045888D01*
X153797288Y-72138656D01*
X153921344Y-72262712D01*
X154070666Y-72354814D01*
X154237203Y-72409999D01*
X154339991Y-72420500D01*
X155540008Y-72420499D01*
X155642797Y-72409999D01*
X155809334Y-72354814D01*
X155958656Y-72262712D01*
X156082712Y-72138656D01*
X156174814Y-71989334D01*
X156198102Y-71919054D01*
X156202110Y-71911050D01*
X156220060Y-71891772D01*
X156235055Y-71870116D01*
X156243495Y-71866606D01*
X156249725Y-71859917D01*
X156275249Y-71853404D01*
X156299571Y-71843292D01*
X156315834Y-71843048D01*
X156317425Y-71842643D01*
X156318523Y-71843008D01*
X156322719Y-71842946D01*
X156360525Y-71845921D01*
X157040000Y-71166446D01*
X157040000Y-71172661D01*
X157067259Y-71274394D01*
X157119920Y-71365606D01*
X157194394Y-71440080D01*
X157285606Y-71492741D01*
X157387339Y-71520000D01*
X157393553Y-71520000D01*
X156714076Y-72199474D01*
X156758650Y-72231859D01*
X156940968Y-72324755D01*
X157135582Y-72387990D01*
X157337683Y-72420000D01*
X157542317Y-72420000D01*
X157744417Y-72387990D01*
X157939031Y-72324755D01*
X158121349Y-72231859D01*
X158165921Y-72199474D01*
X157486447Y-71520000D01*
X157492661Y-71520000D01*
X157594394Y-71492741D01*
X157685606Y-71440080D01*
X157760080Y-71365606D01*
X157812741Y-71274394D01*
X157840000Y-71172661D01*
X157840000Y-71166448D01*
X158519474Y-71845922D01*
X158519474Y-71845921D01*
X158551859Y-71801349D01*
X158644755Y-71619031D01*
X158707990Y-71424417D01*
X158740000Y-71222317D01*
X158740000Y-71017682D01*
X158707990Y-70815582D01*
X158644755Y-70620968D01*
X158551859Y-70438650D01*
X158519474Y-70394077D01*
X158519474Y-70394076D01*
X157840000Y-71073551D01*
X157840000Y-71067339D01*
X157812741Y-70965606D01*
X157760080Y-70874394D01*
X157685606Y-70799920D01*
X157594394Y-70747259D01*
X157492661Y-70720000D01*
X157486446Y-70720000D01*
X158165922Y-70040524D01*
X158165921Y-70040523D01*
X158121359Y-70008147D01*
X158121350Y-70008141D01*
X157939031Y-69915244D01*
X157744417Y-69852009D01*
X157542317Y-69820000D01*
X157337683Y-69820000D01*
X157162898Y-69847683D01*
X157093604Y-69838728D01*
X157040152Y-69793732D01*
X157019513Y-69726981D01*
X157019500Y-69725210D01*
X157019500Y-66424701D01*
X157039185Y-66357662D01*
X157091989Y-66311907D01*
X157161147Y-66301963D01*
X157224703Y-66330988D01*
X157231181Y-66337020D01*
X157673889Y-66779728D01*
X157800272Y-66906111D01*
X157889508Y-66970945D01*
X157944869Y-67011168D01*
X158027708Y-67053375D01*
X158104119Y-67092309D01*
X158145802Y-67105851D01*
X158145804Y-67105853D01*
X158145805Y-67105853D01*
X158177880Y-67116275D01*
X158274103Y-67147541D01*
X158349759Y-67159523D01*
X158450630Y-67175500D01*
X158450634Y-67175500D01*
X162085449Y-67175500D01*
X162087778Y-67175868D01*
X162088988Y-67175551D01*
X162123766Y-67181569D01*
X162156080Y-67192068D01*
X162213756Y-67231504D01*
X162240955Y-67295862D01*
X162229041Y-67364709D01*
X162181798Y-67416185D01*
X162156082Y-67427930D01*
X162091492Y-67448917D01*
X161920318Y-67536135D01*
X161831645Y-67600560D01*
X161764898Y-67649055D01*
X161764896Y-67649057D01*
X161764895Y-67649057D01*
X161629057Y-67784895D01*
X161629057Y-67784896D01*
X161629055Y-67784898D01*
X161580560Y-67851645D01*
X161516135Y-67940318D01*
X161428916Y-68111493D01*
X161369553Y-68294197D01*
X161339500Y-68483945D01*
X161339500Y-68676054D01*
X161369553Y-68865801D01*
X161418431Y-69016231D01*
X161424500Y-69054550D01*
X161424500Y-70645448D01*
X161418431Y-70683766D01*
X161369553Y-70834197D01*
X161362308Y-70879940D01*
X161339500Y-71023945D01*
X161339500Y-71216055D01*
X161348722Y-71274278D01*
X161369553Y-71405802D01*
X161428916Y-71588506D01*
X161499126Y-71726299D01*
X161516135Y-71759681D01*
X161629055Y-71915102D01*
X161764898Y-72050945D01*
X161920319Y-72163865D01*
X162061253Y-72235675D01*
X162092639Y-72258479D01*
X164360271Y-74526111D01*
X164360274Y-74526113D01*
X164417752Y-74567874D01*
X164417757Y-74567877D01*
X164421118Y-74570319D01*
X164504868Y-74631167D01*
X164576281Y-74667553D01*
X164581010Y-74670527D01*
X164600598Y-74692687D01*
X164622095Y-74712989D01*
X164623476Y-74718567D01*
X164627285Y-74722876D01*
X164631783Y-74752109D01*
X164638891Y-74780810D01*
X164637036Y-74786251D01*
X164637911Y-74791933D01*
X164625893Y-74818951D01*
X164616354Y-74846945D01*
X164611851Y-74850520D01*
X164609516Y-74855772D01*
X164584800Y-74872003D01*
X164561639Y-74890397D01*
X164554741Y-74891743D01*
X164551114Y-74894126D01*
X164542080Y-74894215D01*
X164515012Y-74899500D01*
X164500001Y-74899500D01*
X164499981Y-74899501D01*
X164397203Y-74910000D01*
X164397200Y-74910001D01*
X164230668Y-74965185D01*
X164230663Y-74965187D01*
X164081342Y-75057289D01*
X163957289Y-75181342D01*
X163865187Y-75330663D01*
X163865186Y-75330666D01*
X163810001Y-75497203D01*
X163810001Y-75497204D01*
X163810000Y-75497204D01*
X163799500Y-75599983D01*
X163799500Y-75843298D01*
X163779815Y-75910337D01*
X163763181Y-75930979D01*
X161265535Y-78428624D01*
X161204212Y-78462109D01*
X161134520Y-78457125D01*
X161078587Y-78415253D01*
X161059923Y-78379262D01*
X161039871Y-78317550D01*
X160961231Y-78163211D01*
X160859414Y-78023072D01*
X160736928Y-77900586D01*
X160596788Y-77798768D01*
X160442445Y-77720127D01*
X160277701Y-77666598D01*
X160277699Y-77666597D01*
X160277698Y-77666597D01*
X160146271Y-77645781D01*
X160106611Y-77639500D01*
X159933389Y-77639500D01*
X159893728Y-77645781D01*
X159762302Y-77666597D01*
X159597552Y-77720128D01*
X159443211Y-77798768D01*
X159363256Y-77856859D01*
X159303072Y-77900586D01*
X159303070Y-77900588D01*
X159303069Y-77900588D01*
X159180588Y-78023069D01*
X159180581Y-78023078D01*
X159120317Y-78106023D01*
X159064987Y-78148689D01*
X158995374Y-78154667D01*
X158933579Y-78122061D01*
X158919683Y-78106023D01*
X158859418Y-78023078D01*
X158859414Y-78023072D01*
X158736928Y-77900586D01*
X158596788Y-77798768D01*
X158442445Y-77720127D01*
X158277701Y-77666598D01*
X158277699Y-77666597D01*
X158277698Y-77666597D01*
X158146271Y-77645781D01*
X158106611Y-77639500D01*
X157933389Y-77639500D01*
X157893728Y-77645781D01*
X157762302Y-77666597D01*
X157597552Y-77720128D01*
X157443211Y-77798768D01*
X157363256Y-77856859D01*
X157303072Y-77900586D01*
X157303070Y-77900588D01*
X157303069Y-77900588D01*
X157180588Y-78023069D01*
X157180588Y-78023070D01*
X157180586Y-78023072D01*
X157143456Y-78074177D01*
X157078768Y-78163211D01*
X157000128Y-78317552D01*
X156946597Y-78482302D01*
X156919500Y-78653389D01*
X156919500Y-78826611D01*
X156946598Y-78997701D01*
X157000127Y-79162445D01*
X157078768Y-79316788D01*
X157180586Y-79456928D01*
X157303072Y-79579414D01*
X157443212Y-79681232D01*
X157597555Y-79759873D01*
X157762299Y-79813402D01*
X157933389Y-79840500D01*
X157933390Y-79840500D01*
X158106610Y-79840500D01*
X158106611Y-79840500D01*
X158277701Y-79813402D01*
X158442445Y-79759873D01*
X158596788Y-79681232D01*
X158736928Y-79579414D01*
X158859414Y-79456928D01*
X158919682Y-79373975D01*
X158975012Y-79331311D01*
X159044626Y-79325332D01*
X159106421Y-79357938D01*
X159120315Y-79373973D01*
X159180586Y-79456928D01*
X159303072Y-79579414D01*
X159443212Y-79681232D01*
X159508462Y-79714478D01*
X159597550Y-79759871D01*
X159597552Y-79759871D01*
X159597555Y-79759873D01*
X159659263Y-79779923D01*
X159716938Y-79819361D01*
X159744136Y-79883720D01*
X159732221Y-79952566D01*
X159708625Y-79985535D01*
X158787742Y-80906419D01*
X158726419Y-80939904D01*
X158700061Y-80942738D01*
X156494630Y-80942738D01*
X156318105Y-80970696D01*
X156189805Y-81012384D01*
X156189804Y-81012383D01*
X156148118Y-81025928D01*
X156103819Y-81048501D01*
X155988867Y-81107071D01*
X155844270Y-81212128D01*
X154593890Y-82462508D01*
X154488833Y-82607105D01*
X154407243Y-82767235D01*
X154406184Y-82770992D01*
X154352458Y-82936343D01*
X154352457Y-82936345D01*
X154329663Y-83080272D01*
X154329663Y-83080275D01*
X154324500Y-83112870D01*
X154324500Y-85714177D01*
X154321949Y-85722862D01*
X154323238Y-85731824D01*
X154310984Y-85770473D01*
X154300484Y-85791080D01*
X154252510Y-85841875D01*
X154184688Y-85858670D01*
X154118554Y-85836132D01*
X154079516Y-85791080D01*
X154069016Y-85770473D01*
X154068312Y-85767541D01*
X154066706Y-85765688D01*
X154064972Y-85753630D01*
X154055500Y-85714177D01*
X154055500Y-81910629D01*
X154039932Y-81812343D01*
X154039932Y-81812338D01*
X154030055Y-81749978D01*
X154027541Y-81734103D01*
X153973815Y-81568754D01*
X153972754Y-81564993D01*
X153891166Y-81404867D01*
X153880825Y-81390634D01*
X153786111Y-81260272D01*
X153659728Y-81133889D01*
X153571819Y-81045980D01*
X153538334Y-80984657D01*
X153535500Y-80958299D01*
X153535500Y-79405821D01*
X153549016Y-79349525D01*
X153605217Y-79239225D01*
X153605217Y-79239224D01*
X153605220Y-79239219D01*
X153668477Y-79044534D01*
X153700500Y-78842352D01*
X153700500Y-78637648D01*
X153668477Y-78435466D01*
X153661909Y-78415253D01*
X153605218Y-78240776D01*
X153549015Y-78130472D01*
X153535500Y-78074177D01*
X153535500Y-77519260D01*
X153522867Y-77439502D01*
X153522867Y-77439500D01*
X153507542Y-77342738D01*
X153507541Y-77342736D01*
X153507541Y-77342733D01*
X153463546Y-77207334D01*
X153452309Y-77172749D01*
X153371167Y-77013498D01*
X153266111Y-76868902D01*
X153139728Y-76742519D01*
X150461098Y-74063889D01*
X150413766Y-74029500D01*
X150316502Y-73958833D01*
X150157251Y-73877691D01*
X150157245Y-73877688D01*
X150115564Y-73864146D01*
X150048823Y-73842460D01*
X149987267Y-73822459D01*
X149987265Y-73822458D01*
X149987264Y-73822458D01*
X149810740Y-73794500D01*
X149810736Y-73794500D01*
X142905822Y-73794500D01*
X142849527Y-73780985D01*
X142739223Y-73724781D01*
X142544534Y-73661522D01*
X142369995Y-73633878D01*
X142342352Y-73629500D01*
X142137648Y-73629500D01*
X142113329Y-73633351D01*
X141935465Y-73661522D01*
X141740776Y-73724781D01*
X141558386Y-73817715D01*
X141392786Y-73938028D01*
X141248028Y-74082786D01*
X141127715Y-74248386D01*
X141069985Y-74361687D01*
X141022010Y-74412483D01*
X140954189Y-74429278D01*
X140888054Y-74406740D01*
X140844603Y-74352025D01*
X140835500Y-74305392D01*
X140835500Y-74021701D01*
X140855185Y-73954662D01*
X140871819Y-73934020D01*
X142798580Y-72007260D01*
X142946116Y-71859724D01*
X143106111Y-71699729D01*
X143156562Y-71630289D01*
X143211167Y-71555132D01*
X143292309Y-71395881D01*
X143331820Y-71274277D01*
X143371257Y-71216602D01*
X143435615Y-71189403D01*
X143504462Y-71201317D01*
X143555938Y-71248561D01*
X143572224Y-71293196D01*
X143590041Y-71405685D01*
X143649383Y-71588321D01*
X143736561Y-71759415D01*
X143757798Y-71788646D01*
X144380000Y-71166445D01*
X144380000Y-71172661D01*
X144407259Y-71274394D01*
X144459920Y-71365606D01*
X144534394Y-71440080D01*
X144625606Y-71492741D01*
X144727339Y-71520000D01*
X144733554Y-71520000D01*
X144111351Y-72142200D01*
X144111352Y-72142201D01*
X144140577Y-72163434D01*
X144311678Y-72250616D01*
X144494315Y-72309959D01*
X144683985Y-72340000D01*
X144876015Y-72340000D01*
X145065684Y-72309959D01*
X145248321Y-72250616D01*
X145419419Y-72163436D01*
X145448646Y-72142201D01*
X145448646Y-72142200D01*
X144826447Y-71520000D01*
X144832661Y-71520000D01*
X144934394Y-71492741D01*
X145025606Y-71440080D01*
X145100080Y-71365606D01*
X145152741Y-71274394D01*
X145180000Y-71172661D01*
X145180000Y-71166446D01*
X145802200Y-71788646D01*
X145802201Y-71788646D01*
X145823436Y-71759419D01*
X145910616Y-71588319D01*
X145931805Y-71523108D01*
X145971242Y-71465433D01*
X146035600Y-71438234D01*
X146104447Y-71450148D01*
X146155923Y-71497392D01*
X146167667Y-71523108D01*
X146188916Y-71588505D01*
X146188917Y-71588506D01*
X146188918Y-71588509D01*
X146276135Y-71759681D01*
X146389055Y-71915102D01*
X146524898Y-72050945D01*
X146680319Y-72163865D01*
X146796089Y-72222853D01*
X146851493Y-72251083D01*
X146942845Y-72280764D01*
X147034199Y-72310447D01*
X147223945Y-72340500D01*
X147223946Y-72340500D01*
X147416054Y-72340500D01*
X147416055Y-72340500D01*
X147605801Y-72310447D01*
X147788509Y-72251082D01*
X147959681Y-72163865D01*
X148115102Y-72050945D01*
X148250945Y-71915102D01*
X148363865Y-71759681D01*
X148451082Y-71588509D01*
X148461927Y-71555132D01*
X148472069Y-71523919D01*
X148511506Y-71466243D01*
X148575864Y-71439044D01*
X148644711Y-71450958D01*
X148696187Y-71498202D01*
X148707931Y-71523919D01*
X148728915Y-71588504D01*
X148799126Y-71726299D01*
X148816135Y-71759681D01*
X148929055Y-71915102D01*
X149064898Y-72050945D01*
X149220319Y-72163865D01*
X149336089Y-72222853D01*
X149391493Y-72251083D01*
X149482845Y-72280764D01*
X149574199Y-72310447D01*
X149763945Y-72340500D01*
X149763946Y-72340500D01*
X149956054Y-72340500D01*
X149956055Y-72340500D01*
X150145801Y-72310447D01*
X150328509Y-72251082D01*
X150499681Y-72163865D01*
X150655102Y-72050945D01*
X150790945Y-71915102D01*
X150903865Y-71759681D01*
X150991082Y-71588509D01*
X151050447Y-71405801D01*
X151080500Y-71216055D01*
X151080500Y-71023945D01*
X151050447Y-70834199D01*
X151012332Y-70716891D01*
X150991083Y-70651493D01*
X150975530Y-70620968D01*
X150903865Y-70480319D01*
X150790945Y-70324898D01*
X150655102Y-70189055D01*
X150499681Y-70076135D01*
X150483109Y-70067691D01*
X150328506Y-69988916D01*
X150145802Y-69929553D01*
X150050928Y-69914526D01*
X149956055Y-69899500D01*
X149763945Y-69899500D01*
X149700696Y-69909517D01*
X149574197Y-69929553D01*
X149391493Y-69988916D01*
X149220318Y-70076135D01*
X149131645Y-70140560D01*
X149064898Y-70189055D01*
X149064896Y-70189057D01*
X149064895Y-70189057D01*
X148929057Y-70324895D01*
X148929057Y-70324896D01*
X148929055Y-70324898D01*
X148888824Y-70380271D01*
X148816135Y-70480318D01*
X148728916Y-70651493D01*
X148707931Y-70716081D01*
X148668494Y-70773756D01*
X148604135Y-70800955D01*
X148535289Y-70789041D01*
X148483813Y-70741797D01*
X148472069Y-70716081D01*
X148451083Y-70651493D01*
X148435530Y-70620968D01*
X148363865Y-70480319D01*
X148250945Y-70324898D01*
X148115102Y-70189055D01*
X147959681Y-70076135D01*
X147943109Y-70067691D01*
X147788506Y-69988916D01*
X147605802Y-69929553D01*
X147510928Y-69914526D01*
X147416055Y-69899500D01*
X147223945Y-69899500D01*
X147160696Y-69909517D01*
X147034197Y-69929553D01*
X146851493Y-69988916D01*
X146680318Y-70076135D01*
X146591645Y-70140560D01*
X146524898Y-70189055D01*
X146524896Y-70189057D01*
X146524895Y-70189057D01*
X146389057Y-70324895D01*
X146389057Y-70324896D01*
X146389055Y-70324898D01*
X146348824Y-70380271D01*
X146276135Y-70480318D01*
X146188917Y-70651492D01*
X146167667Y-70716892D01*
X146128229Y-70774567D01*
X146063870Y-70801765D01*
X145995024Y-70789850D01*
X145943548Y-70742605D01*
X145931805Y-70716891D01*
X145910616Y-70651680D01*
X145823434Y-70480577D01*
X145802201Y-70451352D01*
X145802200Y-70451351D01*
X145180000Y-71073552D01*
X145180000Y-71067339D01*
X145152741Y-70965606D01*
X145100080Y-70874394D01*
X145025606Y-70799920D01*
X144934394Y-70747259D01*
X144832661Y-70720000D01*
X144826447Y-70720000D01*
X145448646Y-70097798D01*
X145419415Y-70076561D01*
X145248321Y-69989383D01*
X145065684Y-69930040D01*
X144876015Y-69900000D01*
X144683985Y-69900000D01*
X144494315Y-69930040D01*
X144311678Y-69989383D01*
X144140578Y-70076564D01*
X144111352Y-70097798D01*
X144111351Y-70097798D01*
X144733554Y-70720000D01*
X144727339Y-70720000D01*
X144625606Y-70747259D01*
X144534394Y-70799920D01*
X144459920Y-70874394D01*
X144407259Y-70965606D01*
X144380000Y-71067339D01*
X144380000Y-71073553D01*
X143757798Y-70451351D01*
X143757798Y-70451352D01*
X143736564Y-70480578D01*
X143649383Y-70651678D01*
X143617431Y-70750018D01*
X143577993Y-70807693D01*
X143513634Y-70834891D01*
X143444788Y-70822976D01*
X143393312Y-70775732D01*
X143375500Y-70711699D01*
X143375500Y-67975821D01*
X143389016Y-67919525D01*
X143445217Y-67809225D01*
X143445217Y-67809224D01*
X143445220Y-67809219D01*
X143508477Y-67614534D01*
X143540500Y-67412352D01*
X143540500Y-67207648D01*
X143539893Y-67203813D01*
X143508477Y-67005465D01*
X143453123Y-66835104D01*
X143445220Y-66810781D01*
X143445218Y-66810778D01*
X143445218Y-66810776D01*
X143378421Y-66679681D01*
X143352287Y-66628390D01*
X143288151Y-66540113D01*
X143231971Y-66462786D01*
X143087213Y-66318028D01*
X142921613Y-66197715D01*
X142921612Y-66197714D01*
X142921610Y-66197713D01*
X142864653Y-66168691D01*
X142739223Y-66104781D01*
X142544534Y-66041522D01*
X142369995Y-66013878D01*
X142342352Y-66009500D01*
X142137648Y-66009500D01*
X142113329Y-66013351D01*
X141935465Y-66041522D01*
X141740776Y-66104781D01*
X141630473Y-66160985D01*
X141574178Y-66174500D01*
X138831701Y-66174500D01*
X138764662Y-66154815D01*
X138744020Y-66138181D01*
X138331819Y-65725980D01*
X138298334Y-65664657D01*
X138295500Y-65638299D01*
X138295500Y-64474942D01*
X138315185Y-64407903D01*
X138367989Y-64362148D01*
X138437147Y-64352204D01*
X138492385Y-64374624D01*
X138583471Y-64440801D01*
X138737742Y-64519408D01*
X138902415Y-64572914D01*
X139073429Y-64600000D01*
X139246571Y-64600000D01*
X139417584Y-64572914D01*
X139582257Y-64519408D01*
X139736525Y-64440803D01*
X139742736Y-64436289D01*
X139101300Y-63794854D01*
X139120504Y-63800000D01*
X139199496Y-63800000D01*
X139275796Y-63779556D01*
X139344205Y-63740060D01*
X139400060Y-63684205D01*
X139439556Y-63615796D01*
X139460000Y-63539496D01*
X139460000Y-63499999D01*
X139513553Y-63499999D01*
X139513553Y-63500001D01*
X140096289Y-64082737D01*
X140096289Y-64082736D01*
X140100803Y-64076525D01*
X140179408Y-63922257D01*
X140232914Y-63757584D01*
X140260000Y-63586571D01*
X140260000Y-63413428D01*
X140232914Y-63242415D01*
X140179408Y-63077742D01*
X140100801Y-62923471D01*
X140096290Y-62917262D01*
X140096289Y-62917261D01*
X139513553Y-63499999D01*
X139460000Y-63499999D01*
X139460000Y-63460504D01*
X139439556Y-63384204D01*
X139400060Y-63315795D01*
X139344205Y-63259940D01*
X139275796Y-63220444D01*
X139199496Y-63200000D01*
X139120504Y-63200000D01*
X139044204Y-63220444D01*
X138975795Y-63259940D01*
X138919940Y-63315795D01*
X138880444Y-63384204D01*
X138860000Y-63460504D01*
X138860000Y-63539496D01*
X138865145Y-63558699D01*
X138842765Y-63536319D01*
X138223708Y-62917260D01*
X138213924Y-62918031D01*
X138145546Y-62903670D01*
X138103872Y-62867300D01*
X138027867Y-62762689D01*
X138026111Y-62760272D01*
X137899728Y-62633889D01*
X137803133Y-62563708D01*
X138577261Y-62563708D01*
X138577261Y-62563709D01*
X139160000Y-63146446D01*
X139160001Y-63146446D01*
X139742737Y-62563709D01*
X139736525Y-62559196D01*
X139582259Y-62480592D01*
X139417584Y-62427085D01*
X139246571Y-62400000D01*
X139073429Y-62400000D01*
X138902415Y-62427085D01*
X138737740Y-62480592D01*
X138583480Y-62559193D01*
X138583463Y-62559203D01*
X138577261Y-62563708D01*
X137803133Y-62563708D01*
X137755132Y-62528833D01*
X137595881Y-62447691D01*
X137595878Y-62447689D01*
X137425899Y-62392460D01*
X137308209Y-62373820D01*
X137249366Y-62364500D01*
X137070634Y-62364500D01*
X137011790Y-62373820D01*
X136894101Y-62392460D01*
X136894098Y-62392460D01*
X136724121Y-62447689D01*
X136724118Y-62447691D01*
X136564867Y-62528833D01*
X136420270Y-62633890D01*
X136293890Y-62760270D01*
X136188833Y-62904867D01*
X136107691Y-63064118D01*
X136107689Y-63064121D01*
X136052460Y-63234098D01*
X136052460Y-63234101D01*
X136024500Y-63410634D01*
X136024500Y-66249370D01*
X136052458Y-66425894D01*
X136079302Y-66508509D01*
X136107692Y-66595885D01*
X136168318Y-66714869D01*
X136188833Y-66755132D01*
X136293889Y-66899728D01*
X137443889Y-68049728D01*
X137570272Y-68176111D01*
X137714868Y-68281167D01*
X137755689Y-68301966D01*
X137874115Y-68362308D01*
X137874117Y-68362308D01*
X137874120Y-68362310D01*
X138044103Y-68417541D01*
X138144817Y-68433492D01*
X138220630Y-68445500D01*
X138220634Y-68445500D01*
X139199299Y-68445500D01*
X139266338Y-68465185D01*
X139312093Y-68517989D01*
X139322037Y-68587147D01*
X139293012Y-68650703D01*
X139286980Y-68657181D01*
X138833891Y-69110269D01*
X138833890Y-69110270D01*
X138728831Y-69254869D01*
X138647690Y-69414119D01*
X138647688Y-69414123D01*
X138637367Y-69445892D01*
X138637367Y-69445893D01*
X138592458Y-69584106D01*
X138592457Y-69584107D01*
X138572348Y-69711082D01*
X138572348Y-69711084D01*
X138564500Y-69760630D01*
X138564500Y-72240500D01*
X138544815Y-72307539D01*
X138492011Y-72353294D01*
X138440500Y-72364500D01*
X137656987Y-72364500D01*
X137589948Y-72344815D01*
X137544193Y-72292011D01*
X137534249Y-72222853D01*
X137563274Y-72159297D01*
X137600692Y-72130015D01*
X137736525Y-72060803D01*
X137742736Y-72056289D01*
X137742737Y-72056289D01*
X137160001Y-71473553D01*
X137160000Y-71473553D01*
X136577261Y-72056289D01*
X136577262Y-72056290D01*
X136583471Y-72060801D01*
X136737742Y-72139408D01*
X136902411Y-72192912D01*
X136907119Y-72193658D01*
X136970257Y-72223581D01*
X137007194Y-72282889D01*
X137006203Y-72352752D01*
X136967598Y-72410988D01*
X136926054Y-72434063D01*
X136884124Y-72447687D01*
X136884122Y-72447688D01*
X136806011Y-72487486D01*
X136806012Y-72487487D01*
X136724869Y-72528831D01*
X136616330Y-72607691D01*
X136580272Y-72633888D01*
X136580269Y-72633891D01*
X134331181Y-74882980D01*
X134269858Y-74916465D01*
X134200166Y-74911481D01*
X134144233Y-74869609D01*
X134119816Y-74804145D01*
X134119500Y-74795299D01*
X134119500Y-73817701D01*
X134139185Y-73750662D01*
X134155819Y-73730020D01*
X134256339Y-73629500D01*
X136026111Y-71859728D01*
X136103872Y-71752698D01*
X136159202Y-71710033D01*
X136213922Y-71701966D01*
X136223710Y-71702736D01*
X136806446Y-71120001D01*
X136806446Y-71119999D01*
X136766951Y-71080504D01*
X136860000Y-71080504D01*
X136860000Y-71159496D01*
X136880444Y-71235796D01*
X136919940Y-71304205D01*
X136975795Y-71360060D01*
X137044204Y-71399556D01*
X137120504Y-71420000D01*
X137199496Y-71420000D01*
X137275796Y-71399556D01*
X137344205Y-71360060D01*
X137400060Y-71304205D01*
X137439556Y-71235796D01*
X137460000Y-71159496D01*
X137460000Y-71119999D01*
X137513553Y-71119999D01*
X137513553Y-71120000D01*
X138096289Y-71702736D01*
X138100803Y-71696525D01*
X138179408Y-71542257D01*
X138232914Y-71377584D01*
X138260000Y-71206571D01*
X138260000Y-71033428D01*
X138232914Y-70862415D01*
X138179408Y-70697742D01*
X138100801Y-70543471D01*
X138096290Y-70537262D01*
X138096289Y-70537261D01*
X137513553Y-71119999D01*
X137460000Y-71119999D01*
X137460000Y-71080504D01*
X137439556Y-71004204D01*
X137400060Y-70935795D01*
X137344205Y-70879940D01*
X137275796Y-70840444D01*
X137199496Y-70820000D01*
X137120504Y-70820000D01*
X137044204Y-70840444D01*
X136975795Y-70879940D01*
X136919940Y-70935795D01*
X136880444Y-71004204D01*
X136860000Y-71080504D01*
X136766951Y-71080504D01*
X136223708Y-70537260D01*
X136213924Y-70538031D01*
X136207651Y-70536713D01*
X136201462Y-70538384D01*
X136173872Y-70529619D01*
X136145546Y-70523670D01*
X136139452Y-70518684D01*
X136134871Y-70517229D01*
X136119308Y-70502204D01*
X136108713Y-70493535D01*
X136106191Y-70490492D01*
X136026111Y-70380271D01*
X135899729Y-70253889D01*
X135803133Y-70183708D01*
X136577261Y-70183708D01*
X136577261Y-70183709D01*
X137160000Y-70766446D01*
X137160001Y-70766446D01*
X137742737Y-70183709D01*
X137736525Y-70179196D01*
X137582259Y-70100592D01*
X137417584Y-70047085D01*
X137246571Y-70020000D01*
X137073429Y-70020000D01*
X136902415Y-70047085D01*
X136737740Y-70100592D01*
X136583480Y-70179193D01*
X136583463Y-70179203D01*
X136577261Y-70183708D01*
X135803133Y-70183708D01*
X135755132Y-70148833D01*
X135595885Y-70067692D01*
X135532463Y-70047085D01*
X135425897Y-70012459D01*
X135425891Y-70012458D01*
X135249370Y-69984500D01*
X135249366Y-69984500D01*
X135070634Y-69984500D01*
X135070630Y-69984500D01*
X134894108Y-70012458D01*
X134894106Y-70012458D01*
X134894103Y-70012459D01*
X134809111Y-70040075D01*
X134724115Y-70067692D01*
X134564868Y-70148833D01*
X134516866Y-70183709D01*
X134420272Y-70253889D01*
X134420270Y-70253891D01*
X134420269Y-70253891D01*
X132860181Y-71813980D01*
X132798858Y-71847465D01*
X132729166Y-71842481D01*
X132673233Y-71800609D01*
X132648816Y-71735145D01*
X132648500Y-71726299D01*
X132648500Y-59679500D01*
X132668185Y-59612461D01*
X132720989Y-59566706D01*
X132772500Y-59555500D01*
X139178299Y-59555500D01*
X139245338Y-59575185D01*
G37*
%TD.AperFunction*%
%TA.AperFunction,Conductor*%
G36*
X174067539Y-54495185D02*
G01*
X174113294Y-54547989D01*
X174124500Y-54599500D01*
X174124500Y-60336492D01*
X174104815Y-60403531D01*
X174052011Y-60449286D01*
X173982853Y-60459230D01*
X173919297Y-60430205D01*
X173890015Y-60392787D01*
X173831859Y-60278650D01*
X173799474Y-60234077D01*
X173799474Y-60234076D01*
X173120000Y-60913551D01*
X173120000Y-60907339D01*
X173092741Y-60805606D01*
X173040080Y-60714394D01*
X172965606Y-60639920D01*
X172874394Y-60587259D01*
X172772661Y-60560000D01*
X172766446Y-60560000D01*
X173445922Y-59880524D01*
X173445921Y-59880523D01*
X173401359Y-59848147D01*
X173401350Y-59848141D01*
X173219031Y-59755244D01*
X173024417Y-59692009D01*
X172822317Y-59660000D01*
X172617683Y-59660000D01*
X172415582Y-59692009D01*
X172220968Y-59755244D01*
X172038644Y-59848143D01*
X171994077Y-59880523D01*
X171994077Y-59880524D01*
X172673554Y-60560000D01*
X172667339Y-60560000D01*
X172565606Y-60587259D01*
X172474394Y-60639920D01*
X172399920Y-60714394D01*
X172347259Y-60805606D01*
X172320000Y-60907339D01*
X172320000Y-60913553D01*
X171640524Y-60234077D01*
X171602719Y-60237053D01*
X171534341Y-60222689D01*
X171484584Y-60173638D01*
X171482110Y-60168949D01*
X171478101Y-60160942D01*
X171454814Y-60090666D01*
X171362712Y-59941344D01*
X171238656Y-59817288D01*
X171089334Y-59725186D01*
X170922797Y-59670001D01*
X170922795Y-59670000D01*
X170820010Y-59659500D01*
X169619998Y-59659500D01*
X169619981Y-59659501D01*
X169517203Y-59670000D01*
X169517200Y-59670001D01*
X169350668Y-59725185D01*
X169350663Y-59725187D01*
X169201342Y-59817289D01*
X169077289Y-59941342D01*
X168985187Y-60090663D01*
X168985186Y-60090666D01*
X168930001Y-60257203D01*
X168930001Y-60257204D01*
X168930000Y-60257204D01*
X168919500Y-60359983D01*
X168919500Y-61560001D01*
X168919501Y-61560018D01*
X168930000Y-61662796D01*
X168930001Y-61662799D01*
X168960060Y-61753510D01*
X168985186Y-61829334D01*
X169077288Y-61978656D01*
X169201344Y-62102712D01*
X169350666Y-62194814D01*
X169517203Y-62249999D01*
X169619991Y-62260500D01*
X170820008Y-62260499D01*
X170922797Y-62249999D01*
X171089334Y-62194814D01*
X171238656Y-62102712D01*
X171362712Y-61978656D01*
X171454814Y-61829334D01*
X171478102Y-61759054D01*
X171482110Y-61751050D01*
X171500060Y-61731772D01*
X171515055Y-61710116D01*
X171523495Y-61706606D01*
X171529725Y-61699917D01*
X171555249Y-61693404D01*
X171579571Y-61683292D01*
X171595834Y-61683048D01*
X171597425Y-61682643D01*
X171598523Y-61683008D01*
X171602719Y-61682946D01*
X171640525Y-61685921D01*
X172320000Y-61006446D01*
X172320000Y-61012661D01*
X172347259Y-61114394D01*
X172399920Y-61205606D01*
X172474394Y-61280080D01*
X172565606Y-61332741D01*
X172667339Y-61360000D01*
X172673553Y-61360000D01*
X171994076Y-62039474D01*
X172038650Y-62071859D01*
X172220968Y-62164755D01*
X172415582Y-62227990D01*
X172617683Y-62260000D01*
X172822317Y-62260000D01*
X173024417Y-62227990D01*
X173219031Y-62164755D01*
X173401349Y-62071859D01*
X173445921Y-62039474D01*
X172766447Y-61360000D01*
X172772661Y-61360000D01*
X172874394Y-61332741D01*
X172965606Y-61280080D01*
X173040080Y-61205606D01*
X173092741Y-61114394D01*
X173120000Y-61012661D01*
X173120000Y-61006447D01*
X173799474Y-61685921D01*
X173831861Y-61641347D01*
X173831861Y-61641346D01*
X173890015Y-61527213D01*
X173937989Y-61476416D01*
X174005810Y-61459621D01*
X174071945Y-61482158D01*
X174115397Y-61536873D01*
X174124500Y-61583507D01*
X174124500Y-83298298D01*
X174104815Y-83365337D01*
X174088181Y-83385979D01*
X172285980Y-85188181D01*
X172224657Y-85221666D01*
X172198299Y-85224500D01*
X171211468Y-85224500D01*
X171144429Y-85204815D01*
X171098674Y-85152011D01*
X171088730Y-85082853D01*
X171117755Y-85019297D01*
X171146369Y-84994962D01*
X171198656Y-84962712D01*
X171322712Y-84838656D01*
X171414814Y-84689334D01*
X171469999Y-84522797D01*
X171480500Y-84420009D01*
X171480499Y-84176700D01*
X171500183Y-84109661D01*
X171516813Y-84089024D01*
X172682111Y-82923729D01*
X172758952Y-82817966D01*
X172787167Y-82779132D01*
X172868309Y-82619881D01*
X172900210Y-82521701D01*
X172923539Y-82449901D01*
X172923539Y-82449900D01*
X172923540Y-82449897D01*
X172951500Y-82273366D01*
X172951500Y-75206634D01*
X172923540Y-75030103D01*
X172923539Y-75030099D01*
X172923539Y-75030098D01*
X172868310Y-74860121D01*
X172868308Y-74860118D01*
X172861597Y-74846945D01*
X172787167Y-74700868D01*
X172726319Y-74617118D01*
X172682111Y-74556271D01*
X170919728Y-72793889D01*
X170775132Y-72688833D01*
X170615881Y-72607691D01*
X170615880Y-72607690D01*
X170615879Y-72607690D01*
X170615875Y-72607688D01*
X170574194Y-72594146D01*
X170574193Y-72594146D01*
X170445897Y-72552459D01*
X170445896Y-72552458D01*
X170442890Y-72551482D01*
X170385215Y-72512044D01*
X170358017Y-72447685D01*
X170369932Y-72378839D01*
X170371617Y-72377003D01*
X170417176Y-72327363D01*
X170461818Y-72311077D01*
X170465801Y-72310447D01*
X170648509Y-72251082D01*
X170819681Y-72163865D01*
X170975102Y-72050945D01*
X171110945Y-71915102D01*
X171223865Y-71759681D01*
X171311082Y-71588509D01*
X171370447Y-71405801D01*
X171400500Y-71216055D01*
X171400500Y-71023945D01*
X171370447Y-70834199D01*
X171332332Y-70716891D01*
X171311083Y-70651493D01*
X171295530Y-70620968D01*
X171223865Y-70480319D01*
X171110945Y-70324898D01*
X170975102Y-70189055D01*
X170819681Y-70076135D01*
X170803109Y-70067691D01*
X170648504Y-69988915D01*
X170583919Y-69967931D01*
X170526243Y-69928494D01*
X170499044Y-69864136D01*
X170510958Y-69795289D01*
X170558202Y-69743813D01*
X170583919Y-69732069D01*
X170648504Y-69711084D01*
X170648506Y-69711082D01*
X170648509Y-69711082D01*
X170819681Y-69623865D01*
X170975102Y-69510945D01*
X171110945Y-69375102D01*
X171223865Y-69219681D01*
X171311082Y-69048509D01*
X171370447Y-68865801D01*
X171400500Y-68676055D01*
X171400500Y-68483945D01*
X171370447Y-68294199D01*
X171311082Y-68111491D01*
X171223865Y-67940319D01*
X171110945Y-67784898D01*
X170975102Y-67649055D01*
X170819681Y-67536135D01*
X170648504Y-67448915D01*
X170583919Y-67427931D01*
X170526243Y-67388494D01*
X170499044Y-67324136D01*
X170510958Y-67255289D01*
X170558202Y-67203813D01*
X170583919Y-67192069D01*
X170648504Y-67171084D01*
X170648506Y-67171082D01*
X170648509Y-67171082D01*
X170819681Y-67083865D01*
X170975102Y-66970945D01*
X171110945Y-66835102D01*
X171223865Y-66679681D01*
X171311082Y-66508509D01*
X171370447Y-66325801D01*
X171400500Y-66136055D01*
X171400500Y-65943945D01*
X171370447Y-65754199D01*
X171311082Y-65571491D01*
X171223865Y-65400319D01*
X171110945Y-65244898D01*
X170975102Y-65109055D01*
X170819681Y-64996135D01*
X170670620Y-64920184D01*
X170648506Y-64908916D01*
X170465802Y-64849553D01*
X170355046Y-64832011D01*
X170276055Y-64819500D01*
X170083945Y-64819500D01*
X170020696Y-64829517D01*
X169894197Y-64849553D01*
X169711493Y-64908916D01*
X169540318Y-64996135D01*
X169501279Y-65024499D01*
X169384898Y-65109055D01*
X169384896Y-65109057D01*
X169384895Y-65109057D01*
X169249057Y-65244895D01*
X169249057Y-65244896D01*
X169249055Y-65244898D01*
X169200560Y-65311645D01*
X169136135Y-65400318D01*
X169048916Y-65571493D01*
X168989553Y-65754197D01*
X168959500Y-65943945D01*
X168959500Y-66136054D01*
X168989553Y-66325802D01*
X169048916Y-66508506D01*
X169109999Y-66628386D01*
X169136135Y-66679681D01*
X169249055Y-66835102D01*
X169384898Y-66970945D01*
X169540319Y-67083865D01*
X169711491Y-67171082D01*
X169711493Y-67171083D01*
X169776081Y-67192069D01*
X169833756Y-67231506D01*
X169860955Y-67295865D01*
X169849041Y-67364711D01*
X169801797Y-67416187D01*
X169776081Y-67427931D01*
X169711493Y-67448916D01*
X169540318Y-67536135D01*
X169451645Y-67600560D01*
X169384898Y-67649055D01*
X169384896Y-67649057D01*
X169384895Y-67649057D01*
X169249057Y-67784895D01*
X169249057Y-67784896D01*
X169249055Y-67784898D01*
X169200560Y-67851645D01*
X169136135Y-67940318D01*
X169048916Y-68111493D01*
X168989553Y-68294197D01*
X168959500Y-68483945D01*
X168959500Y-68676054D01*
X168989553Y-68865802D01*
X169048916Y-69048506D01*
X169048918Y-69048509D01*
X169136135Y-69219681D01*
X169249055Y-69375102D01*
X169384898Y-69510945D01*
X169540319Y-69623865D01*
X169600045Y-69654297D01*
X169711493Y-69711083D01*
X169776081Y-69732069D01*
X169833756Y-69771506D01*
X169860955Y-69835865D01*
X169849041Y-69904711D01*
X169801797Y-69956187D01*
X169776081Y-69967931D01*
X169711493Y-69988916D01*
X169540318Y-70076135D01*
X169451645Y-70140560D01*
X169384898Y-70189055D01*
X169384896Y-70189057D01*
X169384895Y-70189057D01*
X169249057Y-70324895D01*
X169249057Y-70324896D01*
X169249055Y-70324898D01*
X169208824Y-70380271D01*
X169136135Y-70480318D01*
X169048916Y-70651493D01*
X168989553Y-70834197D01*
X168982308Y-70879940D01*
X168959500Y-71023945D01*
X168959500Y-71216055D01*
X168968722Y-71274278D01*
X168989553Y-71405802D01*
X169048916Y-71588506D01*
X169119126Y-71726299D01*
X169136135Y-71759681D01*
X169249055Y-71915102D01*
X169384898Y-72050945D01*
X169540319Y-72163865D01*
X169656089Y-72222853D01*
X169711493Y-72251083D01*
X169808397Y-72282569D01*
X169866072Y-72322006D01*
X169893271Y-72386365D01*
X169881357Y-72455211D01*
X169834113Y-72506687D01*
X169770079Y-72524500D01*
X165621702Y-72524500D01*
X165554663Y-72504815D01*
X165534021Y-72488181D01*
X163731819Y-70685979D01*
X163698334Y-70624656D01*
X163695500Y-70598298D01*
X163695500Y-69054550D01*
X163701569Y-69016231D01*
X163750447Y-68865801D01*
X163780500Y-68676055D01*
X163780500Y-68483945D01*
X163750447Y-68294199D01*
X163691082Y-68111491D01*
X163603865Y-67940319D01*
X163490945Y-67784898D01*
X163355102Y-67649055D01*
X163199681Y-67536135D01*
X163028504Y-67448915D01*
X162963919Y-67427931D01*
X162906243Y-67388494D01*
X162879044Y-67324136D01*
X162890958Y-67255289D01*
X162938202Y-67203813D01*
X162963919Y-67192069D01*
X163028504Y-67171084D01*
X163028506Y-67171082D01*
X163028509Y-67171082D01*
X163199681Y-67083865D01*
X163355102Y-66970945D01*
X163490945Y-66835102D01*
X163603865Y-66679681D01*
X163675677Y-66538741D01*
X163698476Y-66507362D01*
X165966111Y-64239729D01*
X166051797Y-64121790D01*
X166051799Y-64121790D01*
X166071164Y-64095136D01*
X166071163Y-64095136D01*
X166071167Y-64095132D01*
X166152309Y-63935881D01*
X166163967Y-63900000D01*
X166207539Y-63765901D01*
X166207539Y-63765900D01*
X166207540Y-63765897D01*
X166235500Y-63589366D01*
X166235500Y-56401701D01*
X166255185Y-56334662D01*
X166271819Y-56314020D01*
X168074021Y-54511819D01*
X168135344Y-54478334D01*
X168161702Y-54475500D01*
X174000500Y-54475500D01*
X174067539Y-54495185D01*
G37*
%TD.AperFunction*%
%TA.AperFunction,Conductor*%
G36*
X159620000Y-63552661D02*
G01*
X159647259Y-63654394D01*
X159699920Y-63745606D01*
X159774394Y-63820080D01*
X159865606Y-63872741D01*
X159967339Y-63900000D01*
X159973553Y-63900000D01*
X159294076Y-64579474D01*
X159338650Y-64611859D01*
X159452787Y-64670015D01*
X159503583Y-64717990D01*
X159520378Y-64785810D01*
X159497841Y-64851945D01*
X159443126Y-64895397D01*
X159396492Y-64904500D01*
X159061701Y-64904500D01*
X158994662Y-64884815D01*
X158974020Y-64868181D01*
X158717461Y-64611622D01*
X158705944Y-64590530D01*
X158690784Y-64571881D01*
X158689502Y-64560420D01*
X158683976Y-64550299D01*
X158685690Y-64526326D01*
X158683020Y-64502444D01*
X158688412Y-64488266D01*
X158688960Y-64480607D01*
X158694023Y-64468909D01*
X158696577Y-64463750D01*
X158754814Y-64369334D01*
X158778017Y-64299311D01*
X158781870Y-64291532D01*
X158799914Y-64271984D01*
X158815055Y-64250116D01*
X158823244Y-64246711D01*
X158829262Y-64240192D01*
X158855011Y-64233503D01*
X158879571Y-64223292D01*
X158895220Y-64223058D01*
X158896888Y-64222625D01*
X158898077Y-64223015D01*
X158902719Y-64222946D01*
X158940525Y-64225921D01*
X159620000Y-63546446D01*
X159620000Y-63552661D01*
G37*
%TD.AperFunction*%
%TA.AperFunction,Conductor*%
G36*
X177242539Y-46240185D02*
G01*
X177288294Y-46292989D01*
X177299500Y-46344500D01*
X177299500Y-100975500D01*
X177279815Y-101042539D01*
X177227011Y-101088294D01*
X177175500Y-101099500D01*
X130164500Y-101099500D01*
X130097461Y-101079815D01*
X130051706Y-101027011D01*
X130040500Y-100975500D01*
X130040500Y-58330634D01*
X130377500Y-58330634D01*
X130377500Y-84386024D01*
X130405458Y-84562548D01*
X130445535Y-84685893D01*
X130460690Y-84732535D01*
X130541833Y-84891786D01*
X130621407Y-85001309D01*
X130646889Y-85036382D01*
X133076235Y-87465728D01*
X133202618Y-87592111D01*
X133347214Y-87697167D01*
X133506465Y-87778309D01*
X133535404Y-87787711D01*
X133535406Y-87787713D01*
X133535407Y-87787713D01*
X133570668Y-87799170D01*
X133676449Y-87833541D01*
X133735292Y-87842860D01*
X133852976Y-87861500D01*
X133852980Y-87861500D01*
X135387024Y-87861500D01*
X135475285Y-87847520D01*
X135563551Y-87833541D01*
X135704592Y-87787713D01*
X135733535Y-87778309D01*
X135892786Y-87697167D01*
X136037382Y-87592111D01*
X136163765Y-87465728D01*
X137122111Y-86507382D01*
X137227167Y-86362786D01*
X137308309Y-86203535D01*
X137321853Y-86161847D01*
X137363541Y-86033551D01*
X137379073Y-85935478D01*
X137391500Y-85857024D01*
X137391500Y-84987682D01*
X138400000Y-84987682D01*
X138400000Y-85192317D01*
X138432009Y-85394417D01*
X138495244Y-85589031D01*
X138588141Y-85771350D01*
X138588147Y-85771359D01*
X138620523Y-85815921D01*
X138620524Y-85815922D01*
X139300000Y-85136446D01*
X139300000Y-85142661D01*
X139327259Y-85244394D01*
X139379920Y-85335606D01*
X139454394Y-85410080D01*
X139545606Y-85462741D01*
X139647339Y-85490000D01*
X139653553Y-85490000D01*
X138974076Y-86169474D01*
X139018650Y-86201859D01*
X139200968Y-86294755D01*
X139395582Y-86357990D01*
X139597683Y-86390000D01*
X139802317Y-86390000D01*
X140004417Y-86357990D01*
X140199031Y-86294755D01*
X140381349Y-86201859D01*
X140425921Y-86169474D01*
X139746447Y-85490000D01*
X139752661Y-85490000D01*
X139854394Y-85462741D01*
X139945606Y-85410080D01*
X140020080Y-85335606D01*
X140072741Y-85244394D01*
X140100000Y-85142661D01*
X140100000Y-85136448D01*
X140779474Y-85815922D01*
X140779474Y-85815921D01*
X140811859Y-85771349D01*
X140904755Y-85589031D01*
X140967990Y-85394417D01*
X141000000Y-85192317D01*
X141000000Y-84987682D01*
X140967990Y-84785582D01*
X140904755Y-84590968D01*
X140811859Y-84408650D01*
X140779474Y-84364077D01*
X140779474Y-84364076D01*
X140100000Y-85043551D01*
X140100000Y-85037339D01*
X140072741Y-84935606D01*
X140020080Y-84844394D01*
X139945606Y-84769920D01*
X139854394Y-84717259D01*
X139752661Y-84690000D01*
X139746446Y-84690000D01*
X140425922Y-84010524D01*
X140425921Y-84010523D01*
X140381359Y-83978147D01*
X140381350Y-83978141D01*
X140199031Y-83885244D01*
X140004417Y-83822009D01*
X139802317Y-83790000D01*
X139597683Y-83790000D01*
X139395582Y-83822009D01*
X139200968Y-83885244D01*
X139018644Y-83978143D01*
X138974077Y-84010523D01*
X138974077Y-84010524D01*
X139653554Y-84690000D01*
X139647339Y-84690000D01*
X139545606Y-84717259D01*
X139454394Y-84769920D01*
X139379920Y-84844394D01*
X139327259Y-84935606D01*
X139300000Y-85037339D01*
X139300000Y-85043553D01*
X138620524Y-84364077D01*
X138620523Y-84364077D01*
X138588143Y-84408644D01*
X138495244Y-84590968D01*
X138432009Y-84785582D01*
X138400000Y-84987682D01*
X137391500Y-84987682D01*
X137391500Y-84765701D01*
X137411185Y-84698662D01*
X137427819Y-84678020D01*
X139434020Y-82671819D01*
X139495343Y-82638334D01*
X139521701Y-82635500D01*
X144478299Y-82635500D01*
X144545338Y-82655185D01*
X144565980Y-82671819D01*
X145782181Y-83888020D01*
X145796884Y-83914947D01*
X145813477Y-83940766D01*
X145814368Y-83946966D01*
X145815666Y-83949343D01*
X145818500Y-83975701D01*
X145818500Y-83993643D01*
X145798815Y-84060682D01*
X145746011Y-84106437D01*
X145676853Y-84116381D01*
X145621615Y-84093962D01*
X145461609Y-83977712D01*
X145279223Y-83884781D01*
X145084534Y-83821522D01*
X144909995Y-83793878D01*
X144882352Y-83789500D01*
X144677648Y-83789500D01*
X144653329Y-83793351D01*
X144475465Y-83821522D01*
X144280776Y-83884781D01*
X144098386Y-83977715D01*
X143932786Y-84098028D01*
X143788028Y-84242786D01*
X143667715Y-84408386D01*
X143574781Y-84590776D01*
X143511522Y-84785465D01*
X143479500Y-84987648D01*
X143479500Y-85192351D01*
X143511522Y-85394534D01*
X143574782Y-85589225D01*
X143630984Y-85699525D01*
X143644500Y-85755821D01*
X143644500Y-97880689D01*
X143624815Y-97947728D01*
X143608181Y-97968370D01*
X143559205Y-98017345D01*
X143559201Y-98017350D01*
X143411132Y-98221151D01*
X143296760Y-98445616D01*
X143218910Y-98685214D01*
X143179500Y-98934038D01*
X143179500Y-99185961D01*
X143218910Y-99434785D01*
X143296760Y-99674383D01*
X143411132Y-99898848D01*
X143559201Y-100102649D01*
X143559205Y-100102654D01*
X143737345Y-100280794D01*
X143737350Y-100280798D01*
X143915117Y-100409952D01*
X143941155Y-100428870D01*
X144084184Y-100501747D01*
X144165616Y-100543239D01*
X144165618Y-100543239D01*
X144165621Y-100543241D01*
X144405215Y-100621090D01*
X144654038Y-100660500D01*
X144654039Y-100660500D01*
X144905961Y-100660500D01*
X144905962Y-100660500D01*
X145154785Y-100621090D01*
X145394379Y-100543241D01*
X145618845Y-100428870D01*
X145822656Y-100280793D01*
X146000793Y-100102656D01*
X146148870Y-99898845D01*
X146263241Y-99674379D01*
X146341090Y-99434785D01*
X146380500Y-99185962D01*
X146380500Y-98934038D01*
X146341090Y-98685215D01*
X146263241Y-98445621D01*
X146263239Y-98445618D01*
X146263239Y-98445616D01*
X146221747Y-98364184D01*
X146148870Y-98221155D01*
X146129952Y-98195117D01*
X146000798Y-98017350D01*
X146000794Y-98017345D01*
X145951819Y-97968370D01*
X145918334Y-97907047D01*
X145915500Y-97880689D01*
X145915500Y-97020701D01*
X145935185Y-96953662D01*
X145987989Y-96907907D01*
X146057147Y-96897963D01*
X146120703Y-96926988D01*
X146127181Y-96933020D01*
X148223181Y-99029020D01*
X148256666Y-99090343D01*
X148259500Y-99116701D01*
X148259500Y-99185961D01*
X148298910Y-99434785D01*
X148376760Y-99674383D01*
X148491132Y-99898848D01*
X148639201Y-100102649D01*
X148639205Y-100102654D01*
X148817345Y-100280794D01*
X148817350Y-100280798D01*
X148995117Y-100409952D01*
X149021155Y-100428870D01*
X149164184Y-100501747D01*
X149245616Y-100543239D01*
X149245618Y-100543239D01*
X149245621Y-100543241D01*
X149485215Y-100621090D01*
X149734038Y-100660500D01*
X149734039Y-100660500D01*
X149985961Y-100660500D01*
X149985962Y-100660500D01*
X150234785Y-100621090D01*
X150474379Y-100543241D01*
X150698845Y-100428870D01*
X150902656Y-100280793D01*
X151080793Y-100102656D01*
X151228870Y-99898845D01*
X151343241Y-99674379D01*
X151421090Y-99434785D01*
X151460500Y-99185962D01*
X151460500Y-98934038D01*
X158419500Y-98934038D01*
X158419500Y-99185961D01*
X158458910Y-99434785D01*
X158536760Y-99674383D01*
X158651132Y-99898848D01*
X158799201Y-100102649D01*
X158799205Y-100102654D01*
X158977345Y-100280794D01*
X158977350Y-100280798D01*
X159155117Y-100409952D01*
X159181155Y-100428870D01*
X159324184Y-100501747D01*
X159405616Y-100543239D01*
X159405618Y-100543239D01*
X159405621Y-100543241D01*
X159645215Y-100621090D01*
X159894038Y-100660500D01*
X159894039Y-100660500D01*
X160145961Y-100660500D01*
X160145962Y-100660500D01*
X160394785Y-100621090D01*
X160634379Y-100543241D01*
X160858845Y-100428870D01*
X161062656Y-100280793D01*
X161240793Y-100102656D01*
X161388870Y-99898845D01*
X161503241Y-99674379D01*
X161581090Y-99434785D01*
X161620500Y-99185962D01*
X161620500Y-98934038D01*
X161581090Y-98685215D01*
X161503241Y-98445621D01*
X161503239Y-98445618D01*
X161503239Y-98445616D01*
X161461747Y-98364184D01*
X161388870Y-98221155D01*
X161369952Y-98195117D01*
X161240798Y-98017350D01*
X161240794Y-98017345D01*
X161062654Y-97839205D01*
X161062649Y-97839201D01*
X160858848Y-97691132D01*
X160858847Y-97691131D01*
X160858845Y-97691130D01*
X160788747Y-97655413D01*
X160634383Y-97576760D01*
X160394785Y-97498910D01*
X160145962Y-97459500D01*
X159894038Y-97459500D01*
X159769626Y-97479205D01*
X159645214Y-97498910D01*
X159405616Y-97576760D01*
X159181151Y-97691132D01*
X158977350Y-97839201D01*
X158977345Y-97839205D01*
X158799205Y-98017345D01*
X158799201Y-98017350D01*
X158651132Y-98221151D01*
X158536760Y-98445616D01*
X158458910Y-98685214D01*
X158419500Y-98934038D01*
X151460500Y-98934038D01*
X151421090Y-98685215D01*
X151343241Y-98445621D01*
X151343239Y-98445618D01*
X151343239Y-98445616D01*
X151301747Y-98364184D01*
X151228870Y-98221155D01*
X151209952Y-98195117D01*
X151080798Y-98017350D01*
X151080794Y-98017345D01*
X150902654Y-97839205D01*
X150902649Y-97839201D01*
X150698848Y-97691132D01*
X150698847Y-97691131D01*
X150698845Y-97691130D01*
X150628747Y-97655413D01*
X150474383Y-97576760D01*
X150234785Y-97498910D01*
X149985962Y-97459500D01*
X149985961Y-97459500D01*
X149916701Y-97459500D01*
X149849662Y-97439815D01*
X149829020Y-97423181D01*
X148125819Y-95719980D01*
X148092334Y-95658657D01*
X148089500Y-95632299D01*
X148089500Y-93897648D01*
X149079500Y-93897648D01*
X149079500Y-94102351D01*
X149111522Y-94304534D01*
X149174781Y-94499223D01*
X149267715Y-94681613D01*
X149388028Y-94847213D01*
X149532786Y-94991971D01*
X149687749Y-95104556D01*
X149698390Y-95112287D01*
X149814607Y-95171503D01*
X149880776Y-95205218D01*
X149880778Y-95205218D01*
X149880781Y-95205220D01*
X149985137Y-95239127D01*
X150075465Y-95268477D01*
X150176557Y-95284488D01*
X150277648Y-95300500D01*
X150277649Y-95300500D01*
X150482351Y-95300500D01*
X150482352Y-95300500D01*
X150684534Y-95268477D01*
X150879219Y-95205220D01*
X151061610Y-95112287D01*
X151154590Y-95044732D01*
X151227213Y-94991971D01*
X151227215Y-94991968D01*
X151227219Y-94991966D01*
X151371966Y-94847219D01*
X151371968Y-94847215D01*
X151371971Y-94847213D01*
X151492284Y-94681614D01*
X151492285Y-94681613D01*
X151492287Y-94681610D01*
X151539516Y-94588917D01*
X151587489Y-94538123D01*
X151655310Y-94521328D01*
X151721445Y-94543865D01*
X151760485Y-94588919D01*
X151807715Y-94681614D01*
X151928028Y-94847213D01*
X152072786Y-94991971D01*
X152227749Y-95104556D01*
X152238390Y-95112287D01*
X152354607Y-95171503D01*
X152420776Y-95205218D01*
X152420778Y-95205218D01*
X152420781Y-95205220D01*
X152525137Y-95239127D01*
X152615465Y-95268477D01*
X152716557Y-95284488D01*
X152817648Y-95300500D01*
X152817649Y-95300500D01*
X153022351Y-95300500D01*
X153022352Y-95300500D01*
X153224534Y-95268477D01*
X153419219Y-95205220D01*
X153601610Y-95112287D01*
X153694590Y-95044732D01*
X153767213Y-94991971D01*
X153767215Y-94991968D01*
X153767219Y-94991966D01*
X153911966Y-94847219D01*
X153911968Y-94847215D01*
X153911971Y-94847213D01*
X154032284Y-94681614D01*
X154032285Y-94681613D01*
X154032287Y-94681610D01*
X154079516Y-94588917D01*
X154127489Y-94538123D01*
X154195310Y-94521328D01*
X154261445Y-94543865D01*
X154300485Y-94588919D01*
X154347715Y-94681614D01*
X154468028Y-94847213D01*
X154612786Y-94991971D01*
X154767749Y-95104556D01*
X154778390Y-95112287D01*
X154894607Y-95171503D01*
X154960776Y-95205218D01*
X154960778Y-95205218D01*
X154960781Y-95205220D01*
X155065137Y-95239127D01*
X155155465Y-95268477D01*
X155256557Y-95284488D01*
X155357648Y-95300500D01*
X155357649Y-95300500D01*
X155562351Y-95300500D01*
X155562352Y-95300500D01*
X155764534Y-95268477D01*
X155959219Y-95205220D01*
X156141610Y-95112287D01*
X156234590Y-95044732D01*
X156307213Y-94991971D01*
X156307215Y-94991968D01*
X156307219Y-94991966D01*
X156451966Y-94847219D01*
X156451968Y-94847215D01*
X156451971Y-94847213D01*
X156572284Y-94681614D01*
X156572285Y-94681613D01*
X156572287Y-94681610D01*
X156619516Y-94588917D01*
X156667489Y-94538123D01*
X156735310Y-94521328D01*
X156801445Y-94543865D01*
X156840485Y-94588919D01*
X156887715Y-94681614D01*
X157008028Y-94847213D01*
X157152786Y-94991971D01*
X157307749Y-95104556D01*
X157318390Y-95112287D01*
X157434607Y-95171503D01*
X157500776Y-95205218D01*
X157500778Y-95205218D01*
X157500781Y-95205220D01*
X157605137Y-95239127D01*
X157695465Y-95268477D01*
X157796557Y-95284488D01*
X157897648Y-95300500D01*
X157897649Y-95300500D01*
X158102351Y-95300500D01*
X158102352Y-95300500D01*
X158304534Y-95268477D01*
X158499219Y-95205220D01*
X158681610Y-95112287D01*
X158774590Y-95044732D01*
X158847213Y-94991971D01*
X158847215Y-94991968D01*
X158847219Y-94991966D01*
X158991966Y-94847219D01*
X158991968Y-94847215D01*
X158991971Y-94847213D01*
X159044732Y-94774590D01*
X159112287Y-94681610D01*
X159205220Y-94499219D01*
X159268477Y-94304534D01*
X159300500Y-94102352D01*
X159300500Y-93897648D01*
X159268477Y-93695466D01*
X159205220Y-93500781D01*
X159205218Y-93500778D01*
X159205218Y-93500776D01*
X159159515Y-93411080D01*
X159112287Y-93318390D01*
X159104556Y-93307749D01*
X158991971Y-93152786D01*
X158847213Y-93008028D01*
X158681613Y-92887715D01*
X158681612Y-92887714D01*
X158681610Y-92887713D01*
X158624653Y-92858691D01*
X158499223Y-92794781D01*
X158304534Y-92731522D01*
X158129995Y-92703878D01*
X158102352Y-92699500D01*
X157897648Y-92699500D01*
X157873329Y-92703351D01*
X157695465Y-92731522D01*
X157500776Y-92794781D01*
X157318386Y-92887715D01*
X157152786Y-93008028D01*
X157008028Y-93152786D01*
X156887715Y-93318386D01*
X156840485Y-93411080D01*
X156792510Y-93461876D01*
X156724689Y-93478671D01*
X156658554Y-93456134D01*
X156619515Y-93411080D01*
X156618883Y-93409840D01*
X156572287Y-93318390D01*
X156564556Y-93307749D01*
X156451971Y-93152786D01*
X156307213Y-93008028D01*
X156141613Y-92887715D01*
X156141612Y-92887714D01*
X156141610Y-92887713D01*
X156084653Y-92858691D01*
X155959223Y-92794781D01*
X155764534Y-92731522D01*
X155589995Y-92703878D01*
X155562352Y-92699500D01*
X155357648Y-92699500D01*
X155333329Y-92703351D01*
X155155465Y-92731522D01*
X154960776Y-92794781D01*
X154778386Y-92887715D01*
X154612786Y-93008028D01*
X154468028Y-93152786D01*
X154347715Y-93318386D01*
X154300485Y-93411080D01*
X154252510Y-93461876D01*
X154184689Y-93478671D01*
X154118554Y-93456134D01*
X154079515Y-93411080D01*
X154078883Y-93409840D01*
X154032287Y-93318390D01*
X154024556Y-93307749D01*
X153911971Y-93152786D01*
X153767213Y-93008028D01*
X153601613Y-92887715D01*
X153601612Y-92887714D01*
X153601610Y-92887713D01*
X153544653Y-92858691D01*
X153419223Y-92794781D01*
X153224534Y-92731522D01*
X153049995Y-92703878D01*
X153022352Y-92699500D01*
X152817648Y-92699500D01*
X152793329Y-92703351D01*
X152615465Y-92731522D01*
X152420776Y-92794781D01*
X152238386Y-92887715D01*
X152072786Y-93008028D01*
X151928028Y-93152786D01*
X151807715Y-93318386D01*
X151760485Y-93411080D01*
X151712510Y-93461876D01*
X151644689Y-93478671D01*
X151578554Y-93456134D01*
X151539515Y-93411080D01*
X151538883Y-93409840D01*
X151492287Y-93318390D01*
X151484556Y-93307749D01*
X151371971Y-93152786D01*
X151227213Y-93008028D01*
X151061613Y-92887715D01*
X151061612Y-92887714D01*
X151061610Y-92887713D01*
X151004653Y-92858691D01*
X150879223Y-92794781D01*
X150684534Y-92731522D01*
X150509995Y-92703878D01*
X150482352Y-92699500D01*
X150277648Y-92699500D01*
X150253329Y-92703351D01*
X150075465Y-92731522D01*
X149880776Y-92794781D01*
X149698386Y-92887715D01*
X149532786Y-93008028D01*
X149388028Y-93152786D01*
X149267715Y-93318386D01*
X149174781Y-93500776D01*
X149111522Y-93695465D01*
X149079500Y-93897648D01*
X148089500Y-93897648D01*
X148089500Y-83364634D01*
X148077081Y-83286227D01*
X148061540Y-83188103D01*
X148061539Y-83188099D01*
X148061539Y-83188098D01*
X148006310Y-83018121D01*
X148006308Y-83018118D01*
X147925166Y-82858867D01*
X147864319Y-82775118D01*
X147820111Y-82714271D01*
X145739728Y-80633889D01*
X145595132Y-80528833D01*
X145435881Y-80447691D01*
X145435875Y-80447688D01*
X145394194Y-80434146D01*
X145327453Y-80412460D01*
X145265897Y-80392459D01*
X145265895Y-80392458D01*
X145265894Y-80392458D01*
X145089370Y-80364500D01*
X145089366Y-80364500D01*
X139089367Y-80364500D01*
X138910634Y-80364500D01*
X138910630Y-80364500D01*
X138734101Y-80392459D01*
X138734098Y-80392459D01*
X138564123Y-80447688D01*
X138564122Y-80447688D01*
X138486011Y-80487486D01*
X138486012Y-80487487D01*
X138404880Y-80528826D01*
X138404873Y-80528830D01*
X138404868Y-80528833D01*
X138288934Y-80613064D01*
X138260269Y-80633891D01*
X135305718Y-83588442D01*
X135305718Y-83588443D01*
X135305716Y-83588445D01*
X135270978Y-83636258D01*
X135200658Y-83733044D01*
X135170838Y-83791568D01*
X135147442Y-83816339D01*
X135124386Y-83841460D01*
X135123495Y-83841693D01*
X135122863Y-83842364D01*
X135089749Y-83850563D01*
X135056811Y-83859221D01*
X135055620Y-83859014D01*
X135055042Y-83859158D01*
X135022034Y-83853202D01*
X135001473Y-83846521D01*
X134952112Y-83816272D01*
X134155819Y-83019979D01*
X134122334Y-82958656D01*
X134119500Y-82932298D01*
X134119500Y-78845475D01*
X134139185Y-78778436D01*
X134191989Y-78732681D01*
X134261147Y-78722737D01*
X134281820Y-78727545D01*
X134315458Y-78738475D01*
X134315461Y-78738475D01*
X134315466Y-78738477D01*
X134517648Y-78770500D01*
X134517649Y-78770500D01*
X134722351Y-78770500D01*
X134722352Y-78770500D01*
X134924534Y-78738477D01*
X135119219Y-78675220D01*
X135301610Y-78582287D01*
X135439233Y-78482299D01*
X135467213Y-78461971D01*
X135467215Y-78461968D01*
X135467219Y-78461966D01*
X135611966Y-78317219D01*
X135611968Y-78317215D01*
X135611971Y-78317213D01*
X135675656Y-78229556D01*
X135732287Y-78151610D01*
X135825220Y-77969219D01*
X135888477Y-77774534D01*
X135920500Y-77572352D01*
X135920500Y-77367648D01*
X135915408Y-77335500D01*
X135888477Y-77165465D01*
X135839100Y-77013499D01*
X135825220Y-76970781D01*
X135825218Y-76970778D01*
X135825218Y-76970776D01*
X135769015Y-76860472D01*
X135765893Y-76847468D01*
X135760523Y-76839112D01*
X135755500Y-76804177D01*
X135755500Y-76721701D01*
X135775185Y-76654662D01*
X135791819Y-76634020D01*
X137754020Y-74671819D01*
X137815343Y-74638334D01*
X137841701Y-74635500D01*
X138440500Y-74635500D01*
X138507539Y-74655185D01*
X138553294Y-74707989D01*
X138564500Y-74759500D01*
X138564500Y-76804177D01*
X138550985Y-76860472D01*
X138494781Y-76970776D01*
X138431522Y-77165465D01*
X138399500Y-77367648D01*
X138399500Y-77572351D01*
X138431522Y-77774534D01*
X138494781Y-77969223D01*
X138558691Y-78094653D01*
X138581793Y-78139992D01*
X138587715Y-78151613D01*
X138708028Y-78317213D01*
X138852786Y-78461971D01*
X139007749Y-78574556D01*
X139018390Y-78582287D01*
X139090473Y-78619015D01*
X139200776Y-78675218D01*
X139200778Y-78675218D01*
X139200781Y-78675220D01*
X139305137Y-78709127D01*
X139395465Y-78738477D01*
X139496557Y-78754488D01*
X139597648Y-78770500D01*
X139597649Y-78770500D01*
X139802351Y-78770500D01*
X139802352Y-78770500D01*
X140004534Y-78738477D01*
X140199219Y-78675220D01*
X140381610Y-78582287D01*
X140519233Y-78482299D01*
X140547213Y-78461971D01*
X140547215Y-78461968D01*
X140547219Y-78461966D01*
X140691966Y-78317219D01*
X140691968Y-78317215D01*
X140691971Y-78317213D01*
X140755656Y-78229556D01*
X140812287Y-78151610D01*
X140905220Y-77969219D01*
X140968477Y-77774534D01*
X141000500Y-77572352D01*
X141000500Y-77367648D01*
X140995408Y-77335500D01*
X140968477Y-77165465D01*
X140919100Y-77013499D01*
X140905220Y-76970781D01*
X140905218Y-76970778D01*
X140905218Y-76970776D01*
X140849015Y-76860472D01*
X140835500Y-76804177D01*
X140835500Y-75554607D01*
X140855185Y-75487568D01*
X140907989Y-75441813D01*
X140977147Y-75431869D01*
X141040703Y-75460894D01*
X141069984Y-75498310D01*
X141121278Y-75598981D01*
X141127715Y-75611614D01*
X141248028Y-75777213D01*
X141392786Y-75921971D01*
X141547749Y-76034556D01*
X141558390Y-76042287D01*
X141621814Y-76074603D01*
X141740776Y-76135218D01*
X141740778Y-76135218D01*
X141740781Y-76135220D01*
X141845137Y-76169127D01*
X141935465Y-76198477D01*
X141954697Y-76201523D01*
X142137648Y-76230500D01*
X142137649Y-76230500D01*
X142342351Y-76230500D01*
X142342352Y-76230500D01*
X142544534Y-76198477D01*
X142739219Y-76135220D01*
X142849527Y-76079014D01*
X142905822Y-76065500D01*
X144155392Y-76065500D01*
X144222431Y-76085185D01*
X144268186Y-76137989D01*
X144278130Y-76207147D01*
X144249105Y-76270703D01*
X144211687Y-76299985D01*
X144098386Y-76357715D01*
X143932786Y-76478028D01*
X143788028Y-76622786D01*
X143667715Y-76788386D01*
X143574781Y-76970776D01*
X143511522Y-77165465D01*
X143479500Y-77367648D01*
X143479500Y-77572351D01*
X143511522Y-77774534D01*
X143574781Y-77969223D01*
X143638691Y-78094653D01*
X143661793Y-78139992D01*
X143667715Y-78151613D01*
X143788028Y-78317213D01*
X143932786Y-78461971D01*
X144087749Y-78574556D01*
X144098390Y-78582287D01*
X144170473Y-78619015D01*
X144280776Y-78675218D01*
X144280778Y-78675218D01*
X144280781Y-78675220D01*
X144385137Y-78709127D01*
X144475465Y-78738477D01*
X144576557Y-78754488D01*
X144677648Y-78770500D01*
X144677649Y-78770500D01*
X144882351Y-78770500D01*
X144882352Y-78770500D01*
X145084534Y-78738477D01*
X145279219Y-78675220D01*
X145389527Y-78619014D01*
X145445822Y-78605500D01*
X148108299Y-78605500D01*
X148175338Y-78625185D01*
X148195980Y-78641819D01*
X148563181Y-79009021D01*
X148596666Y-79070344D01*
X148599500Y-79096701D01*
X148599500Y-79340000D01*
X148599501Y-79340019D01*
X148610000Y-79442796D01*
X148610001Y-79442799D01*
X148614684Y-79456930D01*
X148665186Y-79609334D01*
X148757288Y-79758656D01*
X148881344Y-79882712D01*
X149030666Y-79974814D01*
X149197203Y-80029999D01*
X149299991Y-80040500D01*
X150500008Y-80040499D01*
X150602797Y-80029999D01*
X150769334Y-79974814D01*
X150918656Y-79882712D01*
X151042712Y-79758656D01*
X151042717Y-79758646D01*
X151043230Y-79758000D01*
X151043702Y-79757665D01*
X151047819Y-79753549D01*
X151048522Y-79754252D01*
X151100249Y-79717621D01*
X151170048Y-79714478D01*
X151230466Y-79749571D01*
X151262320Y-79811757D01*
X151264500Y-79834906D01*
X151264500Y-81569370D01*
X151292458Y-81745893D01*
X151334146Y-81874194D01*
X151347688Y-81915875D01*
X151347691Y-81915881D01*
X151428833Y-82075132D01*
X151533890Y-82219729D01*
X151748181Y-82434020D01*
X151781666Y-82495343D01*
X151784500Y-82521701D01*
X151784500Y-85714177D01*
X151781377Y-85727181D01*
X151782369Y-85737069D01*
X151770983Y-85770476D01*
X151760202Y-85791633D01*
X151712226Y-85842427D01*
X151644404Y-85859220D01*
X151578270Y-85836680D01*
X151539234Y-85791628D01*
X151491861Y-85698652D01*
X151459474Y-85654077D01*
X151459474Y-85654076D01*
X150780000Y-86333551D01*
X150780000Y-86327339D01*
X150752741Y-86225606D01*
X150700080Y-86134394D01*
X150625606Y-86059920D01*
X150534394Y-86007259D01*
X150432661Y-85980000D01*
X150426446Y-85980000D01*
X151105922Y-85300524D01*
X151105921Y-85300523D01*
X151061359Y-85268147D01*
X151061350Y-85268141D01*
X150879031Y-85175244D01*
X150684417Y-85112009D01*
X150482317Y-85080000D01*
X150277683Y-85080000D01*
X150075582Y-85112009D01*
X149880968Y-85175244D01*
X149698644Y-85268143D01*
X149654077Y-85300523D01*
X149654077Y-85300524D01*
X150333554Y-85980000D01*
X150327339Y-85980000D01*
X150225606Y-86007259D01*
X150134394Y-86059920D01*
X150059920Y-86134394D01*
X150007259Y-86225606D01*
X149980000Y-86327339D01*
X149980000Y-86333553D01*
X149300524Y-85654077D01*
X149300523Y-85654077D01*
X149268143Y-85698644D01*
X149175244Y-85880968D01*
X149112009Y-86075582D01*
X149080000Y-86277682D01*
X149080000Y-86482317D01*
X149112009Y-86684417D01*
X149175244Y-86879031D01*
X149268141Y-87061350D01*
X149268147Y-87061359D01*
X149300523Y-87105921D01*
X149300524Y-87105922D01*
X149980000Y-86426446D01*
X149980000Y-86432661D01*
X150007259Y-86534394D01*
X150059920Y-86625606D01*
X150134394Y-86700080D01*
X150225606Y-86752741D01*
X150327339Y-86780000D01*
X150333553Y-86780000D01*
X149654076Y-87459474D01*
X149698650Y-87491859D01*
X149880968Y-87584755D01*
X150075582Y-87647990D01*
X150277683Y-87680000D01*
X150482317Y-87680000D01*
X150684417Y-87647990D01*
X150879031Y-87584755D01*
X151061349Y-87491859D01*
X151105921Y-87459474D01*
X150426447Y-86780000D01*
X150432661Y-86780000D01*
X150534394Y-86752741D01*
X150625606Y-86700080D01*
X150700080Y-86625606D01*
X150752741Y-86534394D01*
X150780000Y-86432661D01*
X150780000Y-86426447D01*
X151459474Y-87105921D01*
X151491861Y-87061347D01*
X151491861Y-87061346D01*
X151539234Y-86968371D01*
X151587208Y-86917575D01*
X151655028Y-86900779D01*
X151721164Y-86923316D01*
X151760203Y-86968369D01*
X151807713Y-87061611D01*
X151928028Y-87227213D01*
X152072786Y-87371971D01*
X152227749Y-87484556D01*
X152238390Y-87492287D01*
X152315976Y-87531819D01*
X152420776Y-87585218D01*
X152420778Y-87585218D01*
X152420781Y-87585220D01*
X152511856Y-87614812D01*
X152615465Y-87648477D01*
X152666259Y-87656522D01*
X152817648Y-87680500D01*
X152817649Y-87680500D01*
X153022351Y-87680500D01*
X153022352Y-87680500D01*
X153224534Y-87648477D01*
X153419219Y-87585220D01*
X153601610Y-87492287D01*
X153730482Y-87398657D01*
X153767213Y-87371971D01*
X153767215Y-87371968D01*
X153767219Y-87371966D01*
X153911966Y-87227219D01*
X153911968Y-87227215D01*
X153911971Y-87227213D01*
X154032284Y-87061614D01*
X154032286Y-87061611D01*
X154032287Y-87061610D01*
X154079516Y-86968917D01*
X154127489Y-86918123D01*
X154195310Y-86901328D01*
X154261445Y-86923865D01*
X154300483Y-86968917D01*
X154337283Y-87041140D01*
X154347715Y-87061614D01*
X154468028Y-87227213D01*
X154612786Y-87371971D01*
X154767749Y-87484556D01*
X154778390Y-87492287D01*
X154855976Y-87531819D01*
X154960776Y-87585218D01*
X154960778Y-87585218D01*
X154960781Y-87585220D01*
X155051856Y-87614812D01*
X155155465Y-87648477D01*
X155206259Y-87656522D01*
X155357648Y-87680500D01*
X155357649Y-87680500D01*
X155562351Y-87680500D01*
X155562352Y-87680500D01*
X155764534Y-87648477D01*
X155959219Y-87585220D01*
X156141610Y-87492287D01*
X156270482Y-87398657D01*
X156307213Y-87371971D01*
X156307215Y-87371968D01*
X156307219Y-87371966D01*
X156451966Y-87227219D01*
X156452773Y-87226109D01*
X156495406Y-87167428D01*
X156520021Y-87133547D01*
X156575349Y-87090882D01*
X156644963Y-87084902D01*
X156706758Y-87117507D01*
X156738044Y-87167427D01*
X156765186Y-87249334D01*
X156857288Y-87398656D01*
X156981344Y-87522712D01*
X157130666Y-87614814D01*
X157297203Y-87669999D01*
X157399991Y-87680500D01*
X158600008Y-87680499D01*
X158702797Y-87669999D01*
X158869334Y-87614814D01*
X159018656Y-87522712D01*
X159142712Y-87398656D01*
X159234814Y-87249334D01*
X159289999Y-87082797D01*
X159300500Y-86980009D01*
X159300499Y-86736700D01*
X159320183Y-86669661D01*
X159336813Y-86649024D01*
X160994020Y-84991819D01*
X161055343Y-84958334D01*
X161081701Y-84955500D01*
X164434178Y-84955500D01*
X164490473Y-84969015D01*
X164600776Y-85025218D01*
X164600778Y-85025218D01*
X164600781Y-85025220D01*
X164667530Y-85046908D01*
X164704173Y-85058814D01*
X164761848Y-85098252D01*
X164789046Y-85162611D01*
X164777131Y-85231457D01*
X164729887Y-85282933D01*
X164704174Y-85294676D01*
X164664116Y-85307691D01*
X164504866Y-85388834D01*
X164421116Y-85449681D01*
X164421115Y-85449680D01*
X164360279Y-85493881D01*
X164360271Y-85493888D01*
X162227887Y-87626272D01*
X162178525Y-87656522D01*
X162060777Y-87694781D01*
X161878386Y-87787715D01*
X161712786Y-87908028D01*
X161568028Y-88052786D01*
X161447715Y-88218386D01*
X161354781Y-88400776D01*
X161291522Y-88595465D01*
X161259500Y-88797648D01*
X161259500Y-89002351D01*
X161291522Y-89204534D01*
X161354781Y-89399223D01*
X161447715Y-89581613D01*
X161568028Y-89747213D01*
X161712786Y-89891971D01*
X161867749Y-90004556D01*
X161878390Y-90012287D01*
X161994607Y-90071503D01*
X162060776Y-90105218D01*
X162060778Y-90105218D01*
X162060781Y-90105220D01*
X162165137Y-90139127D01*
X162255465Y-90168477D01*
X162356557Y-90184488D01*
X162457648Y-90200500D01*
X162457649Y-90200500D01*
X162662351Y-90200500D01*
X162662352Y-90200500D01*
X162864534Y-90168477D01*
X163059219Y-90105220D01*
X163241610Y-90012287D01*
X163334590Y-89944732D01*
X163407213Y-89891971D01*
X163407215Y-89891968D01*
X163407219Y-89891966D01*
X163551966Y-89747219D01*
X163551968Y-89747215D01*
X163551971Y-89747213D01*
X163604732Y-89674590D01*
X163672287Y-89581610D01*
X163765220Y-89399219D01*
X163803477Y-89281473D01*
X163833725Y-89232112D01*
X165534021Y-87531819D01*
X165595344Y-87498334D01*
X165621702Y-87495500D01*
X169555392Y-87495500D01*
X169622431Y-87515185D01*
X169668186Y-87567989D01*
X169678130Y-87637147D01*
X169649105Y-87700703D01*
X169611687Y-87729985D01*
X169498386Y-87787715D01*
X169332786Y-87908028D01*
X169188028Y-88052786D01*
X169067715Y-88218386D01*
X168974781Y-88400776D01*
X168911522Y-88595465D01*
X168879500Y-88797648D01*
X168879500Y-89002351D01*
X168911522Y-89204534D01*
X168974781Y-89399223D01*
X169067715Y-89581613D01*
X169188028Y-89747213D01*
X169332786Y-89891971D01*
X169487749Y-90004556D01*
X169498390Y-90012287D01*
X169614607Y-90071503D01*
X169680776Y-90105218D01*
X169680778Y-90105218D01*
X169680781Y-90105220D01*
X169785137Y-90139127D01*
X169875465Y-90168477D01*
X169976557Y-90184488D01*
X170077648Y-90200500D01*
X170077649Y-90200500D01*
X170282351Y-90200500D01*
X170282352Y-90200500D01*
X170484534Y-90168477D01*
X170679219Y-90105220D01*
X170861610Y-90012287D01*
X170954590Y-89944732D01*
X171027213Y-89891971D01*
X171027215Y-89891968D01*
X171027219Y-89891966D01*
X171171966Y-89747219D01*
X171171968Y-89747215D01*
X171171971Y-89747213D01*
X171224732Y-89674590D01*
X171292287Y-89581610D01*
X171385220Y-89399219D01*
X171448477Y-89204534D01*
X171480500Y-89002352D01*
X171480500Y-88797648D01*
X171448477Y-88595466D01*
X171385220Y-88400781D01*
X171385218Y-88400778D01*
X171385218Y-88400776D01*
X171351503Y-88334607D01*
X171292287Y-88218390D01*
X171284556Y-88207749D01*
X171171971Y-88052786D01*
X171027213Y-87908028D01*
X170861613Y-87787715D01*
X170861612Y-87787714D01*
X170861610Y-87787713D01*
X170748313Y-87729985D01*
X170697517Y-87682010D01*
X170680722Y-87614189D01*
X170703260Y-87548054D01*
X170757975Y-87504603D01*
X170804608Y-87495500D01*
X172809370Y-87495500D01*
X172887824Y-87483073D01*
X172985897Y-87467541D01*
X173114193Y-87425853D01*
X173155881Y-87412309D01*
X173315132Y-87331167D01*
X173459728Y-87226111D01*
X173586111Y-87099728D01*
X173644670Y-87041169D01*
X173644682Y-87041155D01*
X176126111Y-84559729D01*
X176173235Y-84494868D01*
X176231167Y-84415132D01*
X176312309Y-84255881D01*
X176360866Y-84106437D01*
X176367539Y-84085901D01*
X176367539Y-84085900D01*
X176367540Y-84085897D01*
X176395500Y-83909366D01*
X176395500Y-53250634D01*
X176367540Y-53074103D01*
X176367539Y-53074099D01*
X176367539Y-53074098D01*
X176312310Y-52904121D01*
X176312308Y-52904118D01*
X176273261Y-52827482D01*
X176231167Y-52744868D01*
X176126111Y-52600272D01*
X175999728Y-52473889D01*
X175855132Y-52368833D01*
X175695881Y-52287691D01*
X175695878Y-52287689D01*
X175525899Y-52232460D01*
X175408209Y-52213820D01*
X175349366Y-52204500D01*
X167550634Y-52204500D01*
X167491790Y-52213820D01*
X167374101Y-52232460D01*
X167374098Y-52232460D01*
X167204121Y-52287689D01*
X167204118Y-52287690D01*
X167044866Y-52368834D01*
X166961116Y-52429681D01*
X166961115Y-52429680D01*
X166900276Y-52473884D01*
X166900267Y-52473891D01*
X164360272Y-55013889D01*
X164233891Y-55140269D01*
X164233890Y-55140270D01*
X164128833Y-55284867D01*
X164047243Y-55444997D01*
X164046184Y-55448754D01*
X163992459Y-55614101D01*
X163992457Y-55614110D01*
X163978934Y-55699499D01*
X163978934Y-55699501D01*
X163964500Y-55790629D01*
X163964500Y-62978298D01*
X163944815Y-63045337D01*
X163928181Y-63065979D01*
X162125980Y-64868181D01*
X162064657Y-64901666D01*
X162038299Y-64904500D01*
X160643508Y-64904500D01*
X160576469Y-64884815D01*
X160530714Y-64832011D01*
X160520770Y-64762853D01*
X160549795Y-64699297D01*
X160587213Y-64670015D01*
X160701349Y-64611859D01*
X160745921Y-64579474D01*
X160066447Y-63900000D01*
X160072661Y-63900000D01*
X160174394Y-63872741D01*
X160265606Y-63820080D01*
X160340080Y-63745606D01*
X160392741Y-63654394D01*
X160420000Y-63552661D01*
X160420000Y-63546448D01*
X161099474Y-64225922D01*
X161099474Y-64225921D01*
X161131859Y-64181349D01*
X161224755Y-63999031D01*
X161287990Y-63804417D01*
X161320000Y-63602317D01*
X161320000Y-63397682D01*
X161287990Y-63195582D01*
X161224755Y-63000968D01*
X161131859Y-62818650D01*
X161099474Y-62774077D01*
X161099474Y-62774076D01*
X160420000Y-63453551D01*
X160420000Y-63447339D01*
X160392741Y-63345606D01*
X160340080Y-63254394D01*
X160265606Y-63179920D01*
X160174394Y-63127259D01*
X160072661Y-63100000D01*
X160066446Y-63100000D01*
X160745922Y-62420524D01*
X160745921Y-62420523D01*
X160701359Y-62388147D01*
X160701350Y-62388141D01*
X160519031Y-62295244D01*
X160324417Y-62232009D01*
X160122317Y-62200000D01*
X159917683Y-62200000D01*
X159715582Y-62232009D01*
X159520968Y-62295244D01*
X159338644Y-62388143D01*
X159294077Y-62420523D01*
X159294077Y-62420524D01*
X159973554Y-63100000D01*
X159967339Y-63100000D01*
X159865606Y-63127259D01*
X159774394Y-63179920D01*
X159699920Y-63254394D01*
X159647259Y-63345606D01*
X159620000Y-63447339D01*
X159620000Y-63453553D01*
X158940524Y-62774077D01*
X158902719Y-62777053D01*
X158834341Y-62762689D01*
X158784584Y-62713638D01*
X158782110Y-62708949D01*
X158778101Y-62700942D01*
X158754814Y-62630666D01*
X158662712Y-62481344D01*
X158538656Y-62357288D01*
X158389334Y-62265186D01*
X158222797Y-62210001D01*
X158222795Y-62210000D01*
X158120016Y-62199500D01*
X158120009Y-62199500D01*
X158082938Y-62199500D01*
X158015899Y-62179815D01*
X157970144Y-62127011D01*
X157960200Y-62057853D01*
X157989225Y-61994297D01*
X157995257Y-61987819D01*
X159814127Y-60168949D01*
X161752382Y-58230693D01*
X161785470Y-58208596D01*
X161784877Y-58207432D01*
X161789216Y-58205220D01*
X161789219Y-58205220D01*
X161971610Y-58112287D01*
X162029080Y-58070533D01*
X162137213Y-57991971D01*
X162137215Y-57991968D01*
X162137219Y-57991966D01*
X162281966Y-57847219D01*
X162281968Y-57847215D01*
X162281971Y-57847213D01*
X162361037Y-57738386D01*
X162402287Y-57681610D01*
X162495220Y-57499219D01*
X162558477Y-57304534D01*
X162590500Y-57102352D01*
X162590500Y-56897648D01*
X162568717Y-56760115D01*
X162558477Y-56695465D01*
X162527458Y-56600000D01*
X162495220Y-56500781D01*
X162495218Y-56500778D01*
X162495218Y-56500776D01*
X162444736Y-56401701D01*
X162402287Y-56318390D01*
X162370177Y-56274194D01*
X162281971Y-56152786D01*
X162137213Y-56008028D01*
X161971613Y-55887715D01*
X161971612Y-55887714D01*
X161971610Y-55887713D01*
X161914653Y-55858691D01*
X161789223Y-55794781D01*
X161594534Y-55731522D01*
X161419995Y-55703878D01*
X161392352Y-55699500D01*
X161187648Y-55699500D01*
X161163329Y-55703351D01*
X160985465Y-55731522D01*
X160790776Y-55794781D01*
X160608386Y-55887715D01*
X160442786Y-56008028D01*
X160298028Y-56152786D01*
X160177715Y-56318386D01*
X160084781Y-56500778D01*
X160021522Y-56695467D01*
X160017585Y-56720325D01*
X159987653Y-56783459D01*
X159982793Y-56788604D01*
X155144272Y-61627127D01*
X155017891Y-61753507D01*
X155017890Y-61753508D01*
X154912833Y-61898105D01*
X154837280Y-62046387D01*
X154789305Y-62097183D01*
X154721484Y-62113978D01*
X154690054Y-62107609D01*
X154690035Y-62107693D01*
X154687449Y-62107082D01*
X154683462Y-62106274D01*
X154682991Y-62106098D01*
X154682481Y-62105908D01*
X154622883Y-62099501D01*
X154622881Y-62099500D01*
X154622873Y-62099500D01*
X154622864Y-62099500D01*
X152727129Y-62099500D01*
X152727123Y-62099501D01*
X152667516Y-62105908D01*
X152532671Y-62156202D01*
X152532664Y-62156206D01*
X152417455Y-62242452D01*
X152417452Y-62242455D01*
X152331206Y-62357664D01*
X152331203Y-62357669D01*
X152301398Y-62437581D01*
X152259526Y-62493514D01*
X152194062Y-62517931D01*
X152125789Y-62503079D01*
X152097535Y-62481928D01*
X152047363Y-62431756D01*
X152047358Y-62431752D01*
X151869025Y-62302187D01*
X151869024Y-62302186D01*
X151869022Y-62302185D01*
X151796406Y-62265185D01*
X151672606Y-62202104D01*
X151672603Y-62202103D01*
X151462952Y-62133985D01*
X151398031Y-62123702D01*
X151334896Y-62093772D01*
X151329749Y-62088910D01*
X151031819Y-61790979D01*
X150998334Y-61729656D01*
X150995500Y-61703298D01*
X150995500Y-59085821D01*
X151009016Y-59029525D01*
X151065217Y-58919225D01*
X151065218Y-58919223D01*
X151065220Y-58919219D01*
X151128477Y-58724534D01*
X151160500Y-58522352D01*
X151160500Y-58317648D01*
X151128477Y-58115466D01*
X151128476Y-58115462D01*
X151128476Y-58115461D01*
X151113878Y-58070533D01*
X151065218Y-57920776D01*
X151016349Y-57824867D01*
X150972287Y-57738390D01*
X150963228Y-57725921D01*
X150851971Y-57572786D01*
X150707213Y-57428028D01*
X150541613Y-57307715D01*
X150541612Y-57307714D01*
X150541610Y-57307713D01*
X150447511Y-57259767D01*
X150359223Y-57214781D01*
X150164534Y-57151522D01*
X149989995Y-57123878D01*
X149962352Y-57119500D01*
X149757648Y-57119500D01*
X149733329Y-57123351D01*
X149555465Y-57151522D01*
X149360776Y-57214781D01*
X149178386Y-57307715D01*
X149012786Y-57428028D01*
X148868028Y-57572786D01*
X148747715Y-57738386D01*
X148654781Y-57920776D01*
X148591522Y-58115465D01*
X148559500Y-58317648D01*
X148559500Y-58522351D01*
X148591522Y-58724534D01*
X148654782Y-58919225D01*
X148710984Y-59029525D01*
X148724500Y-59085821D01*
X148724500Y-62314370D01*
X148750946Y-62481344D01*
X148752459Y-62490897D01*
X148761243Y-62517931D01*
X148783892Y-62587636D01*
X148807689Y-62660878D01*
X148807691Y-62660881D01*
X148888833Y-62820132D01*
X148946854Y-62899991D01*
X148993888Y-62964727D01*
X149723910Y-63694749D01*
X149757395Y-63756072D01*
X149758702Y-63763031D01*
X149768985Y-63827952D01*
X149837103Y-64037603D01*
X149837104Y-64037606D01*
X149905122Y-64171096D01*
X149933057Y-64225921D01*
X149937187Y-64234025D01*
X150015355Y-64341615D01*
X150038835Y-64407421D01*
X150023009Y-64475475D01*
X149972904Y-64524170D01*
X149915037Y-64538500D01*
X147475702Y-64538500D01*
X147408663Y-64518815D01*
X147388021Y-64502181D01*
X145050595Y-62164755D01*
X142708754Y-59822915D01*
X142675270Y-59761593D01*
X142680254Y-59691901D01*
X142722126Y-59635968D01*
X142740141Y-59624750D01*
X142921610Y-59532287D01*
X142942770Y-59516913D01*
X143087213Y-59411971D01*
X143087215Y-59411968D01*
X143087219Y-59411966D01*
X143231966Y-59267219D01*
X143231968Y-59267215D01*
X143231971Y-59267213D01*
X143284732Y-59194590D01*
X143352287Y-59101610D01*
X143445220Y-58919219D01*
X143508477Y-58724534D01*
X143540500Y-58522352D01*
X143540500Y-58317648D01*
X143508477Y-58115466D01*
X143508476Y-58115464D01*
X143445218Y-57920776D01*
X143396349Y-57824867D01*
X143352287Y-57738390D01*
X143343228Y-57725921D01*
X143231971Y-57572786D01*
X143087213Y-57428028D01*
X142921613Y-57307715D01*
X142921612Y-57307714D01*
X142921610Y-57307713D01*
X142827511Y-57259767D01*
X142739223Y-57214781D01*
X142621474Y-57176522D01*
X142610071Y-57169534D01*
X142600366Y-57167423D01*
X142572112Y-57146272D01*
X142323522Y-56897682D01*
X152370000Y-56897682D01*
X152370000Y-57102317D01*
X152402009Y-57304417D01*
X152465244Y-57499031D01*
X152558141Y-57681350D01*
X152558147Y-57681359D01*
X152590523Y-57725921D01*
X152590524Y-57725922D01*
X153270000Y-57046446D01*
X153270000Y-57052661D01*
X153297259Y-57154394D01*
X153349920Y-57245606D01*
X153424394Y-57320080D01*
X153515606Y-57372741D01*
X153617339Y-57400000D01*
X153623553Y-57400000D01*
X152944076Y-58079474D01*
X152988650Y-58111859D01*
X153170968Y-58204755D01*
X153365582Y-58267990D01*
X153567683Y-58300000D01*
X153772317Y-58300000D01*
X153974417Y-58267990D01*
X154169031Y-58204755D01*
X154351349Y-58111859D01*
X154395921Y-58079474D01*
X153716447Y-57400000D01*
X153722661Y-57400000D01*
X153824394Y-57372741D01*
X153915606Y-57320080D01*
X153990080Y-57245606D01*
X154042741Y-57154394D01*
X154070000Y-57052661D01*
X154070000Y-57046448D01*
X154749474Y-57725922D01*
X154749474Y-57725921D01*
X154781859Y-57681349D01*
X154874755Y-57499031D01*
X154937990Y-57304417D01*
X154970000Y-57102317D01*
X154970000Y-56897682D01*
X154937990Y-56695582D01*
X154874755Y-56500968D01*
X154781859Y-56318650D01*
X154749474Y-56274077D01*
X154749474Y-56274076D01*
X154070000Y-56953551D01*
X154070000Y-56947339D01*
X154042741Y-56845606D01*
X153990080Y-56754394D01*
X153915606Y-56679920D01*
X153824394Y-56627259D01*
X153722661Y-56600000D01*
X153716446Y-56600000D01*
X154395922Y-55920524D01*
X154395921Y-55920523D01*
X154351359Y-55888147D01*
X154351350Y-55888141D01*
X154169031Y-55795244D01*
X153974417Y-55732009D01*
X153772317Y-55700000D01*
X153567683Y-55700000D01*
X153365582Y-55732009D01*
X153170968Y-55795244D01*
X152988644Y-55888143D01*
X152944077Y-55920523D01*
X152944077Y-55920524D01*
X153623554Y-56600000D01*
X153617339Y-56600000D01*
X153515606Y-56627259D01*
X153424394Y-56679920D01*
X153349920Y-56754394D01*
X153297259Y-56845606D01*
X153270000Y-56947339D01*
X153270000Y-56953553D01*
X152590524Y-56274077D01*
X152590523Y-56274077D01*
X152558143Y-56318644D01*
X152465244Y-56500968D01*
X152402009Y-56695582D01*
X152370000Y-56897682D01*
X142323522Y-56897682D01*
X140871819Y-55445979D01*
X140838334Y-55384656D01*
X140835500Y-55358298D01*
X140835500Y-53840701D01*
X140855185Y-53773662D01*
X140907989Y-53727907D01*
X140977147Y-53717963D01*
X141040703Y-53746988D01*
X141047176Y-53753015D01*
X141500271Y-54206111D01*
X141561118Y-54250319D01*
X141644868Y-54311167D01*
X141804119Y-54392309D01*
X141804121Y-54392310D01*
X141962670Y-54443825D01*
X141974103Y-54447540D01*
X142150634Y-54475500D01*
X146965110Y-54475500D01*
X147032149Y-54495185D01*
X147070646Y-54534400D01*
X147147288Y-54658656D01*
X147271344Y-54782712D01*
X147420665Y-54874814D01*
X147587202Y-54929999D01*
X147689990Y-54940500D01*
X147689995Y-54940500D01*
X149490005Y-54940500D01*
X149490010Y-54940500D01*
X149592798Y-54929999D01*
X149759335Y-54874814D01*
X149908656Y-54782712D01*
X150032712Y-54658656D01*
X150124814Y-54509335D01*
X150179999Y-54342798D01*
X150190500Y-54240010D01*
X150190500Y-53214071D01*
X154610000Y-53214071D01*
X154610000Y-53465928D01*
X154649397Y-53714669D01*
X154727219Y-53954184D01*
X154841557Y-54178583D01*
X154915748Y-54280697D01*
X154915748Y-54280698D01*
X155686212Y-53510234D01*
X155697482Y-53552292D01*
X155769890Y-53677708D01*
X155872292Y-53780110D01*
X155997708Y-53852518D01*
X156039765Y-53863787D01*
X155269300Y-54634250D01*
X155371416Y-54708442D01*
X155595815Y-54822780D01*
X155835330Y-54900602D01*
X156084072Y-54940000D01*
X156335928Y-54940000D01*
X156584669Y-54900602D01*
X156824184Y-54822780D01*
X157048575Y-54708446D01*
X157048581Y-54708442D01*
X157150697Y-54634250D01*
X157150698Y-54634250D01*
X156380234Y-53863787D01*
X156422292Y-53852518D01*
X156547708Y-53780110D01*
X156650110Y-53677708D01*
X156722518Y-53552292D01*
X156733787Y-53510235D01*
X157504250Y-54280698D01*
X157504250Y-54280697D01*
X157578442Y-54178581D01*
X157578446Y-54178575D01*
X157692780Y-53954184D01*
X157770602Y-53714669D01*
X157810000Y-53465928D01*
X157810000Y-53214071D01*
X157770602Y-52965330D01*
X157692780Y-52725815D01*
X157578442Y-52501416D01*
X157504250Y-52399301D01*
X157504250Y-52399300D01*
X156733787Y-53169764D01*
X156722518Y-53127708D01*
X156650110Y-53002292D01*
X156547708Y-52899890D01*
X156422292Y-52827482D01*
X156380232Y-52816212D01*
X157150698Y-52045748D01*
X157048583Y-51971557D01*
X156824184Y-51857219D01*
X156584669Y-51779397D01*
X156335928Y-51740000D01*
X156084072Y-51740000D01*
X155835330Y-51779397D01*
X155595815Y-51857219D01*
X155371413Y-51971559D01*
X155269301Y-52045747D01*
X155269300Y-52045748D01*
X156039765Y-52816212D01*
X155997708Y-52827482D01*
X155872292Y-52899890D01*
X155769890Y-53002292D01*
X155697482Y-53127708D01*
X155686212Y-53169765D01*
X154915748Y-52399300D01*
X154915747Y-52399301D01*
X154841559Y-52501413D01*
X154727219Y-52725815D01*
X154649397Y-52965330D01*
X154610000Y-53214071D01*
X150190500Y-53214071D01*
X150190500Y-52439990D01*
X150179999Y-52337202D01*
X150124814Y-52170665D01*
X150032712Y-52021344D01*
X149908656Y-51897288D01*
X149759335Y-51805186D01*
X149592798Y-51750001D01*
X149592796Y-51750000D01*
X149490017Y-51739500D01*
X149490010Y-51739500D01*
X147689990Y-51739500D01*
X147689982Y-51739500D01*
X147587203Y-51750000D01*
X147587202Y-51750001D01*
X147504669Y-51777349D01*
X147420667Y-51805185D01*
X147420662Y-51805187D01*
X147271342Y-51897289D01*
X147147289Y-52021342D01*
X147147288Y-52021344D01*
X147070646Y-52145598D01*
X147018701Y-52192321D01*
X146965110Y-52204500D01*
X142761702Y-52204500D01*
X142694663Y-52184815D01*
X142674021Y-52168181D01*
X141336819Y-50830979D01*
X141303334Y-50769656D01*
X141300500Y-50743298D01*
X141300500Y-50674038D01*
X141261090Y-50425215D01*
X141183241Y-50185621D01*
X141183239Y-50185618D01*
X141183239Y-50185616D01*
X141141747Y-50104184D01*
X141068870Y-49961155D01*
X141049952Y-49935117D01*
X140920798Y-49757350D01*
X140920794Y-49757345D01*
X140742654Y-49579205D01*
X140742649Y-49579201D01*
X140538848Y-49431132D01*
X140538847Y-49431131D01*
X140538845Y-49431130D01*
X140468747Y-49395413D01*
X140314383Y-49316760D01*
X140074785Y-49238910D01*
X139825962Y-49199500D01*
X139574038Y-49199500D01*
X139449626Y-49219205D01*
X139325214Y-49238910D01*
X139085616Y-49316760D01*
X138861151Y-49431132D01*
X138657350Y-49579201D01*
X138657345Y-49579205D01*
X138479205Y-49757345D01*
X138479201Y-49757350D01*
X138331132Y-49961151D01*
X138216760Y-50185616D01*
X138138910Y-50425214D01*
X138099500Y-50674038D01*
X138099500Y-50925961D01*
X138138910Y-51174785D01*
X138216760Y-51414383D01*
X138331132Y-51638848D01*
X138479201Y-51842649D01*
X138479205Y-51842654D01*
X138528181Y-51891630D01*
X138561666Y-51952953D01*
X138564500Y-51979311D01*
X138564500Y-55969370D01*
X138570623Y-56008028D01*
X138592459Y-56145897D01*
X138612460Y-56207453D01*
X138634146Y-56274194D01*
X138647688Y-56315875D01*
X138647691Y-56315881D01*
X138728833Y-56475132D01*
X138800267Y-56573452D01*
X138833888Y-56619727D01*
X139286980Y-57072819D01*
X139320465Y-57134142D01*
X139315481Y-57203834D01*
X139273609Y-57259767D01*
X139208145Y-57284184D01*
X139199299Y-57284500D01*
X131602366Y-57284500D01*
X131423634Y-57284500D01*
X131364790Y-57293820D01*
X131247101Y-57312460D01*
X131247098Y-57312460D01*
X131077121Y-57367689D01*
X131077118Y-57367691D01*
X130917867Y-57448833D01*
X130773270Y-57553890D01*
X130646890Y-57680270D01*
X130541833Y-57824867D01*
X130460691Y-57984118D01*
X130460689Y-57984121D01*
X130405460Y-58154098D01*
X130405460Y-58154101D01*
X130377500Y-58330634D01*
X130040500Y-58330634D01*
X130040500Y-46344500D01*
X130060185Y-46277461D01*
X130112989Y-46231706D01*
X130164500Y-46220500D01*
X177175500Y-46220500D01*
X177242539Y-46240185D01*
G37*
%TD.AperFunction*%
%TD*%
M02*
