M48
; DRILL file {KiCad 9.0.7} date 2026-02-12T23:23:24-0500
; FORMAT={-:-/ absolute / metric / decimal}
; #@! TF.CreationDate,2026-02-12T23:23:24-05:00
; #@! TF.GenerationSoftware,Kicad,Pcbnew,9.0.7
; #@! TF.FileFunction,MixedPlating,1,2
FMAT,2
METRIC
; #@! TA.AperFunction,Plated,PTH,ComponentDrill
T1C0.600
; #@! TA.AperFunction,Plated,PTH,ComponentDrill
T2C0.800
; #@! TA.AperFunction,Plated,PTH,ComponentDrill
T3C0.900
; #@! TA.AperFunction,Plated,PTH,ComponentDrill
T4C1.100
; #@! TA.AperFunction,Plated,PTH,ComponentDrill
T5C1.200
%
G90
G05
T1
X135.16Y-71.12
X137.16Y-63.5
X137.16Y-71.12
X139.16Y-63.5
X158.02Y-78.74
X160.02Y-78.74
T2
X134.62Y-77.47
X134.62Y-85.09
X139.7Y-77.47
X139.7Y-85.09
X142.24Y-58.42
X142.24Y-67.31
X142.24Y-74.93
X144.78Y-71.12
X144.78Y-77.47
X144.78Y-85.09
X147.32Y-71.12
X149.86Y-58.42
X149.86Y-71.12
X149.9Y-78.74
X150.38Y-86.38
X150.38Y-94.0
X152.4Y-78.74
X152.92Y-86.38
X152.92Y-94.0
X153.67Y-57.0
X154.94Y-71.12
X155.46Y-86.38
X155.46Y-94.0
X157.44Y-71.12
X157.52Y-63.5
X158.0Y-86.38
X158.0Y-94.0
X160.02Y-63.5
X161.29Y-57.0
X162.56Y-66.04
X162.56Y-68.58
X162.56Y-71.12
X162.56Y-88.9
X165.1Y-76.2
X165.1Y-83.82
X170.18Y-66.04
X170.18Y-68.58
X170.18Y-71.12
X170.18Y-76.2
X170.18Y-83.82
X170.18Y-88.9
X170.22Y-60.96
X172.72Y-60.96
T3
X151.135Y-63.5
X153.675Y-63.5
T4
X148.59Y-53.34
X156.21Y-53.34
T5
X139.7Y-50.8
X144.78Y-99.06
X149.86Y-99.06
X154.94Y-99.06
X160.02Y-99.06
X165.1Y-50.8
M30
