%TF.GenerationSoftware,KiCad,Pcbnew,9.0.7*%
%TF.CreationDate,2026-02-12T23:19:41-05:00*%
%TF.ProjectId,Pedal,50656461-6c2e-46b6-9963-61645f706362,rev?*%
%TF.SameCoordinates,Original*%
%TF.FileFunction,Soldermask,Top*%
%TF.FilePolarity,Negative*%
%FSLAX46Y46*%
G04 Gerber Fmt 4.6, Leading zero omitted, Abs format (unit mm)*
G04 Created by KiCad (PCBNEW 9.0.7) date 2026-02-12 23:19:41*
%MOMM*%
%LPD*%
G01*
G04 APERTURE LIST*
G04 Aperture macros list*
%AMRoundRect*
0 Rectangle with rounded corners*
0 $1 Rounding radius*
0 $2 $3 $4 $5 $6 $7 $8 $9 X,Y pos of 4 corners*
0 Add a 4 corners polygon primitive as box body*
4,1,4,$2,$3,$4,$5,$6,$7,$8,$9,$2,$3,0*
0 Add four circle primitives for the rounded corners*
1,1,$1+$1,$2,$3*
1,1,$1+$1,$4,$5*
1,1,$1+$1,$6,$7*
1,1,$1+$1,$8,$9*
0 Add four rect primitives between the rounded corners*
20,1,$1+$1,$2,$3,$4,$5,0*
20,1,$1+$1,$4,$5,$6,$7,0*
20,1,$1+$1,$6,$7,$8,$9,0*
20,1,$1+$1,$8,$9,$2,$3,0*%
G04 Aperture macros list end*
%ADD10C,1.600000*%
%ADD11RoundRect,0.250000X-0.550000X0.550000X-0.550000X-0.550000X0.550000X-0.550000X0.550000X0.550000X0*%
%ADD12C,2.200000*%
%ADD13C,1.200000*%
%ADD14RoundRect,0.250000X-0.550000X-0.550000X0.550000X-0.550000X0.550000X0.550000X-0.550000X0.550000X0*%
%ADD15RoundRect,0.249999X-0.850001X-0.850001X0.850001X-0.850001X0.850001X0.850001X-0.850001X0.850001X0*%
%ADD16RoundRect,0.250000X0.550000X-0.550000X0.550000X0.550000X-0.550000X0.550000X-0.550000X-0.550000X0*%
%ADD17C,1.440000*%
%ADD18R,1.800000X1.800000*%
%ADD19C,1.800000*%
G04 APERTURE END LIST*
D10*
%TO.C,U1*%
X158000000Y-94000000D03*
X155460000Y-94000000D03*
X152920000Y-94000000D03*
X150380000Y-94000000D03*
X150380000Y-86380000D03*
X152920000Y-86380000D03*
X155460000Y-86380000D03*
D11*
X158000000Y-86380000D03*
%TD*%
D12*
%TO.C,H6*%
X160020000Y-99060000D03*
%TD*%
%TO.C,H5*%
X154940000Y-99060000D03*
%TD*%
%TO.C,H4*%
X149860000Y-99060000D03*
%TD*%
%TO.C,H3*%
X144780000Y-99060000D03*
%TD*%
%TO.C,H2*%
X165100000Y-50800000D03*
%TD*%
%TO.C,H1*%
X139700000Y-50800000D03*
%TD*%
D10*
%TO.C,R4*%
X153670000Y-57000000D03*
X161290000Y-57000000D03*
%TD*%
%TO.C,R1*%
X144780000Y-85090000D03*
X144780000Y-77470000D03*
%TD*%
D13*
%TO.C,C4*%
X137160000Y-63500000D03*
X139160000Y-63500000D03*
%TD*%
D14*
%TO.C,C7*%
X154940000Y-71120000D03*
D10*
X157440000Y-71120000D03*
%TD*%
%TO.C,R5*%
X149860000Y-58420000D03*
X142240000Y-58420000D03*
%TD*%
D14*
%TO.C,C1*%
X149900000Y-78740000D03*
D10*
X152400000Y-78740000D03*
%TD*%
D13*
%TO.C,C5*%
X135160000Y-71120000D03*
X137160000Y-71120000D03*
%TD*%
D14*
%TO.C,C3*%
X170220000Y-60960000D03*
D10*
X172720000Y-60960000D03*
%TD*%
D15*
%TO.C,D7*%
X148590000Y-53340000D03*
D12*
X156210000Y-53340000D03*
%TD*%
D13*
%TO.C,C6*%
X158020000Y-78740000D03*
X160020000Y-78740000D03*
%TD*%
D14*
%TO.C,C2*%
X157520000Y-63500000D03*
D10*
X160020000Y-63500000D03*
%TD*%
D16*
%TO.C,D2*%
X170180000Y-83820000D03*
D10*
X170180000Y-76200000D03*
%TD*%
%TO.C,R6*%
X134620000Y-77470000D03*
X134620000Y-85090000D03*
%TD*%
%TO.C,R7*%
X139700000Y-85090000D03*
X139700000Y-77470000D03*
%TD*%
%TO.C,R3*%
X170180000Y-88900000D03*
X162560000Y-88900000D03*
%TD*%
%TO.C,R2*%
X142240000Y-74930000D03*
X142240000Y-67310000D03*
%TD*%
D11*
%TO.C,D1*%
X165100000Y-76200000D03*
D10*
X165100000Y-83820000D03*
%TD*%
D17*
%TO.C,RV2*%
X162560000Y-71120000D03*
X162560000Y-68580000D03*
X162560000Y-66040000D03*
%TD*%
D18*
%TO.C,D4*%
X153675000Y-63500000D03*
D19*
X151135000Y-63500000D03*
%TD*%
D17*
%TO.C,RV1*%
X170180000Y-66040000D03*
X170180000Y-68580000D03*
X170180000Y-71120000D03*
%TD*%
%TO.C,RV3*%
X149860000Y-71120000D03*
X147320000Y-71120000D03*
X144780000Y-71120000D03*
%TD*%
M02*
