%TF.GenerationSoftware,KiCad,Pcbnew,9.0.7*%
%TF.CreationDate,2026-02-12T23:19:41-05:00*%
%TF.ProjectId,Pedal,50656461-6c2e-46b6-9963-61645f706362,rev?*%
%TF.SameCoordinates,Original*%
%TF.FileFunction,Copper,L2,Bot*%
%TF.FilePolarity,Positive*%
%FSLAX46Y46*%
G04 Gerber Fmt 4.6, Leading zero omitted, Abs format (unit mm)*
G04 Created by KiCad (PCBNEW 9.0.7) date 2026-02-12 23:19:41*
%MOMM*%
%LPD*%
G01*
G04 APERTURE LIST*
G04 Aperture macros list*
%AMRoundRect*
0 Rectangle with rounded corners*
0 $1 Rounding radius*
0 $2 $3 $4 $5 $6 $7 $8 $9 X,Y pos of 4 corners*
0 Add a 4 corners polygon primitive as box body*
4,1,4,$2,$3,$4,$5,$6,$7,$8,$9,$2,$3,0*
0 Add four circle primitives for the rounded corners*
1,1,$1+$1,$2,$3*
1,1,$1+$1,$4,$5*
1,1,$1+$1,$6,$7*
1,1,$1+$1,$8,$9*
0 Add four rect primitives between the rounded corners*
20,1,$1+$1,$2,$3,$4,$5,0*
20,1,$1+$1,$4,$5,$6,$7,0*
20,1,$1+$1,$6,$7,$8,$9,0*
20,1,$1+$1,$8,$9,$2,$3,0*%
G04 Aperture macros list end*
%TA.AperFunction,ComponentPad*%
%ADD10C,1.600000*%
%TD*%
%TA.AperFunction,ComponentPad*%
%ADD11RoundRect,0.250000X-0.550000X0.550000X-0.550000X-0.550000X0.550000X-0.550000X0.550000X0.550000X0*%
%TD*%
%TA.AperFunction,ComponentPad*%
%ADD12C,2.200000*%
%TD*%
%TA.AperFunction,ComponentPad*%
%ADD13C,1.200000*%
%TD*%
%TA.AperFunction,ComponentPad*%
%ADD14RoundRect,0.250000X-0.550000X-0.550000X0.550000X-0.550000X0.550000X0.550000X-0.550000X0.550000X0*%
%TD*%
%TA.AperFunction,ComponentPad*%
%ADD15RoundRect,0.249999X-0.850001X-0.850001X0.850001X-0.850001X0.850001X0.850001X-0.850001X0.850001X0*%
%TD*%
%TA.AperFunction,ComponentPad*%
%ADD16RoundRect,0.250000X0.550000X-0.550000X0.550000X0.550000X-0.550000X0.550000X-0.550000X-0.550000X0*%
%TD*%
%TA.AperFunction,ComponentPad*%
%ADD17C,1.440000*%
%TD*%
%TA.AperFunction,ComponentPad*%
%ADD18R,1.800000X1.800000*%
%TD*%
%TA.AperFunction,ComponentPad*%
%ADD19C,1.800000*%
%TD*%
%TA.AperFunction,Conductor*%
%ADD20C,1.270000*%
%TD*%
G04 APERTURE END LIST*
D10*
%TO.P,U1,8*%
%TO.N,VCC*%
X158000000Y-94000000D03*
%TO.P,U1,7*%
%TO.N,N/C*%
X155460000Y-94000000D03*
%TO.P,U1,6*%
X152920000Y-94000000D03*
%TO.P,U1,5*%
X150380000Y-94000000D03*
%TO.P,U1,4*%
%TO.N,GND*%
X150380000Y-86380000D03*
%TO.P,U1,3,+*%
%TO.N,Net-(U1A-+)*%
X152920000Y-86380000D03*
%TO.P,U1,2,-*%
%TO.N,Net-(D1-K)*%
X155460000Y-86380000D03*
D11*
%TO.P,U1,1*%
%TO.N,Net-(D1-A)*%
X158000000Y-86380000D03*
%TD*%
D12*
%TO.P,H6,1,1*%
%TO.N,Net-(H6-Pad1)*%
X160020000Y-99060000D03*
%TD*%
%TO.P,H5,1,1*%
%TO.N,GND*%
X154940000Y-99060000D03*
%TD*%
%TO.P,H4,1,1*%
%TO.N,Net-(D4-K)*%
X149860000Y-99060000D03*
%TD*%
%TO.P,H3,1,1*%
%TO.N,Net-(H3-Pad1)*%
X144780000Y-99060000D03*
%TD*%
%TO.P,H2,1,1*%
%TO.N,GND*%
X165100000Y-50800000D03*
%TD*%
%TO.P,H1,1,1*%
%TO.N,Net-(D7-K)*%
X139700000Y-50800000D03*
%TD*%
D10*
%TO.P,R4,1*%
%TO.N,GND*%
X153670000Y-57000000D03*
%TO.P,R4,2*%
%TO.N,VCC*%
X161290000Y-57000000D03*
%TD*%
%TO.P,R1,1*%
%TO.N,Net-(H3-Pad1)*%
X144780000Y-85090000D03*
%TO.P,R1,2*%
%TO.N,Net-(C1-Pad1)*%
X144780000Y-77470000D03*
%TD*%
D13*
%TO.P,C4,1*%
%TO.N,Net-(C4-Pad1)*%
X137160000Y-63500000D03*
%TO.P,C4,2*%
%TO.N,GND*%
X139160000Y-63500000D03*
%TD*%
D14*
%TO.P,C7,1*%
%TO.N,VCC*%
X154940000Y-71120000D03*
D10*
%TO.P,C7,2*%
%TO.N,GND*%
X157440000Y-71120000D03*
%TD*%
%TO.P,R5,1*%
%TO.N,Net-(D4-A)*%
X149860000Y-58420000D03*
%TO.P,R5,2*%
%TO.N,Net-(D7-K)*%
X142240000Y-58420000D03*
%TD*%
D14*
%TO.P,C1,1*%
%TO.N,Net-(C1-Pad1)*%
X149900000Y-78740000D03*
D10*
%TO.P,C1,2*%
%TO.N,Net-(U1A-+)*%
X152400000Y-78740000D03*
%TD*%
D13*
%TO.P,C5,1*%
%TO.N,VCC*%
X135160000Y-71120000D03*
%TO.P,C5,2*%
%TO.N,GND*%
X137160000Y-71120000D03*
%TD*%
D14*
%TO.P,C3,1*%
%TO.N,Net-(C3-Pad1)*%
X170220000Y-60960000D03*
D10*
%TO.P,C3,2*%
%TO.N,GND*%
X172720000Y-60960000D03*
%TD*%
D15*
%TO.P,D7,1,K*%
%TO.N,Net-(D7-K)*%
X148590000Y-53340000D03*
D12*
%TO.P,D7,2,A*%
%TO.N,GND*%
X156210000Y-53340000D03*
%TD*%
D13*
%TO.P,C6,1*%
%TO.N,Net-(C6-Pad1)*%
X158020000Y-78740000D03*
%TO.P,C6,2*%
%TO.N,Net-(D1-A)*%
X160020000Y-78740000D03*
%TD*%
D14*
%TO.P,C2,1*%
%TO.N,Net-(C2-Pad1)*%
X157520000Y-63500000D03*
D10*
%TO.P,C2,2*%
%TO.N,GND*%
X160020000Y-63500000D03*
%TD*%
D16*
%TO.P,D2,1,K*%
%TO.N,Net-(D1-A)*%
X170180000Y-83820000D03*
D10*
%TO.P,D2,2,A*%
%TO.N,Net-(D1-K)*%
X170180000Y-76200000D03*
%TD*%
%TO.P,R6,1*%
%TO.N,Net-(C4-Pad1)*%
X134620000Y-77470000D03*
%TO.P,R6,2*%
%TO.N,VCC*%
X134620000Y-85090000D03*
%TD*%
%TO.P,R7,1*%
%TO.N,GND*%
X139700000Y-85090000D03*
%TO.P,R7,2*%
%TO.N,Net-(C4-Pad1)*%
X139700000Y-77470000D03*
%TD*%
%TO.P,R3,1*%
%TO.N,Net-(D1-K)*%
X170180000Y-88900000D03*
%TO.P,R3,2*%
%TO.N,Net-(C2-Pad1)*%
X162560000Y-88900000D03*
%TD*%
%TO.P,R2,1*%
%TO.N,Net-(U1A-+)*%
X142240000Y-74930000D03*
%TO.P,R2,2*%
%TO.N,Net-(C4-Pad1)*%
X142240000Y-67310000D03*
%TD*%
D11*
%TO.P,D1,1,K*%
%TO.N,Net-(D1-K)*%
X165100000Y-76200000D03*
D10*
%TO.P,D1,2,A*%
%TO.N,Net-(D1-A)*%
X165100000Y-83820000D03*
%TD*%
D17*
%TO.P,RV2,1,1*%
%TO.N,Net-(D1-A)*%
X162560000Y-71120000D03*
%TO.P,RV2,2,2*%
X162560000Y-68580000D03*
%TO.P,RV2,3,3*%
%TO.N,Net-(C2-Pad1)*%
X162560000Y-66040000D03*
%TD*%
D18*
%TO.P,D4,1,K*%
%TO.N,Net-(D4-K)*%
X153675000Y-63500000D03*
D19*
%TO.P,D4,2,A*%
%TO.N,Net-(D4-A)*%
X151135000Y-63500000D03*
%TD*%
D17*
%TO.P,RV1,1,1*%
%TO.N,Net-(RV1-Pad1)*%
X170180000Y-66040000D03*
%TO.P,RV1,2,2*%
%TO.N,Net-(C3-Pad1)*%
X170180000Y-68580000D03*
%TO.P,RV1,3,3*%
%TO.N,Net-(C6-Pad1)*%
X170180000Y-71120000D03*
%TD*%
%TO.P,RV3,1,1*%
%TO.N,Net-(RV1-Pad1)*%
X149860000Y-71120000D03*
%TO.P,RV3,2,2*%
%TO.N,Net-(H6-Pad1)*%
X147320000Y-71120000D03*
%TO.P,RV3,3,3*%
%TO.N,GND*%
X144780000Y-71120000D03*
%TD*%
D20*
%TO.N,VCC*%
X149500000Y-60500000D02*
X155500000Y-60500000D01*
X159000000Y-57000000D02*
X161290000Y-57000000D01*
X148236000Y-61764000D02*
X149500000Y-60500000D01*
X144485189Y-61764000D02*
X148236000Y-61764000D01*
X155500000Y-60500000D02*
X159000000Y-57000000D01*
X135160000Y-71120000D02*
X135160000Y-71089189D01*
X135160000Y-71089189D02*
X144485189Y-61764000D01*
X150415925Y-61764000D02*
X156526000Y-61764000D01*
X156526000Y-61764000D02*
X161290000Y-57000000D01*
%TO.N,Net-(RV1-Pad1)*%
X151496000Y-69484000D02*
X149860000Y-71120000D01*
X156349654Y-69484000D02*
X151496000Y-69484000D01*
X161349654Y-64484000D02*
X156349654Y-69484000D01*
X168624000Y-64484000D02*
X161349654Y-64484000D01*
X170180000Y-66040000D02*
X168624000Y-64484000D01*
%TO.N,Net-(H6-Pad1)*%
X160020000Y-94211346D02*
X160020000Y-99060000D01*
X146954000Y-85772654D02*
X150081346Y-88900000D01*
X150081346Y-88900000D02*
X159400000Y-88900000D01*
X159400000Y-88900000D02*
X160000000Y-89500000D01*
X160000000Y-89500000D02*
X160000000Y-94191346D01*
X160000000Y-94191346D02*
X160020000Y-94211346D01*
X146954000Y-71486000D02*
X146954000Y-85772654D01*
X147320000Y-71120000D02*
X146954000Y-71486000D01*
%TO.N,Net-(D1-A)*%
X160020000Y-84360000D02*
X158000000Y-86380000D01*
X160020000Y-78740000D02*
X160020000Y-84360000D01*
%TO.N,Net-(C3-Pad1)*%
X170180000Y-68580000D02*
X171736000Y-67024000D01*
X171736000Y-62476000D02*
X170220000Y-60960000D01*
X171736000Y-67024000D02*
X171736000Y-62476000D01*
%TO.N,Net-(C6-Pad1)*%
X158020000Y-77891472D02*
X164791472Y-71120000D01*
X164791472Y-71120000D02*
X170180000Y-71120000D01*
X158020000Y-78740000D02*
X158020000Y-77891472D01*
%TO.N,Net-(D1-K)*%
X171816000Y-87264000D02*
X170180000Y-88900000D01*
X170180000Y-76200000D02*
X171816000Y-77836000D01*
X171816000Y-77836000D02*
X171816000Y-87264000D01*
%TO.N,VCC*%
X150415925Y-61764000D02*
X142000000Y-70179925D01*
X142000000Y-70179925D02*
X142000000Y-71500000D01*
X142000000Y-71500000D02*
X144135483Y-73635483D01*
X144135483Y-75800863D02*
X143144000Y-76792346D01*
X144135483Y-73635483D02*
X144135483Y-75800863D01*
X143144000Y-76792346D02*
X143144000Y-85767654D01*
X143144000Y-85767654D02*
X147747346Y-90371000D01*
X149500000Y-96000000D02*
X156000000Y-96000000D01*
X147747346Y-90371000D02*
X147747346Y-94247346D01*
X156000000Y-96000000D02*
X157864173Y-94135827D01*
X147747346Y-94247346D02*
X149500000Y-96000000D01*
%TD*%
%TA.AperFunction,Conductor*%
%TO.N,GND*%
G36*
X151459474Y-87105921D02*
G01*
X151491861Y-87061347D01*
X151491861Y-87061346D01*
X151539234Y-86968371D01*
X151587208Y-86917575D01*
X151655028Y-86900779D01*
X151721164Y-86923316D01*
X151760203Y-86968369D01*
X151807713Y-87061611D01*
X151928028Y-87227213D01*
X152072786Y-87371971D01*
X152193226Y-87459474D01*
X152238390Y-87492287D01*
X152298102Y-87522712D01*
X152312435Y-87530015D01*
X152363231Y-87577990D01*
X152380026Y-87645811D01*
X152357488Y-87711946D01*
X152302773Y-87755397D01*
X152256140Y-87764500D01*
X151042760Y-87764500D01*
X150975721Y-87744815D01*
X150929966Y-87692011D01*
X150920022Y-87622853D01*
X150949047Y-87559297D01*
X150986465Y-87530015D01*
X151061349Y-87491859D01*
X151105921Y-87459474D01*
X150426446Y-86780000D01*
X150432661Y-86780000D01*
X150534394Y-86752741D01*
X150625606Y-86700080D01*
X150700080Y-86625606D01*
X150752741Y-86534394D01*
X150780000Y-86432661D01*
X150780000Y-86426447D01*
X151459474Y-87105921D01*
G37*
%TD.AperFunction*%
%TA.AperFunction,Conductor*%
G36*
X161262432Y-66244957D02*
G01*
X161294738Y-66247268D01*
X161296941Y-66248917D01*
X161299674Y-66249231D01*
X161324748Y-66269734D01*
X161350671Y-66289140D01*
X161352283Y-66292248D01*
X161353763Y-66293459D01*
X161369335Y-66325132D01*
X161428916Y-66508506D01*
X161428918Y-66508509D01*
X161516135Y-66679681D01*
X161629055Y-66835102D01*
X161764898Y-66970945D01*
X161920319Y-67083865D01*
X161978216Y-67113365D01*
X162091493Y-67171083D01*
X162156081Y-67192069D01*
X162213756Y-67231506D01*
X162240955Y-67295865D01*
X162229041Y-67364711D01*
X162181797Y-67416187D01*
X162156081Y-67427931D01*
X162091493Y-67448916D01*
X161920318Y-67536135D01*
X161831645Y-67600560D01*
X161764898Y-67649055D01*
X161764896Y-67649057D01*
X161764895Y-67649057D01*
X161629057Y-67784895D01*
X161629057Y-67784896D01*
X161629055Y-67784898D01*
X161611385Y-67809219D01*
X161516135Y-67940318D01*
X161428916Y-68111493D01*
X161369553Y-68294197D01*
X161339500Y-68483945D01*
X161339500Y-68676054D01*
X161369553Y-68865802D01*
X161428916Y-69048506D01*
X161444324Y-69078745D01*
X161516135Y-69219681D01*
X161629055Y-69375102D01*
X161764898Y-69510945D01*
X161920319Y-69623865D01*
X162011729Y-69670441D01*
X162091493Y-69711083D01*
X162156081Y-69732069D01*
X162213756Y-69771506D01*
X162240955Y-69835865D01*
X162229041Y-69904711D01*
X162181797Y-69956187D01*
X162156081Y-69967931D01*
X162091493Y-69988916D01*
X161920318Y-70076135D01*
X161879059Y-70106112D01*
X161764898Y-70189055D01*
X161764896Y-70189057D01*
X161764895Y-70189057D01*
X161629057Y-70324895D01*
X161629057Y-70324896D01*
X161629055Y-70324898D01*
X161611209Y-70349461D01*
X161516135Y-70480318D01*
X161428916Y-70651493D01*
X161369553Y-70834197D01*
X161339500Y-71023945D01*
X161339500Y-71216054D01*
X161369553Y-71405802D01*
X161428916Y-71588506D01*
X161493436Y-71715132D01*
X161516135Y-71759681D01*
X161629055Y-71915102D01*
X161764898Y-72050945D01*
X161885622Y-72138656D01*
X161920323Y-72163868D01*
X161923504Y-72165817D01*
X161970383Y-72217625D01*
X161981810Y-72286554D01*
X161954157Y-72350719D01*
X161946402Y-72359229D01*
X157280272Y-77025361D01*
X157153891Y-77151741D01*
X157153890Y-77151742D01*
X157048833Y-77296339D01*
X156967690Y-77455590D01*
X156956510Y-77489997D01*
X156956511Y-77489998D01*
X156912459Y-77625573D01*
X156912457Y-77625582D01*
X156897291Y-77721344D01*
X156889770Y-77768833D01*
X156884500Y-77802106D01*
X156884500Y-78829366D01*
X156898480Y-78917631D01*
X156912460Y-79005898D01*
X156912460Y-79005901D01*
X156967689Y-79175878D01*
X156967691Y-79175881D01*
X157048833Y-79335132D01*
X157153889Y-79479728D01*
X157280272Y-79606111D01*
X157424868Y-79711167D01*
X157584119Y-79792309D01*
X157584121Y-79792310D01*
X157742670Y-79843825D01*
X157754103Y-79847540D01*
X157930634Y-79875500D01*
X157930635Y-79875500D01*
X158109365Y-79875500D01*
X158109366Y-79875500D01*
X158285897Y-79847540D01*
X158285900Y-79847539D01*
X158285901Y-79847539D01*
X158455878Y-79792310D01*
X158455878Y-79792309D01*
X158455881Y-79792309D01*
X158615132Y-79711167D01*
X158687615Y-79658503D01*
X158753419Y-79635024D01*
X158821473Y-79650849D01*
X158870169Y-79700954D01*
X158884500Y-79758822D01*
X158884500Y-83838297D01*
X158864815Y-83905336D01*
X158848181Y-83925978D01*
X157730977Y-85043181D01*
X157669654Y-85076666D01*
X157643297Y-85079500D01*
X157399999Y-85079500D01*
X157399980Y-85079501D01*
X157297203Y-85090000D01*
X157297200Y-85090001D01*
X157130668Y-85145185D01*
X157130663Y-85145187D01*
X156981342Y-85237289D01*
X156857289Y-85361342D01*
X156765187Y-85510663D01*
X156765186Y-85510666D01*
X156738045Y-85592571D01*
X156698271Y-85650016D01*
X156633755Y-85676838D01*
X156564979Y-85664522D01*
X156520021Y-85626452D01*
X156451966Y-85532781D01*
X156307219Y-85388034D01*
X156307213Y-85388028D01*
X156141613Y-85267715D01*
X156141612Y-85267714D01*
X156141610Y-85267713D01*
X156081898Y-85237288D01*
X155959223Y-85174781D01*
X155764534Y-85111522D01*
X155589995Y-85083878D01*
X155562352Y-85079500D01*
X155357648Y-85079500D01*
X155333329Y-85083351D01*
X155155465Y-85111522D01*
X154960776Y-85174781D01*
X154778386Y-85267715D01*
X154612786Y-85388028D01*
X154468028Y-85532786D01*
X154347715Y-85698386D01*
X154300485Y-85791080D01*
X154252510Y-85841876D01*
X154184689Y-85858671D01*
X154118554Y-85836134D01*
X154079515Y-85791080D01*
X154069596Y-85771613D01*
X154032287Y-85698390D01*
X154000092Y-85654077D01*
X153911971Y-85532786D01*
X153767213Y-85388028D01*
X153601613Y-85267715D01*
X153601612Y-85267714D01*
X153601610Y-85267713D01*
X153541898Y-85237288D01*
X153419223Y-85174781D01*
X153224534Y-85111522D01*
X153049995Y-85083878D01*
X153022352Y-85079500D01*
X152817648Y-85079500D01*
X152793329Y-85083351D01*
X152615465Y-85111522D01*
X152420776Y-85174781D01*
X152238386Y-85267715D01*
X152072786Y-85388028D01*
X151928028Y-85532786D01*
X151807713Y-85698388D01*
X151760203Y-85791630D01*
X151712228Y-85842426D01*
X151644407Y-85859220D01*
X151578272Y-85836682D01*
X151539234Y-85791628D01*
X151491861Y-85698652D01*
X151459474Y-85654077D01*
X151459474Y-85654076D01*
X150780000Y-86333551D01*
X150780000Y-86327339D01*
X150752741Y-86225606D01*
X150700080Y-86134394D01*
X150625606Y-86059920D01*
X150534394Y-86007259D01*
X150432661Y-85980000D01*
X150426446Y-85980000D01*
X151105922Y-85300524D01*
X151105921Y-85300523D01*
X151061359Y-85268147D01*
X151061350Y-85268141D01*
X150879031Y-85175244D01*
X150684417Y-85112009D01*
X150482317Y-85080000D01*
X150277683Y-85080000D01*
X150075582Y-85112009D01*
X149880968Y-85175244D01*
X149698644Y-85268143D01*
X149654077Y-85300523D01*
X149654077Y-85300524D01*
X150333554Y-85980000D01*
X150327339Y-85980000D01*
X150225606Y-86007259D01*
X150134394Y-86059920D01*
X150059920Y-86134394D01*
X150007259Y-86225606D01*
X149980000Y-86327339D01*
X149980000Y-86333553D01*
X149300524Y-85654077D01*
X149300523Y-85654077D01*
X149268143Y-85698644D01*
X149175244Y-85880968D01*
X149113415Y-86071255D01*
X149073977Y-86128930D01*
X149009618Y-86156128D01*
X148940771Y-86144213D01*
X148907803Y-86120617D01*
X148125819Y-85338633D01*
X148092334Y-85277310D01*
X148089500Y-85250952D01*
X148089500Y-78139983D01*
X148599500Y-78139983D01*
X148599500Y-79340001D01*
X148599501Y-79340018D01*
X148610000Y-79442796D01*
X148610001Y-79442799D01*
X148665185Y-79609331D01*
X148665187Y-79609336D01*
X148695515Y-79658505D01*
X148757288Y-79758656D01*
X148881344Y-79882712D01*
X149030666Y-79974814D01*
X149197203Y-80029999D01*
X149299991Y-80040500D01*
X150500008Y-80040499D01*
X150602797Y-80029999D01*
X150769334Y-79974814D01*
X150918656Y-79882712D01*
X151042712Y-79758656D01*
X151134814Y-79609334D01*
X151149426Y-79565237D01*
X151189195Y-79507796D01*
X151253711Y-79480972D01*
X151322487Y-79493286D01*
X151367448Y-79531358D01*
X151408032Y-79587217D01*
X151552786Y-79731971D01*
X151707749Y-79844556D01*
X151718390Y-79852287D01*
X151834607Y-79911503D01*
X151900776Y-79945218D01*
X151900778Y-79945218D01*
X151900781Y-79945220D01*
X151991856Y-79974812D01*
X152095465Y-80008477D01*
X152196557Y-80024488D01*
X152297648Y-80040500D01*
X152297649Y-80040500D01*
X152502351Y-80040500D01*
X152502352Y-80040500D01*
X152704534Y-80008477D01*
X152899219Y-79945220D01*
X153081610Y-79852287D01*
X153210482Y-79758657D01*
X153247213Y-79731971D01*
X153247215Y-79731968D01*
X153247219Y-79731966D01*
X153391966Y-79587219D01*
X153391968Y-79587215D01*
X153391971Y-79587213D01*
X153460212Y-79493286D01*
X153512287Y-79421610D01*
X153605220Y-79239219D01*
X153668477Y-79044534D01*
X153700500Y-78842352D01*
X153700500Y-78637648D01*
X153668477Y-78435466D01*
X153605220Y-78240781D01*
X153605218Y-78240778D01*
X153605218Y-78240776D01*
X153571503Y-78174607D01*
X153512287Y-78058390D01*
X153496894Y-78037203D01*
X153391971Y-77892786D01*
X153247213Y-77748028D01*
X153081613Y-77627715D01*
X153081612Y-77627714D01*
X153081610Y-77627713D01*
X152999283Y-77585765D01*
X152899223Y-77534781D01*
X152704534Y-77471522D01*
X152527461Y-77443477D01*
X152502352Y-77439500D01*
X152297648Y-77439500D01*
X152273329Y-77443351D01*
X152095465Y-77471522D01*
X151900776Y-77534781D01*
X151718386Y-77627715D01*
X151552786Y-77748028D01*
X151408032Y-77892782D01*
X151408031Y-77892784D01*
X151367447Y-77948642D01*
X151312117Y-77991307D01*
X151242503Y-77997285D01*
X151180709Y-77964678D01*
X151149425Y-77914760D01*
X151134814Y-77870666D01*
X151042712Y-77721344D01*
X150918656Y-77597288D01*
X150769334Y-77505186D01*
X150602797Y-77450001D01*
X150602795Y-77450000D01*
X150500010Y-77439500D01*
X149299998Y-77439500D01*
X149299981Y-77439501D01*
X149197203Y-77450000D01*
X149197200Y-77450001D01*
X149030668Y-77505185D01*
X149030663Y-77505187D01*
X148881342Y-77597289D01*
X148757289Y-77721342D01*
X148665187Y-77870663D01*
X148665185Y-77870668D01*
X148657858Y-77892781D01*
X148610001Y-78037203D01*
X148610001Y-78037204D01*
X148610000Y-78037204D01*
X148599500Y-78139983D01*
X148089500Y-78139983D01*
X148089500Y-72127909D01*
X148109185Y-72060870D01*
X148125819Y-72040228D01*
X148179938Y-71986109D01*
X148250945Y-71915102D01*
X148363865Y-71759681D01*
X148451082Y-71588509D01*
X148451456Y-71587359D01*
X148472069Y-71523919D01*
X148511506Y-71466243D01*
X148575864Y-71439044D01*
X148644711Y-71450958D01*
X148696187Y-71498202D01*
X148707931Y-71523919D01*
X148728915Y-71588504D01*
X148793436Y-71715132D01*
X148816135Y-71759681D01*
X148929055Y-71915102D01*
X149064898Y-72050945D01*
X149220319Y-72163865D01*
X149390576Y-72250616D01*
X149391493Y-72251083D01*
X149482845Y-72280764D01*
X149574199Y-72310447D01*
X149763945Y-72340500D01*
X149763946Y-72340500D01*
X149956054Y-72340500D01*
X149956055Y-72340500D01*
X150145801Y-72310447D01*
X150328509Y-72251082D01*
X150499681Y-72163865D01*
X150655102Y-72050945D01*
X150790945Y-71915102D01*
X150903865Y-71759681D01*
X150975677Y-71618741D01*
X150998476Y-71587362D01*
X151930021Y-70655819D01*
X151991344Y-70622334D01*
X152017702Y-70619500D01*
X153515500Y-70619500D01*
X153582539Y-70639185D01*
X153628294Y-70691989D01*
X153639500Y-70743500D01*
X153639500Y-71720001D01*
X153639501Y-71720019D01*
X153650000Y-71822796D01*
X153650001Y-71822799D01*
X153684005Y-71925415D01*
X153705186Y-71989334D01*
X153797288Y-72138656D01*
X153921344Y-72262712D01*
X154070666Y-72354814D01*
X154237203Y-72409999D01*
X154339991Y-72420500D01*
X155540008Y-72420499D01*
X155642797Y-72409999D01*
X155809334Y-72354814D01*
X155958656Y-72262712D01*
X156082712Y-72138656D01*
X156174814Y-71989334D01*
X156198102Y-71919054D01*
X156202110Y-71911050D01*
X156220060Y-71891772D01*
X156235055Y-71870116D01*
X156243495Y-71866606D01*
X156249725Y-71859917D01*
X156275249Y-71853404D01*
X156299571Y-71843292D01*
X156315834Y-71843048D01*
X156317425Y-71842643D01*
X156318523Y-71843008D01*
X156322719Y-71842946D01*
X156360525Y-71845921D01*
X157040000Y-71166446D01*
X157040000Y-71172661D01*
X157067259Y-71274394D01*
X157119920Y-71365606D01*
X157194394Y-71440080D01*
X157285606Y-71492741D01*
X157387339Y-71520000D01*
X157393553Y-71520000D01*
X156714076Y-72199474D01*
X156758650Y-72231859D01*
X156940968Y-72324755D01*
X157135582Y-72387990D01*
X157337683Y-72420000D01*
X157542317Y-72420000D01*
X157744417Y-72387990D01*
X157939031Y-72324755D01*
X158121349Y-72231859D01*
X158165921Y-72199474D01*
X157486447Y-71520000D01*
X157492661Y-71520000D01*
X157594394Y-71492741D01*
X157685606Y-71440080D01*
X157760080Y-71365606D01*
X157812741Y-71274394D01*
X157840000Y-71172661D01*
X157840000Y-71166448D01*
X158519474Y-71845922D01*
X158519474Y-71845921D01*
X158551859Y-71801349D01*
X158644755Y-71619031D01*
X158707990Y-71424417D01*
X158740000Y-71222317D01*
X158740000Y-71017682D01*
X158707990Y-70815582D01*
X158644755Y-70620968D01*
X158551859Y-70438650D01*
X158519474Y-70394077D01*
X158519474Y-70394076D01*
X157840000Y-71073551D01*
X157840000Y-71067339D01*
X157812741Y-70965606D01*
X157760080Y-70874394D01*
X157685606Y-70799920D01*
X157594394Y-70747259D01*
X157492661Y-70720000D01*
X157486446Y-70720000D01*
X158165922Y-70040524D01*
X158165921Y-70040523D01*
X158121359Y-70008147D01*
X158121350Y-70008141D01*
X157939029Y-69915244D01*
X157818413Y-69876053D01*
X157760737Y-69836615D01*
X157733539Y-69772257D01*
X157745454Y-69703410D01*
X157769044Y-69670448D01*
X161163725Y-66275767D01*
X161166138Y-66274450D01*
X161167559Y-66272094D01*
X161196622Y-66257804D01*
X161225046Y-66242284D01*
X161227790Y-66242480D01*
X161230260Y-66241266D01*
X161262432Y-66244957D01*
G37*
%TD.AperFunction*%
%TA.AperFunction,Conductor*%
G36*
X145782181Y-71768627D02*
G01*
X145815666Y-71829950D01*
X145818500Y-71856308D01*
X145818500Y-76373643D01*
X145798815Y-76440682D01*
X145746011Y-76486437D01*
X145676853Y-76496381D01*
X145621615Y-76473962D01*
X145461609Y-76357712D01*
X145287325Y-76268910D01*
X145236529Y-76220935D01*
X145219734Y-76153114D01*
X145225689Y-76120110D01*
X145243024Y-76066760D01*
X145265956Y-75921971D01*
X145270983Y-75890233D01*
X145270983Y-73546112D01*
X145243024Y-73369589D01*
X145243024Y-73369586D01*
X145189298Y-73204237D01*
X145188237Y-73200476D01*
X145106649Y-73040350D01*
X145001594Y-72895755D01*
X144875211Y-72769372D01*
X144657520Y-72551681D01*
X144624035Y-72490358D01*
X144629019Y-72420666D01*
X144670891Y-72364733D01*
X144736355Y-72340316D01*
X144745201Y-72340000D01*
X144876015Y-72340000D01*
X145065684Y-72309959D01*
X145248321Y-72250616D01*
X145419419Y-72163436D01*
X145448646Y-72142201D01*
X145448646Y-72142200D01*
X144826446Y-71520000D01*
X144832661Y-71520000D01*
X144934394Y-71492741D01*
X145025606Y-71440080D01*
X145100080Y-71365606D01*
X145152741Y-71274394D01*
X145180000Y-71172661D01*
X145180000Y-71166446D01*
X145782181Y-71768627D01*
G37*
%TD.AperFunction*%
%TA.AperFunction,Conductor*%
G36*
X156162539Y-62919185D02*
G01*
X156208294Y-62971989D01*
X156219500Y-63023500D01*
X156219500Y-64100001D01*
X156219501Y-64100018D01*
X156230000Y-64202796D01*
X156230001Y-64202799D01*
X156245681Y-64250116D01*
X156285186Y-64369334D01*
X156377288Y-64518656D01*
X156501344Y-64642712D01*
X156650666Y-64734814D01*
X156817203Y-64789999D01*
X156919991Y-64800500D01*
X158120008Y-64800499D01*
X158222797Y-64789999D01*
X158389334Y-64734814D01*
X158538656Y-64642712D01*
X158662712Y-64518656D01*
X158754814Y-64369334D01*
X158775284Y-64307559D01*
X158815055Y-64250116D01*
X158879571Y-64223292D01*
X158902719Y-64222946D01*
X158940525Y-64225921D01*
X159620000Y-63546446D01*
X159620000Y-63552661D01*
X159647259Y-63654394D01*
X159699920Y-63745606D01*
X159774394Y-63820080D01*
X159865606Y-63872741D01*
X159967339Y-63900000D01*
X159973553Y-63900000D01*
X159294076Y-64579474D01*
X159338650Y-64611859D01*
X159370282Y-64627976D01*
X159421079Y-64675950D01*
X159437875Y-64743771D01*
X159415339Y-64809906D01*
X159401670Y-64826143D01*
X155915634Y-68312181D01*
X155854311Y-68345666D01*
X155827953Y-68348500D01*
X151406634Y-68348500D01*
X151347790Y-68357820D01*
X151230101Y-68376460D01*
X151230098Y-68376460D01*
X151060121Y-68431689D01*
X151060118Y-68431690D01*
X150900866Y-68512834D01*
X150817116Y-68573681D01*
X150817115Y-68573680D01*
X150756279Y-68617881D01*
X150756271Y-68617888D01*
X149392638Y-69981520D01*
X149361253Y-70004323D01*
X149220324Y-70076131D01*
X149220322Y-70076132D01*
X149179059Y-70106112D01*
X149064898Y-70189055D01*
X149064896Y-70189057D01*
X149064895Y-70189057D01*
X148929057Y-70324895D01*
X148929057Y-70324896D01*
X148929055Y-70324898D01*
X148911209Y-70349461D01*
X148816135Y-70480318D01*
X148728916Y-70651493D01*
X148707931Y-70716081D01*
X148668494Y-70773756D01*
X148604135Y-70800955D01*
X148535289Y-70789041D01*
X148483813Y-70741797D01*
X148472069Y-70716081D01*
X148451083Y-70651493D01*
X148420536Y-70591541D01*
X148363865Y-70480319D01*
X148250945Y-70324898D01*
X148115102Y-70189055D01*
X147959681Y-70076135D01*
X147834711Y-70012459D01*
X147788506Y-69988916D01*
X147605802Y-69929553D01*
X147507781Y-69914028D01*
X147416055Y-69899500D01*
X147223945Y-69899500D01*
X147160696Y-69909517D01*
X147034197Y-69929553D01*
X146851493Y-69988916D01*
X146680318Y-70076135D01*
X146639059Y-70106112D01*
X146524898Y-70189055D01*
X146524896Y-70189057D01*
X146524895Y-70189057D01*
X146389057Y-70324895D01*
X146389057Y-70324896D01*
X146389055Y-70324898D01*
X146332595Y-70402608D01*
X146276133Y-70480321D01*
X146204324Y-70621252D01*
X146202939Y-70623157D01*
X146202673Y-70624382D01*
X146181522Y-70652637D01*
X146120371Y-70713789D01*
X146059048Y-70747274D01*
X145989356Y-70742290D01*
X145933422Y-70700419D01*
X145914758Y-70664425D01*
X145910617Y-70651682D01*
X145823434Y-70480577D01*
X145802201Y-70451352D01*
X145802200Y-70451351D01*
X145180000Y-71073552D01*
X145180000Y-71067339D01*
X145152741Y-70965606D01*
X145100080Y-70874394D01*
X145025606Y-70799920D01*
X144934394Y-70747259D01*
X144832661Y-70720000D01*
X144826447Y-70720000D01*
X145448646Y-70097798D01*
X145419415Y-70076561D01*
X145248321Y-69989383D01*
X145065684Y-69930040D01*
X144876015Y-69900000D01*
X144683985Y-69900000D01*
X144494315Y-69930040D01*
X144311678Y-69989383D01*
X144140578Y-70076564D01*
X144111352Y-70097798D01*
X144111351Y-70097798D01*
X144733554Y-70720000D01*
X144727339Y-70720000D01*
X144625606Y-70747259D01*
X144534394Y-70799920D01*
X144459920Y-70874394D01*
X144407259Y-70965606D01*
X144380000Y-71067339D01*
X144380000Y-71073553D01*
X143757798Y-70451351D01*
X143757798Y-70451352D01*
X143736564Y-70480578D01*
X143649383Y-70651678D01*
X143590040Y-70834315D01*
X143560000Y-71023984D01*
X143560000Y-71154799D01*
X143553761Y-71176044D01*
X143552182Y-71198133D01*
X143544109Y-71208916D01*
X143540315Y-71221838D01*
X143523581Y-71236337D01*
X143510310Y-71254066D01*
X143497689Y-71258773D01*
X143487511Y-71267593D01*
X143465593Y-71270744D01*
X143444846Y-71278483D01*
X143431685Y-71275620D01*
X143418353Y-71277537D01*
X143398209Y-71268337D01*
X143376573Y-71263631D01*
X143358847Y-71250362D01*
X143354797Y-71248512D01*
X143348319Y-71242480D01*
X143171819Y-71065980D01*
X143138334Y-71004657D01*
X143135500Y-70978299D01*
X143135500Y-70701626D01*
X143155185Y-70634587D01*
X143171819Y-70613945D01*
X143728388Y-70057376D01*
X146701900Y-67083864D01*
X149686401Y-64099362D01*
X149747722Y-64065879D01*
X149817414Y-64070863D01*
X149873347Y-64112735D01*
X149884563Y-64130747D01*
X149933057Y-64225921D01*
X149937187Y-64234025D01*
X150066752Y-64412358D01*
X150066756Y-64412363D01*
X150222636Y-64568243D01*
X150222641Y-64568247D01*
X150370883Y-64675950D01*
X150400978Y-64697815D01*
X150529375Y-64763237D01*
X150597393Y-64797895D01*
X150597396Y-64797896D01*
X150684334Y-64826143D01*
X150807049Y-64866015D01*
X151024778Y-64900500D01*
X151024779Y-64900500D01*
X151245221Y-64900500D01*
X151245222Y-64900500D01*
X151462951Y-64866015D01*
X151672606Y-64797895D01*
X151869022Y-64697815D01*
X152047365Y-64568242D01*
X152097536Y-64518070D01*
X152158857Y-64484586D01*
X152228548Y-64489570D01*
X152284482Y-64531441D01*
X152301398Y-64562419D01*
X152331202Y-64642328D01*
X152331206Y-64642335D01*
X152417452Y-64757544D01*
X152417455Y-64757547D01*
X152532664Y-64843793D01*
X152532671Y-64843797D01*
X152667517Y-64894091D01*
X152667516Y-64894091D01*
X152674444Y-64894835D01*
X152727127Y-64900500D01*
X154622872Y-64900499D01*
X154682483Y-64894091D01*
X154817331Y-64843796D01*
X154932546Y-64757546D01*
X155018796Y-64642331D01*
X155069091Y-64507483D01*
X155075500Y-64447873D01*
X155075499Y-63023499D01*
X155095184Y-62956461D01*
X155147987Y-62910706D01*
X155199499Y-62899500D01*
X156095500Y-62899500D01*
X156162539Y-62919185D01*
G37*
%TD.AperFunction*%
%TA.AperFunction,Conductor*%
G36*
X177242539Y-46240185D02*
G01*
X177288294Y-46292989D01*
X177299500Y-46344500D01*
X177299500Y-100975500D01*
X177279815Y-101042539D01*
X177227011Y-101088294D01*
X177175500Y-101099500D01*
X130164500Y-101099500D01*
X130097461Y-101079815D01*
X130051706Y-101027011D01*
X130040500Y-100975500D01*
X130040500Y-98934038D01*
X143179500Y-98934038D01*
X143179500Y-99185961D01*
X143218910Y-99434785D01*
X143296760Y-99674383D01*
X143411132Y-99898848D01*
X143559201Y-100102649D01*
X143559205Y-100102654D01*
X143737345Y-100280794D01*
X143737350Y-100280798D01*
X143915117Y-100409952D01*
X143941155Y-100428870D01*
X144084184Y-100501747D01*
X144165616Y-100543239D01*
X144165618Y-100543239D01*
X144165621Y-100543241D01*
X144405215Y-100621090D01*
X144654038Y-100660500D01*
X144654039Y-100660500D01*
X144905961Y-100660500D01*
X144905962Y-100660500D01*
X145154785Y-100621090D01*
X145394379Y-100543241D01*
X145618845Y-100428870D01*
X145822656Y-100280793D01*
X146000793Y-100102656D01*
X146148870Y-99898845D01*
X146263241Y-99674379D01*
X146341090Y-99434785D01*
X146380500Y-99185962D01*
X146380500Y-98934038D01*
X148259500Y-98934038D01*
X148259500Y-99185961D01*
X148298910Y-99434785D01*
X148376760Y-99674383D01*
X148491132Y-99898848D01*
X148639201Y-100102649D01*
X148639205Y-100102654D01*
X148817345Y-100280794D01*
X148817350Y-100280798D01*
X148995117Y-100409952D01*
X149021155Y-100428870D01*
X149164184Y-100501747D01*
X149245616Y-100543239D01*
X149245618Y-100543239D01*
X149245621Y-100543241D01*
X149485215Y-100621090D01*
X149734038Y-100660500D01*
X149734039Y-100660500D01*
X149985961Y-100660500D01*
X149985962Y-100660500D01*
X150234785Y-100621090D01*
X150474379Y-100543241D01*
X150698845Y-100428870D01*
X150902656Y-100280793D01*
X151080793Y-100102656D01*
X151228870Y-99898845D01*
X151343241Y-99674379D01*
X151421090Y-99434785D01*
X151460500Y-99185962D01*
X151460500Y-98934038D01*
X151421090Y-98685215D01*
X151343241Y-98445621D01*
X151343239Y-98445618D01*
X151343239Y-98445616D01*
X151301747Y-98364184D01*
X151228870Y-98221155D01*
X151209952Y-98195117D01*
X151080798Y-98017350D01*
X151080794Y-98017345D01*
X150902654Y-97839205D01*
X150902649Y-97839201D01*
X150698848Y-97691132D01*
X150698847Y-97691131D01*
X150698845Y-97691130D01*
X150628747Y-97655413D01*
X150474383Y-97576760D01*
X150234785Y-97498910D01*
X149985962Y-97459500D01*
X149734038Y-97459500D01*
X149609626Y-97479205D01*
X149485214Y-97498910D01*
X149245616Y-97576760D01*
X149021151Y-97691132D01*
X148817350Y-97839201D01*
X148817345Y-97839205D01*
X148639205Y-98017345D01*
X148639201Y-98017350D01*
X148491132Y-98221151D01*
X148376760Y-98445616D01*
X148298910Y-98685214D01*
X148259500Y-98934038D01*
X146380500Y-98934038D01*
X146341090Y-98685215D01*
X146263241Y-98445621D01*
X146263239Y-98445618D01*
X146263239Y-98445616D01*
X146221747Y-98364184D01*
X146148870Y-98221155D01*
X146129952Y-98195117D01*
X146000798Y-98017350D01*
X146000794Y-98017345D01*
X145822654Y-97839205D01*
X145822649Y-97839201D01*
X145618848Y-97691132D01*
X145618847Y-97691131D01*
X145618845Y-97691130D01*
X145548747Y-97655413D01*
X145394383Y-97576760D01*
X145154785Y-97498910D01*
X144905962Y-97459500D01*
X144654038Y-97459500D01*
X144529626Y-97479205D01*
X144405214Y-97498910D01*
X144165616Y-97576760D01*
X143941151Y-97691132D01*
X143737350Y-97839201D01*
X143737345Y-97839205D01*
X143559205Y-98017345D01*
X143559201Y-98017350D01*
X143411132Y-98221151D01*
X143296760Y-98445616D01*
X143218910Y-98685214D01*
X143179500Y-98934038D01*
X130040500Y-98934038D01*
X130040500Y-84987648D01*
X133319500Y-84987648D01*
X133319500Y-85192351D01*
X133351522Y-85394534D01*
X133414781Y-85589223D01*
X133459424Y-85676838D01*
X133507585Y-85771359D01*
X133507715Y-85771613D01*
X133628028Y-85937213D01*
X133772786Y-86081971D01*
X133893226Y-86169474D01*
X133938390Y-86202287D01*
X134054607Y-86261503D01*
X134120776Y-86295218D01*
X134120778Y-86295218D01*
X134120781Y-86295220D01*
X134219633Y-86327339D01*
X134315465Y-86358477D01*
X134416557Y-86374488D01*
X134517648Y-86390500D01*
X134517649Y-86390500D01*
X134722351Y-86390500D01*
X134722352Y-86390500D01*
X134924534Y-86358477D01*
X135119219Y-86295220D01*
X135301610Y-86202287D01*
X135414020Y-86120617D01*
X135467213Y-86081971D01*
X135467215Y-86081968D01*
X135467219Y-86081966D01*
X135611966Y-85937219D01*
X135611968Y-85937215D01*
X135611971Y-85937213D01*
X135670231Y-85857024D01*
X135732287Y-85771610D01*
X135825220Y-85589219D01*
X135888477Y-85394534D01*
X135920500Y-85192352D01*
X135920500Y-84987682D01*
X138400000Y-84987682D01*
X138400000Y-85192317D01*
X138432009Y-85394417D01*
X138495244Y-85589031D01*
X138588141Y-85771350D01*
X138588147Y-85771359D01*
X138620523Y-85815921D01*
X138620524Y-85815922D01*
X139300000Y-85136446D01*
X139300000Y-85142661D01*
X139327259Y-85244394D01*
X139379920Y-85335606D01*
X139454394Y-85410080D01*
X139545606Y-85462741D01*
X139647339Y-85490000D01*
X139653553Y-85490000D01*
X138974076Y-86169474D01*
X139018650Y-86201859D01*
X139200968Y-86294755D01*
X139395582Y-86357990D01*
X139597683Y-86390000D01*
X139802317Y-86390000D01*
X140004417Y-86357990D01*
X140199031Y-86294755D01*
X140381349Y-86201859D01*
X140425921Y-86169474D01*
X139746447Y-85490000D01*
X139752661Y-85490000D01*
X139854394Y-85462741D01*
X139945606Y-85410080D01*
X140020080Y-85335606D01*
X140072741Y-85244394D01*
X140100000Y-85142661D01*
X140100000Y-85136448D01*
X140779474Y-85815922D01*
X140779474Y-85815921D01*
X140811859Y-85771349D01*
X140904755Y-85589031D01*
X140967990Y-85394417D01*
X141000000Y-85192317D01*
X141000000Y-84987682D01*
X140967990Y-84785582D01*
X140904755Y-84590968D01*
X140811859Y-84408650D01*
X140779474Y-84364077D01*
X140779474Y-84364076D01*
X140100000Y-85043551D01*
X140100000Y-85037339D01*
X140072741Y-84935606D01*
X140020080Y-84844394D01*
X139945606Y-84769920D01*
X139854394Y-84717259D01*
X139752661Y-84690000D01*
X139746446Y-84690000D01*
X140425922Y-84010524D01*
X140425921Y-84010523D01*
X140381359Y-83978147D01*
X140381350Y-83978141D01*
X140199031Y-83885244D01*
X140004417Y-83822009D01*
X139802317Y-83790000D01*
X139597683Y-83790000D01*
X139395582Y-83822009D01*
X139200968Y-83885244D01*
X139018644Y-83978143D01*
X138974077Y-84010523D01*
X138974077Y-84010524D01*
X139653554Y-84690000D01*
X139647339Y-84690000D01*
X139545606Y-84717259D01*
X139454394Y-84769920D01*
X139379920Y-84844394D01*
X139327259Y-84935606D01*
X139300000Y-85037339D01*
X139300000Y-85043553D01*
X138620524Y-84364077D01*
X138620523Y-84364077D01*
X138588143Y-84408644D01*
X138495244Y-84590968D01*
X138432009Y-84785582D01*
X138400000Y-84987682D01*
X135920500Y-84987682D01*
X135920500Y-84987648D01*
X135911731Y-84932284D01*
X135888477Y-84785465D01*
X135836630Y-84625897D01*
X135825220Y-84590781D01*
X135825218Y-84590778D01*
X135825218Y-84590776D01*
X135790580Y-84522796D01*
X135732287Y-84408390D01*
X135700092Y-84364077D01*
X135611971Y-84242786D01*
X135467213Y-84098028D01*
X135301613Y-83977715D01*
X135301612Y-83977714D01*
X135301610Y-83977713D01*
X135200075Y-83925978D01*
X135119223Y-83884781D01*
X134924534Y-83821522D01*
X134749995Y-83793878D01*
X134722352Y-83789500D01*
X134517648Y-83789500D01*
X134493329Y-83793351D01*
X134315465Y-83821522D01*
X134120776Y-83884781D01*
X133938386Y-83977715D01*
X133772786Y-84098028D01*
X133628028Y-84242786D01*
X133507715Y-84408386D01*
X133414781Y-84590776D01*
X133351522Y-84785465D01*
X133319500Y-84987648D01*
X130040500Y-84987648D01*
X130040500Y-77367648D01*
X133319500Y-77367648D01*
X133319500Y-77572352D01*
X133323450Y-77597288D01*
X133351522Y-77774534D01*
X133414781Y-77969223D01*
X133449420Y-78037204D01*
X133504277Y-78144867D01*
X133507715Y-78151613D01*
X133628028Y-78317213D01*
X133772786Y-78461971D01*
X133916463Y-78566356D01*
X133938390Y-78582287D01*
X134047042Y-78637648D01*
X134120776Y-78675218D01*
X134120778Y-78675218D01*
X134120781Y-78675220D01*
X134225137Y-78709127D01*
X134315465Y-78738477D01*
X134416557Y-78754488D01*
X134517648Y-78770500D01*
X134517649Y-78770500D01*
X134722351Y-78770500D01*
X134722352Y-78770500D01*
X134924534Y-78738477D01*
X135119219Y-78675220D01*
X135301610Y-78582287D01*
X135450514Y-78474103D01*
X135467213Y-78461971D01*
X135467215Y-78461968D01*
X135467219Y-78461966D01*
X135611966Y-78317219D01*
X135611968Y-78317215D01*
X135611971Y-78317213D01*
X135675656Y-78229556D01*
X135732287Y-78151610D01*
X135825220Y-77969219D01*
X135888477Y-77774534D01*
X135920500Y-77572352D01*
X135920500Y-77367648D01*
X138399500Y-77367648D01*
X138399500Y-77572352D01*
X138403450Y-77597288D01*
X138431522Y-77774534D01*
X138494781Y-77969223D01*
X138529420Y-78037204D01*
X138584277Y-78144867D01*
X138587715Y-78151613D01*
X138708028Y-78317213D01*
X138852786Y-78461971D01*
X138996463Y-78566356D01*
X139018390Y-78582287D01*
X139127042Y-78637648D01*
X139200776Y-78675218D01*
X139200778Y-78675218D01*
X139200781Y-78675220D01*
X139305137Y-78709127D01*
X139395465Y-78738477D01*
X139496557Y-78754488D01*
X139597648Y-78770500D01*
X139597649Y-78770500D01*
X139802351Y-78770500D01*
X139802352Y-78770500D01*
X140004534Y-78738477D01*
X140199219Y-78675220D01*
X140381610Y-78582287D01*
X140530514Y-78474103D01*
X140547213Y-78461971D01*
X140547215Y-78461968D01*
X140547219Y-78461966D01*
X140691966Y-78317219D01*
X140691968Y-78317215D01*
X140691971Y-78317213D01*
X140755656Y-78229556D01*
X140812287Y-78151610D01*
X140905220Y-77969219D01*
X140968477Y-77774534D01*
X141000500Y-77572352D01*
X141000500Y-77367648D01*
X140968477Y-77165466D01*
X140964018Y-77151744D01*
X140905218Y-76970776D01*
X140870579Y-76902795D01*
X140812287Y-76788390D01*
X140750234Y-76702980D01*
X140691971Y-76622786D01*
X140547213Y-76478028D01*
X140381613Y-76357715D01*
X140381612Y-76357714D01*
X140381610Y-76357713D01*
X140324653Y-76328691D01*
X140199223Y-76264781D01*
X140004534Y-76201522D01*
X139829995Y-76173878D01*
X139802352Y-76169500D01*
X139597648Y-76169500D01*
X139573329Y-76173351D01*
X139395465Y-76201522D01*
X139200776Y-76264781D01*
X139018386Y-76357715D01*
X138852786Y-76478028D01*
X138708028Y-76622786D01*
X138587715Y-76788386D01*
X138494781Y-76970776D01*
X138431522Y-77165465D01*
X138399500Y-77367648D01*
X135920500Y-77367648D01*
X135888477Y-77165466D01*
X135884018Y-77151744D01*
X135825218Y-76970776D01*
X135790579Y-76902795D01*
X135732287Y-76788390D01*
X135670234Y-76702980D01*
X135611971Y-76622786D01*
X135467213Y-76478028D01*
X135301613Y-76357715D01*
X135301612Y-76357714D01*
X135301610Y-76357713D01*
X135244653Y-76328691D01*
X135119223Y-76264781D01*
X134924534Y-76201522D01*
X134749995Y-76173878D01*
X134722352Y-76169500D01*
X134517648Y-76169500D01*
X134493329Y-76173351D01*
X134315465Y-76201522D01*
X134120776Y-76264781D01*
X133938386Y-76357715D01*
X133772786Y-76478028D01*
X133628028Y-76622786D01*
X133507715Y-76788386D01*
X133414781Y-76970776D01*
X133351522Y-77165465D01*
X133319500Y-77367648D01*
X130040500Y-77367648D01*
X130040500Y-70999818D01*
X134024500Y-70999818D01*
X134024500Y-70999823D01*
X134024500Y-71209366D01*
X134026551Y-71222317D01*
X134052460Y-71385898D01*
X134052460Y-71385901D01*
X134107689Y-71555878D01*
X134107691Y-71555881D01*
X134188833Y-71715132D01*
X134293889Y-71859728D01*
X134420272Y-71986111D01*
X134564868Y-72091167D01*
X134724119Y-72172309D01*
X134724121Y-72172310D01*
X134807724Y-72199474D01*
X134894103Y-72227540D01*
X135070634Y-72255500D01*
X135070635Y-72255500D01*
X135249365Y-72255500D01*
X135249366Y-72255500D01*
X135425897Y-72227540D01*
X135425900Y-72227539D01*
X135425901Y-72227539D01*
X135595878Y-72172310D01*
X135595878Y-72172309D01*
X135595881Y-72172309D01*
X135755132Y-72091167D01*
X135803137Y-72056289D01*
X136577261Y-72056289D01*
X136577262Y-72056290D01*
X136583471Y-72060801D01*
X136737742Y-72139408D01*
X136902415Y-72192914D01*
X137073429Y-72220000D01*
X137246571Y-72220000D01*
X137417584Y-72192914D01*
X137582257Y-72139408D01*
X137736525Y-72060803D01*
X137742736Y-72056289D01*
X137742737Y-72056289D01*
X137160001Y-71473553D01*
X137160000Y-71473553D01*
X136577261Y-72056289D01*
X135803137Y-72056289D01*
X135899728Y-71986111D01*
X136026111Y-71859728D01*
X136104591Y-71751708D01*
X136107135Y-71748644D01*
X136108278Y-71747874D01*
X136114872Y-71740155D01*
X136117079Y-71737948D01*
X136148572Y-71720751D01*
X136165097Y-71709628D01*
X136169098Y-71709542D01*
X136178402Y-71704463D01*
X136214491Y-71702011D01*
X136223710Y-71702736D01*
X136865145Y-71061300D01*
X136860000Y-71080504D01*
X136860000Y-71159496D01*
X136880444Y-71235796D01*
X136919940Y-71304205D01*
X136975795Y-71360060D01*
X137044204Y-71399556D01*
X137120504Y-71420000D01*
X137199496Y-71420000D01*
X137275796Y-71399556D01*
X137344205Y-71360060D01*
X137400060Y-71304205D01*
X137439556Y-71235796D01*
X137460000Y-71159496D01*
X137460000Y-71119999D01*
X137513553Y-71119999D01*
X137513553Y-71120000D01*
X138096289Y-71702736D01*
X138100803Y-71696525D01*
X138179408Y-71542257D01*
X138232914Y-71377584D01*
X138260000Y-71206571D01*
X138260000Y-71033428D01*
X138232914Y-70862415D01*
X138179408Y-70697742D01*
X138100801Y-70543471D01*
X138096290Y-70537262D01*
X138096289Y-70537261D01*
X137513553Y-71119999D01*
X137460000Y-71119999D01*
X137460000Y-71080504D01*
X137439556Y-71004204D01*
X137400060Y-70935795D01*
X137344205Y-70879940D01*
X137275796Y-70840444D01*
X137199496Y-70820000D01*
X137120504Y-70820000D01*
X137101300Y-70825145D01*
X137742736Y-70183710D01*
X137742011Y-70174489D01*
X137756374Y-70106112D01*
X137777942Y-70077084D01*
X140727821Y-67127205D01*
X140789142Y-67093722D01*
X140858834Y-67098706D01*
X140914767Y-67140578D01*
X140939184Y-67206042D01*
X140939500Y-67214888D01*
X140939500Y-67412352D01*
X140941968Y-67427931D01*
X140971522Y-67614534D01*
X141034781Y-67809223D01*
X141127715Y-67991613D01*
X141248028Y-68157213D01*
X141392786Y-68301971D01*
X141547749Y-68414556D01*
X141558390Y-68422287D01*
X141740781Y-68515220D01*
X141788414Y-68530697D01*
X141846088Y-68570133D01*
X141873287Y-68634492D01*
X141861373Y-68703338D01*
X141837776Y-68736308D01*
X141260272Y-69313814D01*
X141133891Y-69440194D01*
X141133890Y-69440195D01*
X141028833Y-69584792D01*
X140947691Y-69744042D01*
X140939111Y-69770445D01*
X140939112Y-69770446D01*
X140892458Y-69914030D01*
X140892457Y-69914032D01*
X140866310Y-70079130D01*
X140866309Y-70079137D01*
X140864500Y-70090554D01*
X140864500Y-71589370D01*
X140892458Y-71765894D01*
X140912936Y-71828917D01*
X140947692Y-71935885D01*
X141011376Y-72060870D01*
X141028833Y-72095132D01*
X141123717Y-72225728D01*
X141125033Y-72227539D01*
X141133892Y-72239732D01*
X141133895Y-72239735D01*
X142311980Y-73417819D01*
X142345465Y-73479142D01*
X142340481Y-73548834D01*
X142298609Y-73604767D01*
X142233145Y-73629184D01*
X142224299Y-73629500D01*
X142137648Y-73629500D01*
X142113329Y-73633351D01*
X141935465Y-73661522D01*
X141740776Y-73724781D01*
X141558386Y-73817715D01*
X141392786Y-73938028D01*
X141248028Y-74082786D01*
X141127715Y-74248386D01*
X141034781Y-74430776D01*
X140971522Y-74625465D01*
X140939500Y-74827648D01*
X140939500Y-75032351D01*
X140971522Y-75234534D01*
X141034781Y-75429223D01*
X141069420Y-75497204D01*
X141121796Y-75599998D01*
X141127715Y-75611613D01*
X141248028Y-75777213D01*
X141392786Y-75921971D01*
X141547749Y-76034556D01*
X141558390Y-76042287D01*
X141667042Y-76097648D01*
X141740776Y-76135218D01*
X141740778Y-76135218D01*
X141740781Y-76135220D01*
X141845137Y-76169127D01*
X141935465Y-76198477D01*
X141989467Y-76207030D01*
X142052602Y-76236959D01*
X142089534Y-76296270D01*
X142088536Y-76366133D01*
X142088001Y-76367821D01*
X142036459Y-76526447D01*
X142036457Y-76526456D01*
X142014203Y-76666972D01*
X142014203Y-76666973D01*
X142008500Y-76702980D01*
X142008500Y-85857024D01*
X142036458Y-86033547D01*
X142036459Y-86033551D01*
X142038084Y-86038551D01*
X142067311Y-86128502D01*
X142091689Y-86203532D01*
X142138633Y-86295664D01*
X142172833Y-86362786D01*
X142259703Y-86482352D01*
X142277890Y-86507383D01*
X146575527Y-90805020D01*
X146609012Y-90866343D01*
X146611846Y-90892701D01*
X146611846Y-94336716D01*
X146639804Y-94513239D01*
X146681492Y-94641540D01*
X146695034Y-94683221D01*
X146695037Y-94683227D01*
X146776179Y-94842478D01*
X146855078Y-94951073D01*
X146857703Y-94954685D01*
X146881235Y-94987074D01*
X148633889Y-96739728D01*
X148760272Y-96866111D01*
X148856669Y-96936148D01*
X148904869Y-96971168D01*
X148987708Y-97013375D01*
X149064119Y-97052309D01*
X149105802Y-97065851D01*
X149105804Y-97065853D01*
X149105805Y-97065853D01*
X149137880Y-97076275D01*
X149234103Y-97107541D01*
X149309759Y-97119523D01*
X149410630Y-97135500D01*
X149410634Y-97135500D01*
X156089370Y-97135500D01*
X156167824Y-97123073D01*
X156265897Y-97107541D01*
X156394193Y-97065853D01*
X156435881Y-97052309D01*
X156595132Y-96971167D01*
X156739728Y-96866111D01*
X156866111Y-96739728D01*
X158332112Y-95273725D01*
X158381474Y-95243477D01*
X158499213Y-95205222D01*
X158499219Y-95205220D01*
X158681610Y-95112287D01*
X158687610Y-95107927D01*
X158753414Y-95084445D01*
X158821469Y-95100266D01*
X158870167Y-95150369D01*
X158884500Y-95208242D01*
X158884500Y-97880689D01*
X158864815Y-97947728D01*
X158848181Y-97968370D01*
X158799205Y-98017345D01*
X158799201Y-98017350D01*
X158651132Y-98221151D01*
X158536760Y-98445616D01*
X158458910Y-98685214D01*
X158419500Y-98934038D01*
X158419500Y-99185961D01*
X158458910Y-99434785D01*
X158536760Y-99674383D01*
X158651132Y-99898848D01*
X158799201Y-100102649D01*
X158799205Y-100102654D01*
X158977345Y-100280794D01*
X158977350Y-100280798D01*
X159155117Y-100409952D01*
X159181155Y-100428870D01*
X159324184Y-100501747D01*
X159405616Y-100543239D01*
X159405618Y-100543239D01*
X159405621Y-100543241D01*
X159645215Y-100621090D01*
X159894038Y-100660500D01*
X159894039Y-100660500D01*
X160145961Y-100660500D01*
X160145962Y-100660500D01*
X160394785Y-100621090D01*
X160634379Y-100543241D01*
X160858845Y-100428870D01*
X161062656Y-100280793D01*
X161240793Y-100102656D01*
X161388870Y-99898845D01*
X161503241Y-99674379D01*
X161581090Y-99434785D01*
X161620500Y-99185962D01*
X161620500Y-98934038D01*
X161581090Y-98685215D01*
X161503241Y-98445621D01*
X161503239Y-98445618D01*
X161503239Y-98445616D01*
X161461747Y-98364184D01*
X161388870Y-98221155D01*
X161369952Y-98195117D01*
X161240798Y-98017350D01*
X161240794Y-98017345D01*
X161191819Y-97968370D01*
X161158334Y-97907047D01*
X161155500Y-97880689D01*
X161155500Y-94121980D01*
X161137027Y-94005347D01*
X161135500Y-93985949D01*
X161135500Y-89485355D01*
X161155185Y-89418316D01*
X161207989Y-89372561D01*
X161277147Y-89362617D01*
X161340703Y-89391642D01*
X161369985Y-89429060D01*
X161447715Y-89581614D01*
X161568028Y-89747213D01*
X161712786Y-89891971D01*
X161867749Y-90004556D01*
X161878390Y-90012287D01*
X161962582Y-90055185D01*
X162060776Y-90105218D01*
X162060778Y-90105218D01*
X162060781Y-90105220D01*
X162165137Y-90139127D01*
X162255465Y-90168477D01*
X162356557Y-90184488D01*
X162457648Y-90200500D01*
X162457649Y-90200500D01*
X162662351Y-90200500D01*
X162662352Y-90200500D01*
X162864534Y-90168477D01*
X163059219Y-90105220D01*
X163059459Y-90105098D01*
X163063827Y-90102872D01*
X163241610Y-90012287D01*
X163347825Y-89935118D01*
X163407213Y-89891971D01*
X163407215Y-89891968D01*
X163407219Y-89891966D01*
X163551966Y-89747219D01*
X163551968Y-89747215D01*
X163551971Y-89747213D01*
X163636206Y-89631271D01*
X163672287Y-89581610D01*
X163765220Y-89399219D01*
X163828477Y-89204534D01*
X163860500Y-89002352D01*
X163860500Y-88797648D01*
X163854580Y-88760269D01*
X163828477Y-88595465D01*
X163765218Y-88400776D01*
X163731503Y-88334607D01*
X163672287Y-88218390D01*
X163664556Y-88207749D01*
X163551971Y-88052786D01*
X163407213Y-87908028D01*
X163241613Y-87787715D01*
X163241612Y-87787714D01*
X163241610Y-87787713D01*
X163178186Y-87755397D01*
X163059223Y-87694781D01*
X162864534Y-87631522D01*
X162689995Y-87603878D01*
X162662352Y-87599500D01*
X162457648Y-87599500D01*
X162433329Y-87603351D01*
X162255465Y-87631522D01*
X162060776Y-87694781D01*
X161878386Y-87787715D01*
X161712786Y-87908028D01*
X161568028Y-88052786D01*
X161447715Y-88218386D01*
X161354781Y-88400776D01*
X161291522Y-88595465D01*
X161259500Y-88797648D01*
X161259500Y-88954256D01*
X161239815Y-89021295D01*
X161187011Y-89067050D01*
X161117853Y-89076994D01*
X161054297Y-89047969D01*
X161025015Y-89010551D01*
X160971166Y-88904867D01*
X160866111Y-88760271D01*
X160139728Y-88033889D01*
X159995132Y-87928833D01*
X159835881Y-87847691D01*
X159835875Y-87847688D01*
X159794194Y-87834146D01*
X159727453Y-87812460D01*
X159665897Y-87792459D01*
X159665895Y-87792458D01*
X159665894Y-87792458D01*
X159489370Y-87764500D01*
X159489366Y-87764500D01*
X159063893Y-87764500D01*
X158996854Y-87744815D01*
X158951099Y-87692011D01*
X158941155Y-87622853D01*
X158970180Y-87559297D01*
X158998797Y-87534961D01*
X159018656Y-87522712D01*
X159142712Y-87398656D01*
X159234814Y-87249334D01*
X159289999Y-87082797D01*
X159300500Y-86980009D01*
X159300499Y-86736700D01*
X159320183Y-86669661D01*
X159336813Y-86649024D01*
X160886111Y-85099729D01*
X160957617Y-85001309D01*
X160991167Y-84955132D01*
X161072309Y-84795881D01*
X161106712Y-84690000D01*
X161127539Y-84625901D01*
X161127539Y-84625900D01*
X161127540Y-84625897D01*
X161155500Y-84449366D01*
X161155500Y-83717648D01*
X163799500Y-83717648D01*
X163799500Y-83922351D01*
X163831522Y-84124534D01*
X163894781Y-84319223D01*
X163987715Y-84501613D01*
X164108028Y-84667213D01*
X164252786Y-84811971D01*
X164407749Y-84924556D01*
X164418390Y-84932287D01*
X164527042Y-84987648D01*
X164600776Y-85025218D01*
X164600778Y-85025218D01*
X164600781Y-85025220D01*
X164691856Y-85054812D01*
X164795465Y-85088477D01*
X164866507Y-85099729D01*
X164997648Y-85120500D01*
X164997649Y-85120500D01*
X165202351Y-85120500D01*
X165202352Y-85120500D01*
X165404534Y-85088477D01*
X165599219Y-85025220D01*
X165781610Y-84932287D01*
X165874590Y-84864732D01*
X165947213Y-84811971D01*
X165947215Y-84811968D01*
X165947219Y-84811966D01*
X166091966Y-84667219D01*
X166091968Y-84667215D01*
X166091971Y-84667213D01*
X166196892Y-84522799D01*
X166212287Y-84501610D01*
X166305220Y-84319219D01*
X166368477Y-84124534D01*
X166400500Y-83922352D01*
X166400500Y-83717648D01*
X166368477Y-83515466D01*
X166305220Y-83320781D01*
X166305218Y-83320778D01*
X166305218Y-83320776D01*
X166253865Y-83219991D01*
X166212287Y-83138390D01*
X166196894Y-83117203D01*
X166091971Y-82972786D01*
X165947213Y-82828028D01*
X165781613Y-82707715D01*
X165781612Y-82707714D01*
X165781610Y-82707713D01*
X165721898Y-82677288D01*
X165599223Y-82614781D01*
X165404534Y-82551522D01*
X165229995Y-82523878D01*
X165202352Y-82519500D01*
X164997648Y-82519500D01*
X164973329Y-82523351D01*
X164795465Y-82551522D01*
X164600776Y-82614781D01*
X164418386Y-82707715D01*
X164252786Y-82828028D01*
X164108028Y-82972786D01*
X163987715Y-83138386D01*
X163894781Y-83320776D01*
X163831522Y-83515465D01*
X163799500Y-83717648D01*
X161155500Y-83717648D01*
X161155500Y-78650634D01*
X161127540Y-78474103D01*
X161127539Y-78474099D01*
X161127539Y-78474098D01*
X161072310Y-78304121D01*
X161072308Y-78304118D01*
X161054935Y-78270020D01*
X160991167Y-78144868D01*
X160886111Y-78000272D01*
X160759728Y-77873889D01*
X160615132Y-77768833D01*
X160455881Y-77687691D01*
X160455878Y-77687689D01*
X160285899Y-77632460D01*
X160180051Y-77615695D01*
X160116916Y-77585765D01*
X160079985Y-77526454D01*
X160080983Y-77456591D01*
X160111766Y-77405543D01*
X161917327Y-75599983D01*
X163799500Y-75599983D01*
X163799500Y-76800001D01*
X163799501Y-76800018D01*
X163810000Y-76902796D01*
X163810001Y-76902799D01*
X163865185Y-77069331D01*
X163865187Y-77069336D01*
X163881801Y-77096271D01*
X163957288Y-77218656D01*
X164081344Y-77342712D01*
X164230666Y-77434814D01*
X164397203Y-77489999D01*
X164499991Y-77500500D01*
X165700008Y-77500499D01*
X165802797Y-77489999D01*
X165969334Y-77434814D01*
X166118656Y-77342712D01*
X166242712Y-77218656D01*
X166334814Y-77069334D01*
X166389999Y-76902797D01*
X166400500Y-76800009D01*
X166400499Y-76097648D01*
X168879500Y-76097648D01*
X168879500Y-76302351D01*
X168911522Y-76504534D01*
X168974781Y-76699223D01*
X169067715Y-76881613D01*
X169188028Y-77047213D01*
X169332786Y-77191971D01*
X169476439Y-77296339D01*
X169498390Y-77312287D01*
X169607042Y-77367648D01*
X169680780Y-77405220D01*
X169680786Y-77405222D01*
X169798524Y-77443477D01*
X169847888Y-77473727D01*
X170644181Y-78270020D01*
X170677666Y-78331343D01*
X170680500Y-78357701D01*
X170680500Y-82395500D01*
X170660815Y-82462539D01*
X170608011Y-82508294D01*
X170556500Y-82519500D01*
X169579998Y-82519500D01*
X169579980Y-82519501D01*
X169477203Y-82530000D01*
X169477200Y-82530001D01*
X169310668Y-82585185D01*
X169310663Y-82585187D01*
X169161342Y-82677289D01*
X169037289Y-82801342D01*
X168945187Y-82950663D01*
X168945186Y-82950666D01*
X168890001Y-83117203D01*
X168890001Y-83117204D01*
X168890000Y-83117204D01*
X168879500Y-83219983D01*
X168879500Y-84420001D01*
X168879501Y-84420018D01*
X168890000Y-84522796D01*
X168890001Y-84522799D01*
X168924165Y-84625897D01*
X168945186Y-84689334D01*
X169037288Y-84838656D01*
X169161344Y-84962712D01*
X169310666Y-85054814D01*
X169477203Y-85109999D01*
X169579991Y-85120500D01*
X170556500Y-85120499D01*
X170623539Y-85140183D01*
X170669294Y-85192987D01*
X170680500Y-85244499D01*
X170680500Y-86742298D01*
X170660815Y-86809337D01*
X170644181Y-86829979D01*
X169847887Y-87626272D01*
X169798525Y-87656522D01*
X169680777Y-87694781D01*
X169498386Y-87787715D01*
X169332786Y-87908028D01*
X169188028Y-88052786D01*
X169067715Y-88218386D01*
X168974781Y-88400776D01*
X168911522Y-88595465D01*
X168879500Y-88797648D01*
X168879500Y-89002351D01*
X168911522Y-89204534D01*
X168974781Y-89399223D01*
X169067715Y-89581613D01*
X169188028Y-89747213D01*
X169332786Y-89891971D01*
X169487749Y-90004556D01*
X169498390Y-90012287D01*
X169582582Y-90055185D01*
X169680776Y-90105218D01*
X169680778Y-90105218D01*
X169680781Y-90105220D01*
X169785137Y-90139127D01*
X169875465Y-90168477D01*
X169976557Y-90184488D01*
X170077648Y-90200500D01*
X170077649Y-90200500D01*
X170282351Y-90200500D01*
X170282352Y-90200500D01*
X170484534Y-90168477D01*
X170679219Y-90105220D01*
X170679459Y-90105098D01*
X170683827Y-90102872D01*
X170861610Y-90012287D01*
X170967825Y-89935118D01*
X171027213Y-89891971D01*
X171027215Y-89891968D01*
X171027219Y-89891966D01*
X171171966Y-89747219D01*
X171171968Y-89747215D01*
X171171971Y-89747213D01*
X171256206Y-89631271D01*
X171292287Y-89581610D01*
X171385220Y-89399219D01*
X171423477Y-89281473D01*
X171453725Y-89232112D01*
X172682111Y-88003729D01*
X172751637Y-87908034D01*
X172787167Y-87859132D01*
X172868309Y-87699881D01*
X172907914Y-87577990D01*
X172923539Y-87529901D01*
X172923539Y-87529900D01*
X172923540Y-87529897D01*
X172951500Y-87353366D01*
X172951500Y-77746634D01*
X172923540Y-77570103D01*
X172923539Y-77570099D01*
X172923539Y-77570098D01*
X172868310Y-77400121D01*
X172868308Y-77400118D01*
X172839059Y-77342712D01*
X172787167Y-77240868D01*
X172722414Y-77151744D01*
X172722414Y-77151743D01*
X172682114Y-77096274D01*
X172682109Y-77096269D01*
X172072277Y-76486437D01*
X171453726Y-75867887D01*
X171423477Y-75818524D01*
X171385222Y-75700786D01*
X171385220Y-75700780D01*
X171353037Y-75637620D01*
X171292287Y-75518390D01*
X171276892Y-75497200D01*
X171171971Y-75352786D01*
X171027213Y-75208028D01*
X170861613Y-75087715D01*
X170861612Y-75087714D01*
X170861610Y-75087713D01*
X170801898Y-75057288D01*
X170679223Y-74994781D01*
X170484534Y-74931522D01*
X170309995Y-74903878D01*
X170282352Y-74899500D01*
X170077648Y-74899500D01*
X170053329Y-74903351D01*
X169875465Y-74931522D01*
X169680776Y-74994781D01*
X169498386Y-75087715D01*
X169332786Y-75208028D01*
X169188028Y-75352786D01*
X169067715Y-75518386D01*
X168974781Y-75700776D01*
X168911522Y-75895465D01*
X168879500Y-76097648D01*
X166400499Y-76097648D01*
X166400499Y-75599992D01*
X166389999Y-75497203D01*
X166334814Y-75330666D01*
X166242712Y-75181344D01*
X166118656Y-75057288D01*
X165969334Y-74965186D01*
X165802797Y-74910001D01*
X165802795Y-74910000D01*
X165700010Y-74899500D01*
X164499998Y-74899500D01*
X164499981Y-74899501D01*
X164397203Y-74910000D01*
X164397200Y-74910001D01*
X164230668Y-74965185D01*
X164230663Y-74965187D01*
X164081342Y-75057289D01*
X163957289Y-75181342D01*
X163865187Y-75330663D01*
X163865186Y-75330666D01*
X163810001Y-75497203D01*
X163810001Y-75497204D01*
X163810000Y-75497204D01*
X163799500Y-75599983D01*
X161917327Y-75599983D01*
X165225492Y-72291819D01*
X165286815Y-72258334D01*
X165313173Y-72255500D01*
X169705449Y-72255500D01*
X169743766Y-72261568D01*
X169894199Y-72310447D01*
X170083945Y-72340500D01*
X170083946Y-72340500D01*
X170276054Y-72340500D01*
X170276055Y-72340500D01*
X170465801Y-72310447D01*
X170648509Y-72251082D01*
X170819681Y-72163865D01*
X170975102Y-72050945D01*
X171110945Y-71915102D01*
X171223865Y-71759681D01*
X171311082Y-71588509D01*
X171370447Y-71405801D01*
X171400500Y-71216055D01*
X171400500Y-71023945D01*
X171370447Y-70834199D01*
X171333342Y-70720000D01*
X171311083Y-70651493D01*
X171280536Y-70591541D01*
X171223865Y-70480319D01*
X171110945Y-70324898D01*
X170975102Y-70189055D01*
X170819681Y-70076135D01*
X170694711Y-70012459D01*
X170648504Y-69988915D01*
X170583919Y-69967931D01*
X170526243Y-69928494D01*
X170499044Y-69864136D01*
X170510958Y-69795289D01*
X170558202Y-69743813D01*
X170583919Y-69732069D01*
X170648504Y-69711084D01*
X170648506Y-69711082D01*
X170648509Y-69711082D01*
X170819681Y-69623865D01*
X170975102Y-69510945D01*
X171110945Y-69375102D01*
X171223865Y-69219681D01*
X171295677Y-69078741D01*
X171318476Y-69047362D01*
X172602111Y-67763729D01*
X172646319Y-67702881D01*
X172707167Y-67619132D01*
X172788309Y-67459881D01*
X172832415Y-67324136D01*
X172843539Y-67289901D01*
X172843539Y-67289900D01*
X172843540Y-67289897D01*
X172871500Y-67113366D01*
X172871500Y-62386634D01*
X172870129Y-62377977D01*
X172879080Y-62308684D01*
X172924073Y-62255229D01*
X172973206Y-62236099D01*
X173024422Y-62227988D01*
X173219031Y-62164755D01*
X173401349Y-62071859D01*
X173445921Y-62039474D01*
X172766446Y-61360000D01*
X172772661Y-61360000D01*
X172874394Y-61332741D01*
X172965606Y-61280080D01*
X173040080Y-61205606D01*
X173092741Y-61114394D01*
X173120000Y-61012661D01*
X173120000Y-61006447D01*
X173799474Y-61685921D01*
X173831859Y-61641349D01*
X173924755Y-61459031D01*
X173987990Y-61264417D01*
X174020000Y-61062317D01*
X174020000Y-60857682D01*
X173987990Y-60655582D01*
X173924755Y-60460968D01*
X173831859Y-60278650D01*
X173799474Y-60234077D01*
X173799474Y-60234076D01*
X173120000Y-60913551D01*
X173120000Y-60907339D01*
X173092741Y-60805606D01*
X173040080Y-60714394D01*
X172965606Y-60639920D01*
X172874394Y-60587259D01*
X172772661Y-60560000D01*
X172766446Y-60560000D01*
X173445922Y-59880524D01*
X173445921Y-59880523D01*
X173401359Y-59848147D01*
X173401350Y-59848141D01*
X173219031Y-59755244D01*
X173024417Y-59692009D01*
X172822317Y-59660000D01*
X172617683Y-59660000D01*
X172415582Y-59692009D01*
X172220968Y-59755244D01*
X172038644Y-59848143D01*
X171994077Y-59880523D01*
X171994077Y-59880524D01*
X172673554Y-60560000D01*
X172667339Y-60560000D01*
X172565606Y-60587259D01*
X172474394Y-60639920D01*
X172399920Y-60714394D01*
X172347259Y-60805606D01*
X172320000Y-60907339D01*
X172320000Y-60913553D01*
X171640524Y-60234077D01*
X171602719Y-60237053D01*
X171534341Y-60222689D01*
X171484584Y-60173638D01*
X171482110Y-60168949D01*
X171478101Y-60160942D01*
X171454814Y-60090666D01*
X171362712Y-59941344D01*
X171238656Y-59817288D01*
X171089334Y-59725186D01*
X170922797Y-59670001D01*
X170922795Y-59670000D01*
X170820010Y-59659500D01*
X169619998Y-59659500D01*
X169619981Y-59659501D01*
X169517203Y-59670000D01*
X169517200Y-59670001D01*
X169350668Y-59725185D01*
X169350663Y-59725187D01*
X169201342Y-59817289D01*
X169077289Y-59941342D01*
X168985187Y-60090663D01*
X168985186Y-60090666D01*
X168930001Y-60257203D01*
X168930001Y-60257204D01*
X168930000Y-60257204D01*
X168919500Y-60359983D01*
X168919500Y-61560001D01*
X168919501Y-61560018D01*
X168930000Y-61662796D01*
X168930001Y-61662799D01*
X168954348Y-61736272D01*
X168985186Y-61829334D01*
X169077288Y-61978656D01*
X169201344Y-62102712D01*
X169350666Y-62194814D01*
X169517203Y-62249999D01*
X169619991Y-62260500D01*
X169863297Y-62260499D01*
X169930337Y-62280183D01*
X169950979Y-62296818D01*
X170564181Y-62910020D01*
X170597666Y-62971343D01*
X170600500Y-62997701D01*
X170600500Y-64555298D01*
X170580815Y-64622337D01*
X170528011Y-64668092D01*
X170458853Y-64678036D01*
X170395297Y-64649011D01*
X170388819Y-64642979D01*
X169363726Y-63617887D01*
X169363719Y-63617881D01*
X169330321Y-63593617D01*
X169330319Y-63593615D01*
X169330319Y-63593616D01*
X169219132Y-63512833D01*
X169059881Y-63431691D01*
X169059875Y-63431688D01*
X169003554Y-63413389D01*
X168913733Y-63384204D01*
X168889897Y-63376459D01*
X168889895Y-63376458D01*
X168889894Y-63376458D01*
X168713370Y-63348500D01*
X168713366Y-63348500D01*
X161439020Y-63348500D01*
X161418115Y-63348500D01*
X161351076Y-63328815D01*
X161305321Y-63276011D01*
X161295641Y-63243897D01*
X161287988Y-63195576D01*
X161224755Y-63000968D01*
X161131859Y-62818650D01*
X161099474Y-62774077D01*
X161099474Y-62774076D01*
X160420000Y-63453553D01*
X160420000Y-63447339D01*
X160392741Y-63345606D01*
X160340080Y-63254394D01*
X160265606Y-63179920D01*
X160174394Y-63127259D01*
X160072661Y-63100000D01*
X160066446Y-63100000D01*
X160745922Y-62420524D01*
X160745921Y-62420523D01*
X160701359Y-62388147D01*
X160701350Y-62388141D01*
X160519031Y-62295244D01*
X160324417Y-62232009D01*
X160122317Y-62200000D01*
X159917683Y-62200000D01*
X159715582Y-62232009D01*
X159520968Y-62295244D01*
X159338644Y-62388143D01*
X159294077Y-62420523D01*
X159294077Y-62420524D01*
X159973554Y-63100000D01*
X159967339Y-63100000D01*
X159865606Y-63127259D01*
X159774394Y-63179920D01*
X159699920Y-63254394D01*
X159647259Y-63345606D01*
X159620000Y-63447339D01*
X159620000Y-63453553D01*
X158940524Y-62774077D01*
X158902719Y-62777053D01*
X158834341Y-62762689D01*
X158784584Y-62713638D01*
X158782110Y-62708949D01*
X158778101Y-62700942D01*
X158754814Y-62630666D01*
X158662712Y-62481344D01*
X158538656Y-62357288D01*
X158389334Y-62265186D01*
X158222797Y-62210001D01*
X158222795Y-62210000D01*
X158120016Y-62199500D01*
X158120009Y-62199500D01*
X157995700Y-62199500D01*
X157928661Y-62179815D01*
X157882906Y-62127011D01*
X157872962Y-62057853D01*
X157901987Y-61994297D01*
X157908019Y-61987819D01*
X159661762Y-60234076D01*
X161622113Y-58273725D01*
X161671475Y-58243477D01*
X161789213Y-58205222D01*
X161789219Y-58205220D01*
X161790132Y-58204755D01*
X161971610Y-58112287D01*
X162064590Y-58044732D01*
X162137213Y-57991971D01*
X162137215Y-57991968D01*
X162137219Y-57991966D01*
X162281966Y-57847219D01*
X162281968Y-57847215D01*
X162281971Y-57847213D01*
X162361037Y-57738386D01*
X162402287Y-57681610D01*
X162495220Y-57499219D01*
X162558477Y-57304534D01*
X162590500Y-57102352D01*
X162590500Y-56897648D01*
X162582257Y-56845606D01*
X162558477Y-56695465D01*
X162527458Y-56600000D01*
X162495220Y-56500781D01*
X162495218Y-56500778D01*
X162495218Y-56500776D01*
X162402419Y-56318650D01*
X162402287Y-56318390D01*
X162370092Y-56274077D01*
X162281971Y-56152786D01*
X162137213Y-56008028D01*
X161971613Y-55887715D01*
X161971612Y-55887714D01*
X161971610Y-55887713D01*
X161914653Y-55858691D01*
X161789223Y-55794781D01*
X161594534Y-55731522D01*
X161419995Y-55703878D01*
X161392352Y-55699500D01*
X161187648Y-55699500D01*
X161163329Y-55703351D01*
X160985465Y-55731522D01*
X160790776Y-55794781D01*
X160680473Y-55850985D01*
X160624178Y-55864500D01*
X158910634Y-55864500D01*
X158851790Y-55873820D01*
X158734101Y-55892460D01*
X158734098Y-55892460D01*
X158564121Y-55947689D01*
X158564118Y-55947690D01*
X158404866Y-56028834D01*
X158321116Y-56089681D01*
X158321115Y-56089680D01*
X158260279Y-56133881D01*
X158260271Y-56133888D01*
X155065980Y-59328181D01*
X155004657Y-59361666D01*
X154978299Y-59364500D01*
X151024651Y-59364500D01*
X150957612Y-59344815D01*
X150911857Y-59292011D01*
X150901913Y-59222853D01*
X150924332Y-59167615D01*
X150927325Y-59163495D01*
X150972287Y-59101610D01*
X151065220Y-58919219D01*
X151128477Y-58724534D01*
X151160500Y-58522352D01*
X151160500Y-58317648D01*
X151128477Y-58115466D01*
X151128476Y-58115462D01*
X151128476Y-58115461D01*
X151113878Y-58070533D01*
X151065218Y-57920776D01*
X151027735Y-57847213D01*
X150972287Y-57738390D01*
X150963228Y-57725921D01*
X150851971Y-57572786D01*
X150707213Y-57428028D01*
X150541613Y-57307715D01*
X150541612Y-57307714D01*
X150541610Y-57307713D01*
X150484653Y-57278691D01*
X150359223Y-57214781D01*
X150164534Y-57151522D01*
X149989995Y-57123878D01*
X149962352Y-57119500D01*
X149757648Y-57119500D01*
X149733329Y-57123351D01*
X149555465Y-57151522D01*
X149360776Y-57214781D01*
X149178386Y-57307715D01*
X149012786Y-57428028D01*
X148868028Y-57572786D01*
X148747715Y-57738386D01*
X148654781Y-57920776D01*
X148591522Y-58115465D01*
X148559500Y-58317648D01*
X148559500Y-58522351D01*
X148591522Y-58724534D01*
X148654781Y-58919223D01*
X148718691Y-59044653D01*
X148747712Y-59101609D01*
X148747715Y-59101613D01*
X148868028Y-59267213D01*
X148933092Y-59332277D01*
X148966577Y-59393600D01*
X148961593Y-59463292D01*
X148919721Y-59519225D01*
X148908855Y-59525997D01*
X148909030Y-59526283D01*
X148904871Y-59528831D01*
X148904868Y-59528833D01*
X148904865Y-59528835D01*
X148904862Y-59528837D01*
X148772206Y-59625216D01*
X148772207Y-59625217D01*
X148760275Y-59633885D01*
X148760270Y-59633890D01*
X147801980Y-60592181D01*
X147740657Y-60625666D01*
X147714299Y-60628500D01*
X144395819Y-60628500D01*
X144219294Y-60656458D01*
X144103437Y-60694102D01*
X144103438Y-60694103D01*
X144049303Y-60711692D01*
X143890056Y-60792833D01*
X143782974Y-60870634D01*
X143745461Y-60897888D01*
X134293890Y-70349459D01*
X134188833Y-70494056D01*
X134107243Y-70654186D01*
X134106184Y-70657943D01*
X134052458Y-70823294D01*
X134024500Y-70999818D01*
X130040500Y-70999818D01*
X130040500Y-63413389D01*
X136059500Y-63413389D01*
X136059500Y-63586611D01*
X136086598Y-63757701D01*
X136140127Y-63922445D01*
X136218768Y-64076788D01*
X136320586Y-64216928D01*
X136443072Y-64339414D01*
X136583212Y-64441232D01*
X136737555Y-64519873D01*
X136902299Y-64573402D01*
X137073389Y-64600500D01*
X137073390Y-64600500D01*
X137246610Y-64600500D01*
X137246611Y-64600500D01*
X137417701Y-64573402D01*
X137582445Y-64519873D01*
X137736788Y-64441232D01*
X137743591Y-64436289D01*
X138577261Y-64436289D01*
X138577262Y-64436290D01*
X138583471Y-64440801D01*
X138737742Y-64519408D01*
X138902415Y-64572914D01*
X139073429Y-64600000D01*
X139246571Y-64600000D01*
X139417584Y-64572914D01*
X139582257Y-64519408D01*
X139736525Y-64440803D01*
X139742736Y-64436289D01*
X139742737Y-64436289D01*
X139160001Y-63853553D01*
X139160000Y-63853553D01*
X138577261Y-64436289D01*
X137743591Y-64436289D01*
X137876928Y-64339414D01*
X137999414Y-64216928D01*
X138065948Y-64125351D01*
X138069268Y-64121493D01*
X138094489Y-64105157D01*
X138118280Y-64086812D01*
X138124149Y-64085946D01*
X138127912Y-64083510D01*
X138140991Y-64083463D01*
X138172999Y-64078745D01*
X138223710Y-64082736D01*
X138806446Y-63500001D01*
X138806446Y-63499999D01*
X138766951Y-63460504D01*
X138860000Y-63460504D01*
X138860000Y-63539496D01*
X138880444Y-63615796D01*
X138919940Y-63684205D01*
X138975795Y-63740060D01*
X139044204Y-63779556D01*
X139120504Y-63800000D01*
X139199496Y-63800000D01*
X139275796Y-63779556D01*
X139344205Y-63740060D01*
X139400060Y-63684205D01*
X139439556Y-63615796D01*
X139460000Y-63539496D01*
X139460000Y-63499999D01*
X139513553Y-63499999D01*
X139513553Y-63500001D01*
X140096289Y-64082737D01*
X140096289Y-64082736D01*
X140100803Y-64076525D01*
X140179408Y-63922257D01*
X140232914Y-63757584D01*
X140260000Y-63586571D01*
X140260000Y-63413428D01*
X140232914Y-63242415D01*
X140179408Y-63077742D01*
X140100801Y-62923471D01*
X140096290Y-62917262D01*
X140096289Y-62917261D01*
X139513553Y-63499999D01*
X139460000Y-63499999D01*
X139460000Y-63460504D01*
X139439556Y-63384204D01*
X139400060Y-63315795D01*
X139344205Y-63259940D01*
X139275796Y-63220444D01*
X139199496Y-63200000D01*
X139120504Y-63200000D01*
X139044204Y-63220444D01*
X138975795Y-63259940D01*
X138919940Y-63315795D01*
X138880444Y-63384204D01*
X138860000Y-63460504D01*
X138766951Y-63460504D01*
X138223708Y-62917261D01*
X138173004Y-62921254D01*
X138167869Y-62920175D01*
X138162830Y-62921636D01*
X138134024Y-62913067D01*
X138104626Y-62906893D01*
X138099538Y-62902809D01*
X138095861Y-62901715D01*
X138083041Y-62889564D01*
X138069269Y-62878508D01*
X138065947Y-62874647D01*
X137999414Y-62783072D01*
X137876928Y-62660586D01*
X137743587Y-62563708D01*
X138577261Y-62563708D01*
X138577261Y-62563709D01*
X139160000Y-63146446D01*
X139160001Y-63146446D01*
X139742737Y-62563709D01*
X139736525Y-62559196D01*
X139582259Y-62480592D01*
X139417584Y-62427085D01*
X139246571Y-62400000D01*
X139073429Y-62400000D01*
X138902415Y-62427085D01*
X138737740Y-62480592D01*
X138583480Y-62559193D01*
X138583463Y-62559203D01*
X138577261Y-62563708D01*
X137743587Y-62563708D01*
X137736788Y-62558768D01*
X137582445Y-62480127D01*
X137417701Y-62426598D01*
X137417699Y-62426597D01*
X137417698Y-62426597D01*
X137286271Y-62405781D01*
X137246611Y-62399500D01*
X137073389Y-62399500D01*
X137033728Y-62405781D01*
X136902302Y-62426597D01*
X136737552Y-62480128D01*
X136583211Y-62558768D01*
X136503256Y-62616859D01*
X136443072Y-62660586D01*
X136443070Y-62660588D01*
X136443069Y-62660588D01*
X136320588Y-62783069D01*
X136320588Y-62783070D01*
X136320586Y-62783072D01*
X136294737Y-62818650D01*
X136218768Y-62923211D01*
X136140128Y-63077552D01*
X136086597Y-63242302D01*
X136074957Y-63315795D01*
X136059500Y-63413389D01*
X130040500Y-63413389D01*
X130040500Y-58317648D01*
X140939500Y-58317648D01*
X140939500Y-58522351D01*
X140971522Y-58724534D01*
X141034781Y-58919223D01*
X141098691Y-59044653D01*
X141127712Y-59101609D01*
X141127715Y-59101613D01*
X141248028Y-59267213D01*
X141392786Y-59411971D01*
X141547749Y-59524556D01*
X141558390Y-59532287D01*
X141674607Y-59591503D01*
X141740776Y-59625218D01*
X141740778Y-59625218D01*
X141740781Y-59625220D01*
X141767465Y-59633890D01*
X141935465Y-59688477D01*
X142036557Y-59704488D01*
X142137648Y-59720500D01*
X142137649Y-59720500D01*
X142342351Y-59720500D01*
X142342352Y-59720500D01*
X142544534Y-59688477D01*
X142739219Y-59625220D01*
X142921610Y-59532287D01*
X143016574Y-59463292D01*
X143087213Y-59411971D01*
X143087215Y-59411968D01*
X143087219Y-59411966D01*
X143231966Y-59267219D01*
X143231968Y-59267215D01*
X143231971Y-59267213D01*
X143304332Y-59167615D01*
X143352287Y-59101610D01*
X143445220Y-58919219D01*
X143508477Y-58724534D01*
X143540500Y-58522352D01*
X143540500Y-58317648D01*
X143537705Y-58300000D01*
X143508477Y-58115465D01*
X143445218Y-57920776D01*
X143407735Y-57847213D01*
X143352287Y-57738390D01*
X143343228Y-57725921D01*
X143231971Y-57572786D01*
X143087213Y-57428028D01*
X142921613Y-57307715D01*
X142921612Y-57307714D01*
X142921610Y-57307713D01*
X142864653Y-57278691D01*
X142739223Y-57214781D01*
X142544534Y-57151522D01*
X142369995Y-57123878D01*
X142342352Y-57119500D01*
X142137648Y-57119500D01*
X142113329Y-57123351D01*
X141935465Y-57151522D01*
X141740776Y-57214781D01*
X141558386Y-57307715D01*
X141392786Y-57428028D01*
X141248028Y-57572786D01*
X141127715Y-57738386D01*
X141034781Y-57920776D01*
X140971522Y-58115465D01*
X140939500Y-58317648D01*
X130040500Y-58317648D01*
X130040500Y-56897682D01*
X152370000Y-56897682D01*
X152370000Y-57102317D01*
X152402009Y-57304417D01*
X152465244Y-57499031D01*
X152558141Y-57681350D01*
X152558147Y-57681359D01*
X152590523Y-57725921D01*
X152590524Y-57725922D01*
X153270000Y-57046446D01*
X153270000Y-57052661D01*
X153297259Y-57154394D01*
X153349920Y-57245606D01*
X153424394Y-57320080D01*
X153515606Y-57372741D01*
X153617339Y-57400000D01*
X153623553Y-57400000D01*
X152944076Y-58079474D01*
X152988650Y-58111859D01*
X153170968Y-58204755D01*
X153365582Y-58267990D01*
X153567683Y-58300000D01*
X153772317Y-58300000D01*
X153974417Y-58267990D01*
X154169031Y-58204755D01*
X154351349Y-58111859D01*
X154395921Y-58079474D01*
X153716447Y-57400000D01*
X153722661Y-57400000D01*
X153824394Y-57372741D01*
X153915606Y-57320080D01*
X153990080Y-57245606D01*
X154042741Y-57154394D01*
X154070000Y-57052661D01*
X154070000Y-57046448D01*
X154749474Y-57725922D01*
X154749474Y-57725921D01*
X154781859Y-57681349D01*
X154874755Y-57499031D01*
X154937990Y-57304417D01*
X154970000Y-57102317D01*
X154970000Y-56897682D01*
X154937990Y-56695582D01*
X154874755Y-56500968D01*
X154781859Y-56318650D01*
X154749474Y-56274077D01*
X154749474Y-56274076D01*
X154070000Y-56953551D01*
X154070000Y-56947339D01*
X154042741Y-56845606D01*
X153990080Y-56754394D01*
X153915606Y-56679920D01*
X153824394Y-56627259D01*
X153722661Y-56600000D01*
X153716446Y-56600000D01*
X154395922Y-55920524D01*
X154395921Y-55920523D01*
X154351359Y-55888147D01*
X154351350Y-55888141D01*
X154169031Y-55795244D01*
X153974417Y-55732009D01*
X153772317Y-55700000D01*
X153567683Y-55700000D01*
X153365582Y-55732009D01*
X153170968Y-55795244D01*
X152988644Y-55888143D01*
X152944077Y-55920523D01*
X152944077Y-55920524D01*
X153623554Y-56600000D01*
X153617339Y-56600000D01*
X153515606Y-56627259D01*
X153424394Y-56679920D01*
X153349920Y-56754394D01*
X153297259Y-56845606D01*
X153270000Y-56947339D01*
X153270000Y-56953553D01*
X152590524Y-56274077D01*
X152590523Y-56274077D01*
X152558143Y-56318644D01*
X152465244Y-56500968D01*
X152402009Y-56695582D01*
X152370000Y-56897682D01*
X130040500Y-56897682D01*
X130040500Y-52439982D01*
X146989500Y-52439982D01*
X146989500Y-54240017D01*
X147000000Y-54342796D01*
X147000001Y-54342798D01*
X147055186Y-54509335D01*
X147147288Y-54658656D01*
X147271344Y-54782712D01*
X147420665Y-54874814D01*
X147587202Y-54929999D01*
X147689990Y-54940500D01*
X147689995Y-54940500D01*
X149490005Y-54940500D01*
X149490010Y-54940500D01*
X149592798Y-54929999D01*
X149759335Y-54874814D01*
X149908656Y-54782712D01*
X150032712Y-54658656D01*
X150124814Y-54509335D01*
X150179999Y-54342798D01*
X150190500Y-54240010D01*
X150190500Y-53214071D01*
X154610000Y-53214071D01*
X154610000Y-53465928D01*
X154649397Y-53714669D01*
X154727219Y-53954184D01*
X154841557Y-54178583D01*
X154915748Y-54280697D01*
X154915748Y-54280698D01*
X155686212Y-53510234D01*
X155697482Y-53552292D01*
X155769890Y-53677708D01*
X155872292Y-53780110D01*
X155997708Y-53852518D01*
X156039765Y-53863787D01*
X155269300Y-54634250D01*
X155371416Y-54708442D01*
X155595815Y-54822780D01*
X155835330Y-54900602D01*
X156084072Y-54940000D01*
X156335928Y-54940000D01*
X156584669Y-54900602D01*
X156824184Y-54822780D01*
X157048575Y-54708446D01*
X157048581Y-54708442D01*
X157150697Y-54634250D01*
X157150698Y-54634250D01*
X156380234Y-53863787D01*
X156422292Y-53852518D01*
X156547708Y-53780110D01*
X156650110Y-53677708D01*
X156722518Y-53552292D01*
X156733787Y-53510235D01*
X157504250Y-54280698D01*
X157504250Y-54280697D01*
X157578442Y-54178581D01*
X157578446Y-54178575D01*
X157692780Y-53954184D01*
X157770602Y-53714669D01*
X157810000Y-53465928D01*
X157810000Y-53214071D01*
X157770602Y-52965330D01*
X157692780Y-52725815D01*
X157578442Y-52501416D01*
X157504250Y-52399301D01*
X157504250Y-52399300D01*
X156733787Y-53169764D01*
X156722518Y-53127708D01*
X156650110Y-53002292D01*
X156547708Y-52899890D01*
X156422292Y-52827482D01*
X156380232Y-52816212D01*
X157150698Y-52045748D01*
X157048583Y-51971557D01*
X156824184Y-51857219D01*
X156584669Y-51779397D01*
X156335928Y-51740000D01*
X156084072Y-51740000D01*
X155835330Y-51779397D01*
X155595815Y-51857219D01*
X155371413Y-51971559D01*
X155269301Y-52045747D01*
X155269300Y-52045748D01*
X156039765Y-52816212D01*
X155997708Y-52827482D01*
X155872292Y-52899890D01*
X155769890Y-53002292D01*
X155697482Y-53127708D01*
X155686212Y-53169765D01*
X154915748Y-52399300D01*
X154915747Y-52399301D01*
X154841559Y-52501413D01*
X154727219Y-52725815D01*
X154649397Y-52965330D01*
X154610000Y-53214071D01*
X150190500Y-53214071D01*
X150190500Y-52439990D01*
X150179999Y-52337202D01*
X150124814Y-52170665D01*
X150032712Y-52021344D01*
X149908656Y-51897288D01*
X149759335Y-51805186D01*
X149592798Y-51750001D01*
X149592796Y-51750000D01*
X149490017Y-51739500D01*
X149490010Y-51739500D01*
X147689990Y-51739500D01*
X147689982Y-51739500D01*
X147587203Y-51750000D01*
X147587202Y-51750001D01*
X147504669Y-51777349D01*
X147420667Y-51805185D01*
X147420662Y-51805187D01*
X147271342Y-51897289D01*
X147147289Y-52021342D01*
X147055187Y-52170662D01*
X147055186Y-52170665D01*
X147000001Y-52337202D01*
X147000001Y-52337203D01*
X147000000Y-52337203D01*
X146989500Y-52439982D01*
X130040500Y-52439982D01*
X130040500Y-50674038D01*
X138099500Y-50674038D01*
X138099500Y-50925961D01*
X138138910Y-51174785D01*
X138216760Y-51414383D01*
X138331132Y-51638848D01*
X138479201Y-51842649D01*
X138479205Y-51842654D01*
X138657345Y-52020794D01*
X138657350Y-52020798D01*
X138835117Y-52149952D01*
X138861155Y-52168870D01*
X139004184Y-52241747D01*
X139085616Y-52283239D01*
X139085618Y-52283239D01*
X139085621Y-52283241D01*
X139325215Y-52361090D01*
X139574038Y-52400500D01*
X139574039Y-52400500D01*
X139825961Y-52400500D01*
X139825962Y-52400500D01*
X140074785Y-52361090D01*
X140314379Y-52283241D01*
X140538845Y-52168870D01*
X140742656Y-52020793D01*
X140920793Y-51842656D01*
X141068870Y-51638845D01*
X141183241Y-51414379D01*
X141261090Y-51174785D01*
X141300500Y-50925962D01*
X141300500Y-50674038D01*
X141261090Y-50425215D01*
X141183241Y-50185621D01*
X141183239Y-50185618D01*
X141183239Y-50185616D01*
X141141747Y-50104184D01*
X141068870Y-49961155D01*
X141049952Y-49935117D01*
X140920798Y-49757350D01*
X140920794Y-49757345D01*
X140742654Y-49579205D01*
X140742649Y-49579201D01*
X140538848Y-49431132D01*
X140538847Y-49431131D01*
X140538845Y-49431130D01*
X140468747Y-49395413D01*
X140314383Y-49316760D01*
X140074785Y-49238910D01*
X139825962Y-49199500D01*
X139574038Y-49199500D01*
X139449626Y-49219205D01*
X139325214Y-49238910D01*
X139085616Y-49316760D01*
X138861151Y-49431132D01*
X138657350Y-49579201D01*
X138657345Y-49579205D01*
X138479205Y-49757345D01*
X138479201Y-49757350D01*
X138331132Y-49961151D01*
X138216760Y-50185616D01*
X138138910Y-50425214D01*
X138099500Y-50674038D01*
X130040500Y-50674038D01*
X130040500Y-46344500D01*
X130060185Y-46277461D01*
X130112989Y-46231706D01*
X130164500Y-46220500D01*
X177175500Y-46220500D01*
X177242539Y-46240185D01*
G37*
%TD.AperFunction*%
%TD*%
M02*
