%TF.GenerationSoftware,KiCad,Pcbnew,9.0.7*%
%TF.CreationDate,2026-02-12T23:19:41-05:00*%
%TF.ProjectId,Pedal,50656461-6c2e-46b6-9963-61645f706362,rev?*%
%TF.SameCoordinates,Original*%
%TF.FileFunction,Legend,Bot*%
%TF.FilePolarity,Positive*%
%FSLAX46Y46*%
G04 Gerber Fmt 4.6, Leading zero omitted, Abs format (unit mm)*
G04 Created by KiCad (PCBNEW 9.0.7) date 2026-02-12 23:19:41*
%MOMM*%
%LPD*%
G01*
G04 APERTURE LIST*
%ADD10C,0.150000*%
%ADD11C,0.120000*%
G04 APERTURE END LIST*
D10*
X159954819Y-67904761D02*
X159478628Y-67571428D01*
X159954819Y-67333333D02*
X158954819Y-67333333D01*
X158954819Y-67333333D02*
X158954819Y-67714285D01*
X158954819Y-67714285D02*
X159002438Y-67809523D01*
X159002438Y-67809523D02*
X159050057Y-67857142D01*
X159050057Y-67857142D02*
X159145295Y-67904761D01*
X159145295Y-67904761D02*
X159288152Y-67904761D01*
X159288152Y-67904761D02*
X159383390Y-67857142D01*
X159383390Y-67857142D02*
X159431009Y-67809523D01*
X159431009Y-67809523D02*
X159478628Y-67714285D01*
X159478628Y-67714285D02*
X159478628Y-67333333D01*
X158954819Y-68190476D02*
X159954819Y-68523809D01*
X159954819Y-68523809D02*
X158954819Y-68857142D01*
X159050057Y-69142857D02*
X159002438Y-69190476D01*
X159002438Y-69190476D02*
X158954819Y-69285714D01*
X158954819Y-69285714D02*
X158954819Y-69523809D01*
X158954819Y-69523809D02*
X159002438Y-69619047D01*
X159002438Y-69619047D02*
X159050057Y-69666666D01*
X159050057Y-69666666D02*
X159145295Y-69714285D01*
X159145295Y-69714285D02*
X159240533Y-69714285D01*
X159240533Y-69714285D02*
X159383390Y-69666666D01*
X159383390Y-69666666D02*
X159954819Y-69095238D01*
X159954819Y-69095238D02*
X159954819Y-69714285D01*
X153143094Y-59994819D02*
X153143094Y-58994819D01*
X153143094Y-58994819D02*
X152904999Y-58994819D01*
X152904999Y-58994819D02*
X152762142Y-59042438D01*
X152762142Y-59042438D02*
X152666904Y-59137676D01*
X152666904Y-59137676D02*
X152619285Y-59232914D01*
X152619285Y-59232914D02*
X152571666Y-59423390D01*
X152571666Y-59423390D02*
X152571666Y-59566247D01*
X152571666Y-59566247D02*
X152619285Y-59756723D01*
X152619285Y-59756723D02*
X152666904Y-59851961D01*
X152666904Y-59851961D02*
X152762142Y-59947200D01*
X152762142Y-59947200D02*
X152904999Y-59994819D01*
X152904999Y-59994819D02*
X153143094Y-59994819D01*
X151714523Y-59328152D02*
X151714523Y-59994819D01*
X151952618Y-58947200D02*
X152190713Y-59661485D01*
X152190713Y-59661485D02*
X151571666Y-59661485D01*
X174044819Y-67984761D02*
X173568628Y-67651428D01*
X174044819Y-67413333D02*
X173044819Y-67413333D01*
X173044819Y-67413333D02*
X173044819Y-67794285D01*
X173044819Y-67794285D02*
X173092438Y-67889523D01*
X173092438Y-67889523D02*
X173140057Y-67937142D01*
X173140057Y-67937142D02*
X173235295Y-67984761D01*
X173235295Y-67984761D02*
X173378152Y-67984761D01*
X173378152Y-67984761D02*
X173473390Y-67937142D01*
X173473390Y-67937142D02*
X173521009Y-67889523D01*
X173521009Y-67889523D02*
X173568628Y-67794285D01*
X173568628Y-67794285D02*
X173568628Y-67413333D01*
X173044819Y-68270476D02*
X174044819Y-68603809D01*
X174044819Y-68603809D02*
X173044819Y-68937142D01*
X174044819Y-69794285D02*
X174044819Y-69222857D01*
X174044819Y-69508571D02*
X173044819Y-69508571D01*
X173044819Y-69508571D02*
X173187676Y-69413333D01*
X173187676Y-69413333D02*
X173282914Y-69318095D01*
X173282914Y-69318095D02*
X173330533Y-69222857D01*
X147915238Y-74984819D02*
X148248571Y-74508628D01*
X148486666Y-74984819D02*
X148486666Y-73984819D01*
X148486666Y-73984819D02*
X148105714Y-73984819D01*
X148105714Y-73984819D02*
X148010476Y-74032438D01*
X148010476Y-74032438D02*
X147962857Y-74080057D01*
X147962857Y-74080057D02*
X147915238Y-74175295D01*
X147915238Y-74175295D02*
X147915238Y-74318152D01*
X147915238Y-74318152D02*
X147962857Y-74413390D01*
X147962857Y-74413390D02*
X148010476Y-74461009D01*
X148010476Y-74461009D02*
X148105714Y-74508628D01*
X148105714Y-74508628D02*
X148486666Y-74508628D01*
X147629523Y-73984819D02*
X147296190Y-74984819D01*
X147296190Y-74984819D02*
X146962857Y-73984819D01*
X146724761Y-73984819D02*
X146105714Y-73984819D01*
X146105714Y-73984819D02*
X146439047Y-74365771D01*
X146439047Y-74365771D02*
X146296190Y-74365771D01*
X146296190Y-74365771D02*
X146200952Y-74413390D01*
X146200952Y-74413390D02*
X146153333Y-74461009D01*
X146153333Y-74461009D02*
X146105714Y-74556247D01*
X146105714Y-74556247D02*
X146105714Y-74794342D01*
X146105714Y-74794342D02*
X146153333Y-74889580D01*
X146153333Y-74889580D02*
X146200952Y-74937200D01*
X146200952Y-74937200D02*
X146296190Y-74984819D01*
X146296190Y-74984819D02*
X146581904Y-74984819D01*
X146581904Y-74984819D02*
X146677142Y-74937200D01*
X146677142Y-74937200D02*
X146724761Y-74889580D01*
D11*
%TO.C,RV2*%
X160290000Y-65115000D02*
X160290000Y-72045000D01*
X160290000Y-72045000D02*
X162343000Y-72045000D01*
X162343000Y-65115000D02*
X160290000Y-65115000D01*
X162777000Y-72045000D02*
X165010000Y-72045000D01*
X165010000Y-65115000D02*
X162777000Y-65115000D01*
X165010000Y-72045000D02*
X165010000Y-65115000D01*
%TO.C,D4*%
X154965000Y-61955000D02*
X154965000Y-65045000D01*
X149415000Y-63500000D02*
G75*
G02*
X154965000Y-61955170I2990000J0D01*
G01*
X154965000Y-65044830D02*
G75*
G02*
X149415000Y-63500000I-2560000J1544830D01*
G01*
X154905000Y-63500000D02*
G75*
G02*
X149905000Y-63500000I-2500000J0D01*
G01*
X149905000Y-63500000D02*
G75*
G02*
X154905000Y-63500000I2500000J0D01*
G01*
%TO.C,RV1*%
X167730000Y-65115000D02*
X167730000Y-72045000D01*
X167730000Y-72045000D02*
X169963000Y-72045000D01*
X169963000Y-65115000D02*
X167730000Y-65115000D01*
X170397000Y-72045000D02*
X172450000Y-72045000D01*
X172450000Y-65115000D02*
X170397000Y-65115000D01*
X172450000Y-72045000D02*
X172450000Y-65115000D01*
%TO.C,RV3*%
X143855000Y-68670000D02*
X143855000Y-70903000D01*
X143855000Y-71337000D02*
X143855000Y-73390000D01*
X143855000Y-73390000D02*
X150785000Y-73390000D01*
X150785000Y-68670000D02*
X143855000Y-68670000D01*
X150785000Y-70903000D02*
X150785000Y-68670000D01*
X150785000Y-73390000D02*
X150785000Y-71337000D01*
%TD*%
M02*
